{
.appVersion = "1199";
DisplayStrings = (
C,
a
);
copyright = "Copyright (c) 2011, Dan Sayers (i@iotic.com)";
customParameters = (
{
name = license;
value = "This Font Software is licensed under the SIL Open Font License, Version 1.1. This license is copied below, and is also available with a FAQ at: http://scripts.sil.org/OFL";
},
{
name = licenseURL;
value = "http://scripts.sil.org/OFL";
},
{
name = vendorID;
value = DANS;
},
{
name = panose;
value = (
2,
0,
6,
3,
0,
0,
0,
0,
0,
4
);
},
{
name = fsType;
value = (
);
},
{
name = "Disable Last Change";
value = 1;
},
{
name = "Use Line Breaks";
value = 1;
},
{
name = "Use Typo Metrics";
value = 1;
},
{
name = Axes;
value = (
{
Name = Weight;
Tag = wght;
}
);
}
);
date = "2011-11-13 19:02:34 +0000";
designer = "Dan Sayers";
designerURL = iotic.com;
disablesNiceNames = 1;
familyName = "Averia Serif Libre";
fontMaster = (
{
ascender = 1622;
capHeight = 700;
customParameters = (
{
name = typoAscender;
value = 1890;
},
{
name = typoDescender;
value = -426;
},
{
name = typoLineGap;
value = 184;
},
{
name = winAscent;
value = 1890;
},
{
name = winDescent;
value = 465;
},
{
name = hheaAscender;
value = 1890;
},
{
name = hheaDescender;
value = -465;
},
{
name = strikeoutPosition;
value = 530;
},
{
name = strikeoutSize;
value = 102;
},
{
name = "Axis Location";
value = (
{
Axis = Weight;
Location = 300;
}
);
}
);
descender = -426;
id = "92A672BF-229C-4BEC-8D25-4DDBB2A38145";
weight = Light;
weightValue = 300;
widthValue = 5;
xHeight = 500;
},
{
ascender = 1622;
capHeight = 700;
customParameters = (
{
name = typoAscender;
value = 1622;
},
{
name = typoDescender;
value = -426;
},
{
name = typoLineGap;
value = 184;
},
{
name = winAscent;
value = 1833;
},
{
name = winDescent;
value = 466;
},
{
name = hheaAscender;
value = 1833;
},
{
name = hheaDescender;
value = -466;
},
{
name = strikeoutPosition;
value = 530;
},
{
name = strikeoutSize;
value = 102;
},
{
name = "Axis Location";
value = (
{
Axis = Weight;
Location = 700;
}
);
}

glyphs = (
{
glyphname = A;
layers = (
{
anchors = (
{
name = bottom;
position = "{694, -2}";
},
{
name = top;
position = "{679, 1390}";
}
);
layerId = "5CBF0BAD-1756-4F16-9711-93DC239D102B";
paths = (
{
closed = 1;
nodes = (
"503 644 OFFCURVE",
"654 1083 OFFCURVE",
"675.5 1083 CURVE SMOOTH",
"692 1083 OFFCURVE",
"848 672 OFFCURVE",
"848 615 CURVE SMOOTH",
"848 587 OFFCURVE",
"837 582 OFFCURVE",
"711 582 CURVE SMOOTH",
"519 582 OFFCURVE",
"503 587 OFFCURVE",
"503 607 CURVE SMOOTH"
);
},
{
closed = 1;
nodes = (
"23 0 OFFCURVE",
"80 -13 OFFCURVE",
"289 -14 CURVE SMOOTH",
"414 -15 OFFCURVE",
"445 -6 OFFCURVE",
"445 28 CURVE SMOOTH",
"445 98 OFFCURVE",
"388 154 OFFCURVE",
"388 234 CURVE SMOOTH",
"388 296 OFFCURVE",
"434 392 OFFCURVE",
"472 416 CURVE SMOOTH",
"499 433 OFFCURVE",
"629 438 OFFCURVE",
"740 438 CURVE SMOOTH",
"817 438 OFFCURVE",
"869 431 OFFCURVE",
"895 405 CURVE SMOOTH",
"920 380 OFFCURVE",
"954 303 OFFCURVE",
"954 220 CURVE SMOOTH",
"954 184 OFFCURVE",
"915 70 OFFCURVE",
"915 48 CURVE SMOOTH",
"915 12 OFFCURVE",
"957 -7 OFFCURVE",
"1041 -6 CURVE SMOOTH",
"1399 0 OFFCURVE",
"1439 12 OFFCURVE",
"1439 63 CURVE SMOOTH",
"1439 110 OFFCURVE",
"1320 154 OFFCURVE",
"1253 315 CURVE SMOOTH",
"1209 421 OFFCURVE",
"998 1043 OFFCURVE",
"895 1232 CURVE SMOOTH",
"841 1331 OFFCURVE",
"788 1390 OFFCURVE",
"700 1390 CURVE SMOOTH",
"594 1390 OFFCURVE",
"539 1331 OFFCURVE",
"461 1021 CURVE SMOOTH",
"422 866 OFFCURVE",
"340 615 OFFCURVE",
"194 273 CURVE SMOOTH",
"152 174 OFFCURVE",
"23 89 OFFCURVE",
"23 71 CURVE SMOOTH"
);
}
);
width = 1474;
},
{
anchors = (
{
name = bottom;
position = "{651, -3}";
},
{
name = top;
position = "{692, 1391}";
}
);
layerId = "92A672BF-229C-4BEC-8D25-4DDBB2A38145";
paths = (
{
closed = 1;
nodes = (
"455 622 OFFCURVE",
"646 1154 OFFCURVE",
"660.5 1154 CURVE SMOOTH",
"677 1154 OFFCURVE",
"859 641 OFFCURVE",
"859 591 CURVE SMOOTH",
"859 581.667 OFFCURVE",
"813.667 577 OFFCURVE",
"723 577 CURVE SMOOTH",
"511 577 OFFCURVE",
"455 576 OFFCURVE",
"455 595 CURVE SMOOTH"
);
},
{
closed = 1;
nodes = (
"20 27 OFFCURVE",
"109.667 13 OFFCURVE",
"289 13 CURVE SMOOTH",
"354.333 13 OFFCURVE",
"387 25 OFFCURVE",
"387 48 CURVE SMOOTH",
"387 73 OFFCURVE",
"304 130 OFFCURVE",
"304 173 CURVE SMOOTH",
"304 200 OFFCURVE",
"317 251 OFFCURVE",
"347 323.5 CURVE SMOOTH",
"410 477 OFFCURVE",
"436 486 OFFCURVE",
"702 486 CURVE SMOOTH",
"825 486 OFFCURVE",
"877 477 OFFCURVE",
"907 436 CURVE SMOOTH",
"932 401 OFFCURVE",
"1005 224 OFFCURVE",
"1005 173.5 CURVE SMOOTH",
"1005 129.465 OFFCURVE",
"939 72.687 OFFCURVE",
"939 41 CURVE SMOOTH",
"939 17 OFFCURVE",
"997.333 5 OFFCURVE",
"1114 5 CURVE SMOOTH",
"1314 5 OFFCURVE",
"1386 8 OFFCURVE",
"1386 44 CURVE SMOOTH",
"1386 81 OFFCURVE",
"1272 117 OFFCURVE",
"1240 186 CURVE SMOOTH",
"1206 260 OFFCURVE",
"980 867 OFFCURVE",
"925 1028 CURVE SMOOTH",
"870 1189 OFFCURVE",
"793 1391 OFFCURVE",
"703 1391 CURVE SMOOTH",
"576 1391 OFFCURVE",
"562 1218 OFFCURVE",
"495 1028 CURVE SMOOTH",
"474 968 OFFCURVE",
"182 243 OFFCURVE",
"174 223 CURVE SMOOTH",
"139 140 OFFCURVE",
"20 85 OFFCURVE",
"20 53 CURVE SMOOTH"
);
}
);
width = 1436;
}
);
note = uni0041;
unicode = 0041;
},
{
glyphname = AE;
layers = (
{
layerId = "92A672BF-229C-4BEC-8D25-4DDBB2A38145";
paths = (
{
closed = 1;
nodes = (
"1671 1 OFFCURVE",
"1792 25 OFFCURVE",
"1792 206 CURVE SMOOTH",
"1792 248 OFFCURVE",
"1779 262 OFFCURVE",
"1755 262 CURVE SMOOTH",
"1736 262 OFFCURVE",
"1627 123 OFFCURVE",
"1371 123 CURVE SMOOTH",
"1172 123 OFFCURVE",
"1140 248 OFFCURVE",
"1138 468 CURVE SMOOTH",
"1137 574 OFFCURVE",
"1186 634 OFFCURVE",
"1299 634 CURVE SMOOTH",
"1365 634 OFFCURVE",
"1473 553 OFFCURVE",
"1507 553 CURVE SMOOTH",
"1543 553 OFFCURVE",
"1564 601 OFFCURVE",
"1564 707.5 CURVE SMOOTH",
"1564 815 OFFCURVE",
"1543 866 OFFCURVE",
"1504 866 CURVE SMOOTH",
"1462 866 OFFCURVE",
"1367 785 OFFCURVE",
"1294 785 CURVE SMOOTH",
"1200 785 OFFCURVE",
"1134 838 OFFCURVE",
"1134 942 CURVE SMOOTH",
"1134 1201 OFFCURVE",
"1174 1270 OFFCURVE",
"1315 1270 CURVE SMOOTH",
"1590 1270 OFFCURVE",
"1663 1143 OFFCURVE",
"1698 1143 CURVE SMOOTH",
"1720 1143 OFFCURVE",
"1728 1164 OFFCURVE",
"1728 1206 CURVE SMOOTH",
"1728 1330 OFFCURVE",
"1653 1381 OFFCURVE",
"1486 1381 CURVE SMOOTH",
"1340 1381 OFFCURVE",
"1194 1380 OFFCURVE",
"1048 1380 CURVE SMOOTH",
"927 1380 OFFCURVE",
"844.167 1374.167 OFFCURVE",
"800.5 1362.5 CURVE SMOOTH",
"756.833 1350.833 OFFCURVE",
"732 1332 OFFCURVE",
"732 1281 CURVE SMOOTH",
"732 1261 OFFCURVE",
"734 1238 OFFCURVE",
"730 1206 CURVE SMOOTH",
"724 1155 OFFCURVE",
"663 1052 OFFCURVE",
"190.5 220.5 CURVE SMOOTH",
"158 177 OFFCURVE",
"39 93 OFFCURVE",
"39 52 CURVE SMOOTH",
"39 22.667 OFFCURVE",
"95.833 8 OFFCURVE",
"209.5 8 CURVE SMOOTH",
"323.167 8 OFFCURVE",
"380 21.667 OFFCURVE",
"380 49 CURVE SMOOTH",
"380 78 OFFCURVE",
"339 123 OFFCURVE",
"339 166 CURVE SMOOTH",
"339 229 OFFCURVE",
"420 398 OFFCURVE",
"489 462 CURVE SMOOTH",
"538 508 OFFCURVE",
"631 531 OFFCURVE",
"767 531 CURVE SMOOTH",
"871.667 531 OFFCURVE",
"924 458 OFFCURVE",
"924 311 CURVE SMOOTH",
"924 171 OFFCURVE",
"861 145 OFFCURVE",
"861 92 CURVE SMOOTH",
"861 8 OFFCURVE",
"981 -1 OFFCURVE",
"1315 0 CURVE SMOOTH"
);
},
{
closed = 1;
nodes = (
"622 613 OFFCURVE",
"563 622 OFFCURVE",
"563 644 CURVE SMOOTH",
"563 679 OFFCURVE",
"859 1215 OFFCURVE",
"900 1215 CURVE SMOOTH",
"932 1215 OFFCURVE",
"921 680 OFFCURVE",
"900 637 CURVE SMOOTH",
"892.667 622.333 OFFCURVE",
"775 616 OFFCURVE",
"736 615 CURVE SMOOTH"
);
}
);
width = 1942;
},
{
layerId = "5CBF0BAD-1756-4F16-9711-93DC239D102B";
paths = (
{
closed = 1;
nodes = (
"1610 -15 OFFCURVE",
"1814 38 OFFCURVE",
"1814 173 CURVE SMOOTH",
"1814 249 OFFCURVE",
"1808 277 OFFCURVE",
"1761 277 CURVE SMOOTH",
"1727 277 OFFCURVE",
"1459 172 OFFCURVE",
"1370 172 CURVE SMOOTH",
"1277 172 OFFCURVE",
"1209 326 OFFCURVE",
"1209 429 CURVE SMOOTH",
"1209 517 OFFCURVE",
"1232 577 OFFCURVE",
"1322 577 CURVE SMOOTH",
"1383 577 OFFCURVE",
"1447 529 OFFCURVE",
"1497 529 CURVE SMOOTH",
"1554 529 OFFCURVE",
"1585 636 OFFCURVE",
"1583 709 CURVE SMOOTH",
"1583 782 OFFCURVE",
"1557 847 OFFCURVE",
"1498 847 CURVE SMOOTH",
"1477 847 OFFCURVE",
"1379 772 OFFCURVE",
"1308 775 CURVE SMOOTH",
"1214 781 OFFCURVE",
"1186 840 OFFCURVE",
"1188 946 CURVE SMOOTH",
"1188 1052 OFFCURVE",
"1226 1193 OFFCURVE",
"1307 1193 CURVE SMOOTH",
"1518 1193 OFFCURVE",
"1629 1059 OFFCURVE",
"1708 1059 CURVE SMOOTH",
"1736 1059 OFFCURVE",
"1750 1099 OFFCURVE",
"1752 1147 CURVE SMOOTH",
"1758 1301 OFFCURVE",
"1673 1353 OFFCURVE",
"1515 1353 CURVE SMOOTH",
"1427 1353 OFFCURVE",
"1339 1352 OFFCURVE",
"1251 1352 CURVE SMOOTH",
"928 1352 OFFCURVE",
"758 1349 OFFCURVE",
"742 1344 CURVE SMOOTH",
"707 1332 OFFCURVE",
"690 1309 OFFCURVE",
"689 1274 CURVE SMOOTH",
"688 1240 OFFCURVE",
"705 1222 OFFCURVE",
"705 1185 CURVE SMOOTH",
"705 1069 OFFCURVE",
"240 253 OFFCURVE",
"139 173 CURVE SMOOTH",
"67 117 OFFCURVE",
"31 75 OFFCURVE",
"31 46 CURVE SMOOTH",
"31 12 OFFCURVE",
"124 -5 OFFCURVE",
"310 -5 CURVE SMOOTH",
"411.333 -5 OFFCURVE",
"462 7 OFFCURVE",
"462 31 CURVE SMOOTH",
"462 78 OFFCURVE",
"417 102 OFFCURVE",
"422 178 CURVE SMOOTH",
"423 210 OFFCURVE",
"433 250 OFFCURVE",
"452 302 CURVE SMOOTH",
"492 417 OFFCURVE",
"520 460 OFFCURVE",
"756 460 CURVE SMOOTH",
"881.333 460 OFFCURVE",
"913 422.167 OFFCURVE",
"913 313.5 CURVE SMOOTH",
"913 200 OFFCURVE",
"827 117 OFFCURVE",
"827 83 CURVE SMOOTH",
"827 25 OFFCURVE",
"886 -7 OFFCURVE",
"1415 -13 CURVE SMOOTH"
);
},
{
closed = 1;
nodes = (
"649 597 OFFCURVE",
"607 609 OFFCURVE",
"608 629 CURVE SMOOTH",
"610 665 OFFCURVE",
"856 1100 OFFCURVE",
"886 1099 CURVE SMOOTH",
"920 1098 OFFCURVE",
"907 861 OFFCURVE",
"907 680 CURVE SMOOTH",
"907 615 OFFCURVE",
"868 597 OFFCURVE",
"742 597 CURVE SMOOTH"
);
}
);
width = 1890;
}
);
note = uni00C6;
unicode = 00C6;
},
{
glyphname = B;
layers = (
{
layerId = "92A672BF-229C-4BEC-8D25-4DDBB2A38145";
paths = (
{
closed = 1;
nodes = (
"949 -11 OFFCURVE",
"1186 54 OFFCURVE",
"1186 345 CURVE SMOOTH",
"1186 641 OFFCURVE",
"886 718 OFFCURVE",
"886 734 CURVE SMOOTH",
"886 748 OFFCURVE",
"1101 844 OFFCURVE",
"1101 1051 CURVE",
"1101 1310 OFFCURVE",
"857 1390 OFFCURVE",
"549 1388 CURVE SMOOTH",
"160 1385 OFFCURVE",
"95 1385 OFFCURVE",
"95 1346 CURVE SMOOTH",
"95 1301 OFFCURVE",
"213 1292 OFFCURVE",
"229 1233 CURVE SMOOTH",
"246 1170 OFFCURVE",
"251 1020 OFFCURVE",
"251 725 CURVE SMOOTH",
"251 415 OFFCURVE",
"244 245 OFFCURVE",
"233 172 CURVE SMOOTH",
"222 102 OFFCURVE",
"106 64 OFFCURVE",
"106 32 CURVE SMOOTH",
"106 9 OFFCURVE",
"321 2 OFFCURVE",
"435 0 CURVE SMOOTH"
);
},
{
closed = 1;
nodes = (
"473 86 OFFCURVE",
"452 105 OFFCURVE",
"452 248 CURVE SMOOTH",
"452 490 LINE SMOOTH",
"452 644 OFFCURVE",
"465 676 OFFCURVE",
"552 676 CURVE SMOOTH",
"842 676 OFFCURVE",
"983 593 OFFCURVE",
"984 364 CURVE SMOOTH",
"984 167 OFFCURVE",
"860 86 OFFCURVE",
"592 86 CURVE SMOOTH"
);
},
{
closed = 1;
nodes = (
"489 767 OFFCURVE",
"453 787 OFFCURVE",
"453 877 CURVE SMOOTH",
"454 1124 LINE SMOOTH",
"455 1270 OFFCURVE",
"479 1297 OFFCURVE",
"565 1297 CURVE",
"794 1297 OFFCURVE",
"913 1221 OFFCURVE",
"913 1051 CURVE SMOOTH",
"913 864 OFFCURVE",
"780 767 OFFCURVE",
"530 767 CURVE SMOOTH"
);
}
);
width = 1314;
},
{
layerId = "5CBF0BAD-1756-4F16-9711-93DC239D102B";
paths = (
{
closed = 1;
nodes = (
"1072 -9 OFFCURVE",
"1268 99 OFFCURVE",
"1268 414 CURVE SMOOTH",
"1268 660 OFFCURVE",
"994 718 OFFCURVE",
"994 740 CURVE SMOOTH",
"994 770 OFFCURVE",
"1187 815 OFFCURVE",
"1187 1053 CURVE SMOOTH",
"1187 1368 OFFCURVE",
"849 1395 OFFCURVE",
"450 1381 CURVE SMOOTH",
"129 1376 OFFCURVE",
"95 1360 OFFCURVE",
"95 1318.5 CURVE SMOOTH",
"95 1221 OFFCURVE",
"192 1254 OFFCURVE",
"219.5 1140 CURVE SMOOTH",
"228.5 1102.667 OFFCURVE",
"238 917 OFFCURVE",
"238 661 CURVE SMOOTH",
"238 362 OFFCURVE",
"217 231 OFFCURVE",
"184 179 CURVE SMOOTH",
"155 134 OFFCURVE",
"94 94 OFFCURVE",
"94 51 CURVE SMOOTH",
"94 0 OFFCURVE",
"189 -9 OFFCURVE",
"563 -9 CURVE SMOOTH"
);
},
{
closed = 1;
nodes = (
"569 133 OFFCURVE",
"526 143 OFFCURVE",
"526 195 CURVE SMOOTH",
"526 559 LINE SMOOTH",
"526 615 OFFCURVE",
"566 650 OFFCURVE",
"677 650 CURVE SMOOTH",
"874.333 650 OFFCURVE",
"969 539.667 OFFCURVE",
"969 405 CURVE SMOOTH",
"969 240 OFFCURVE",
"895 133 OFFCURVE",
"657 133 CURVE SMOOTH"
);
},
{
closed = 1;
nodes = (
"600 776 OFFCURVE",
"527 775 OFFCURVE",
"527 813 CURVE SMOOTH",
"524 1161 LINE SMOOTH",
"524 1217 OFFCURVE",
"538 1244 OFFCURVE",
"644 1244 CURVE SMOOTH",
"816 1244 OFFCURVE",
"902 1158.333 OFFCURVE",
"902 1037 CURVE SMOOTH",
"900 879 OFFCURVE",
"818 776 OFFCURVE",
"689 776 CURVE SMOOTH"
);
}
);
width = 1338;
}
);
unicode = 0042;
},
{
glyphname = C;
layers = (
{
layerId = "92A672BF-229C-4BEC-8D25-4DDBB2A38145";
paths = (
{
closed = 1;
nodes = (
"893 -15 OFFCURVE",
"1090 29 OFFCURVE",
"1167 77 CURVE SMOOTH",
"1194 94 OFFCURVE",
"1259 219 OFFCURVE",
"1259 269 CURVE SMOOTH",
"1259 294 OFFCURVE",
"1262 313 OFFCURVE",
"1222 314 CURVE SMOOTH",
"1168 315 OFFCURVE",
"1030 100 OFFCURVE",
"809 100 CURVE SMOOTH",
"475 100 OFFCURVE",
"333 357 OFFCURVE",
"333 731 CURVE SMOOTH",
"333 1048 OFFCURVE",
"486 1296 OFFCURVE",
"777 1296 CURVE SMOOTH",
"1057 1296 OFFCURVE",
"1131 1040 OFFCURVE",
"1181 1040 CURVE SMOOTH",
"1220 1040 OFFCURVE",
"1239 1078 OFFCURVE",
"1239 1153 CURVE SMOOTH",
"1239 1258 OFFCURVE",
"1227 1336 OFFCURVE",
"1191 1342 CURVE SMOOTH",
"1102 1357 OFFCURVE",
"842 1404 OFFCURVE",
"760 1404 CURVE SMOOTH",
"364 1404 OFFCURVE",
"106 1095 OFFCURVE",
"106 678 CURVE SMOOTH",
"106 279 OFFCURVE",
"349 -12 OFFCURVE",
"730 -15 CURVE SMOOTH"
);
}
);
width = 1361;
},
{
layerId = "5CBF0BAD-1756-4F16-9711-93DC239D102B";
paths = (
{
closed = 1;
nodes = (
"900.667 -23 OFFCURVE",
"1007.333 -2 OFFCURVE",
"1098 40 CURVE SMOOTH",
"1185 80 OFFCURVE",
"1269 181 OFFCURVE",
"1269 264 CURVE SMOOTH",
"1269 294.667 OFFCURVE",
"1252.667 310 OFFCURVE",
"1220 310 CURVE SMOOTH",
"1185 310 OFFCURVE",
"964 143 OFFCURVE",
"828 143 CURVE SMOOTH",
"548 143 OFFCURVE",
"390 389 OFFCURVE",
"390 684 CURVE SMOOTH",
"390 984 OFFCURVE",
"497 1247 OFFCURVE",
"753 1247 CURVE SMOOTH",
"935 1247 OFFCURVE",
"1138 1030 OFFCURVE",
"1192 1030 CURVE SMOOTH",
"1231.333 1030 OFFCURVE",
"1251 1063.667 OFFCURVE",
"1251 1131 CURVE SMOOTH",
"1251 1246.333 OFFCURVE",
"1228.667 1317 OFFCURVE",
"1184 1343 CURVE SMOOTH",
"1116 1383 OFFCURVE",
"976.667 1403 OFFCURVE",
"766 1403 CURVE SMOOTH",
"378 1403 OFFCURVE",
"83 1102 OFFCURVE",
"83 717 CURVE SMOOTH",
"83 254 OFFCURVE",
"334 -23 OFFCURVE",
"778 -23 CURVE SMOOTH"
);
}
);
width = 1363;
}
);
unicode = 0043;
},
{
glyphname = Ccedilla;
layers = (
{
layerId = "92A672BF-229C-4BEC-8D25-4DDBB2A38145";
paths = (
{
closed = 1;
nodes = (
"822 -446 OFFCURVE",
"944 -367 OFFCURVE",
"945 -278 CURVE SMOOTH",
"946 -197 OFFCURVE",
"908 -170 OFFCURVE",
"864 -129 CURVE SMOOTH",
"843 -109 OFFCURVE",
"822 -85 OFFCURVE",
"803 -50 CURVE",
"987 -48 OFFCURVE",
"1265 59 OFFCURVE",
"1265 226 CURVE SMOOTH",
"1265 262 OFFCURVE",
"1255 272 OFFCURVE",
"1234 272 CURVE SMOOTH",
"1202 272 OFFCURVE",
"1008 88 OFFCURVE",
"708 88 CURVE SMOOTH",
"428 88 OFFCURVE",
"341 322 OFFCURVE",
"341 622 CURVE SMOOTH",
"341 977 OFFCURVE",
"478 1187 OFFCURVE",
"712 1187 CURVE SMOOTH",
"974 1187 OFFCURVE",
"1098 965 OFFCURVE",
"1190 965 CURVE SMOOTH",
"1227 965 OFFCURVE",
"1245 1003 OFFCURVE",
"1245 1079 CURVE SMOOTH",
"1245 1155 OFFCURVE",
"1220 1201 OFFCURVE",
"1174 1222 CURVE SMOOTH",
"1165 1226 OFFCURVE",
"1127 1231 OFFCURVE",
"1058 1238 CURVE SMOOTH",
"1003 1244 OFFCURVE",
"846 1306 OFFCURVE",
"687 1306 CURVE SMOOTH",
"336 1306 OFFCURVE",
"146 995 OFFCURVE",
"146 623 CURVE SMOOTH",
"146 258 OFFCURVE",
"348 -46 OFFCURVE",
"708 -46 CURVE",
"692 -73 OFFCURVE",
"684 -91 OFFCURVE",
"684 -114 CURVE SMOOTH",
"684 -137 OFFCURVE",
"772 -194 OFFCURVE",
"772 -248 CURVE SMOOTH",
"772 -322 OFFCURVE",
"715 -345 OFFCURVE",
"644 -345 CURVE SMOOTH",
"617 -345 OFFCURVE",
"603 -368 OFFCURVE",
"603 -414 CURVE SMOOTH",
"603 -436 OFFCURVE",
"618 -446 OFFCURVE",
"679 -446 CURVE SMOOTH"
);
}
);
width = 1456;
},
{
layerId = "5CBF0BAD-1756-4F16-9711-93DC239D102B";
paths = (
{
closed = 1;
nodes = (
"881 -456 OFFCURVE",
"972 -382 OFFCURVE",
"972 -241 CURVE SMOOTH",
"972 -174 OFFCURVE",
"934 -129 OFFCURVE",
"858 -104 CURVE SMOOTH",
"824 -93 OFFCURVE",
"809 -81 OFFCURVE",
"805 -34 CURVE",
"1146 -34 OFFCURVE",
"1348 92 OFFCURVE",
"1348 283 CURVE SMOOTH",
"1348 306.333 OFFCURVE",
"1336.333 318 OFFCURVE",
"1313 318 CURVE SMOOTH",
"1187 318 OFFCURVE",
"1034 174 OFFCURVE",
"877 174 CURVE SMOOTH",
"609 174 OFFCURVE",
"455 396 OFFCURVE",
"455 716 CURVE SMOOTH",
"455 1036 OFFCURVE",
"595.667 1208 OFFCURVE",
"785 1208 CURVE SMOOTH",
"892 1208 OFFCURVE",
"1185 1024 OFFCURVE",
"1299 1024 CURVE SMOOTH",
"1332 1024 OFFCURVE",
"1347 1070 OFFCURVE",
"1347 1127 CURVE SMOOTH",
"1347 1201 OFFCURVE",
"1322 1293 OFFCURVE",
"1276.5 1320 CURVE SMOOTH",
"1258 1331 OFFCURVE",
"1212 1346 OFFCURVE",
"1144 1361 CURVE SMOOTH",
"1047 1381 OFFCURVE",
"907 1399 OFFCURVE",
"742 1399 CURVE SMOOTH",
"364 1399 OFFCURVE",
"77 1083 OFFCURVE",
"77 690 CURVE SMOOTH",
"77 282 OFFCURVE",
"319 2 OFFCURVE",
"716 -31 CURVE",
"693.333 -46.333 OFFCURVE",
"682 -81.667 OFFCURVE",
"682 -137 CURVE SMOOTH",
"682 -189 OFFCURVE",
"791 -190 OFFCURVE",
"791 -256 CURVE SMOOTH",
"791 -319 OFFCURVE",
"739 -335 OFFCURVE",
"629 -340 CURVE SMOOTH",
"596 -342 OFFCURVE",
"579 -358.667 OFFCURVE",
"579 -396 CURVE SMOOTH",
"579 -437 OFFCURVE",
"608 -456 OFFCURVE",
"699 -456 CURVE SMOOTH"
);
}
);
width = 1456;
}
);
note = uni00C7;
unicode = 00C7;
},
{
glyphname = D;
layers = (
{
layerId = "92A672BF-229C-4BEC-8D25-4DDBB2A38145";
paths = (
{
closed = 1;
nodes = (
"1100 -5 OFFCURVE",
"1388 274 OFFCURVE",
"1388 702.5 CURVE SMOOTH",
"1388 1122 OFFCURVE",
"1134 1395 OFFCURVE",
"722 1395 CURVE SMOOTH",
"173 1382 OFFCURVE",
"111 1379 OFFCURVE",
"111 1335 CURVE SMOOTH",
"111 1302.873 OFFCURVE",
"194.942 1294.588 OFFCURVE",
"226.5 1269 CURVE SMOOTH",
"278 1227 OFFCURVE",
"273 914 OFFCURVE",
"273 656 CURVE SMOOTH",
"273 359.333 OFFCURVE",
"268.333 194.5 OFFCURVE",
"259 161.5 CURVE SMOOTH",
"241 97 OFFCURVE",
"119 83 OFFCURVE",
"119 31 CURVE SMOOTH",
"119 -2 OFFCURVE",
"209 9 OFFCURVE",
"665 -5 CURVE SMOOTH"
);
},
{
closed = 1;
nodes = (
"463.333 95 OFFCURVE",
"461 122.333 OFFCURVE",
"461 273 CURVE SMOOTH",
"464 968 LINE SMOOTH",
"464 1231 OFFCURVE",
"423 1302 OFFCURVE",
"597 1302 CURVE SMOOTH",
"991 1302 OFFCURVE",
"1154 1102 OFFCURVE",
"1154 642 CURVE SMOOTH",
"1154 299 OFFCURVE",
"968 96 OFFCURVE",
"618 95 CURVE SMOOTH"
);
}
);
width = 1513;
},
{
layerId = "5CBF0BAD-1756-4F16-9711-93DC239D102B";
paths = (
{
closed = 1;
nodes = (
"1028 0 OFFCURVE",
"1408 117 OFFCURVE",
"1408 704 CURVE SMOOTH",
"1408 1079 OFFCURVE",
"1199 1392 OFFCURVE",
"606 1392 CURVE SMOOTH",
"377 1392 OFFCURVE",
"93 1403 OFFCURVE",
"93 1322 CURVE SMOOTH",
"93 1255 OFFCURVE",
"196 1249 OFFCURVE",
"221 1189 CURVE SMOOTH",
"243 1139 OFFCURVE",
"242 1094 OFFCURVE",
"236 700 CURVE SMOOTH",
"233 501 OFFCURVE",
"231 258 OFFCURVE",
"222 221 CURVE SMOOTH",
"206 153 OFFCURVE",
"75 103 OFFCURVE",
"75 56 CURVE SMOOTH",
"75 6 OFFCURVE",
"122 -3 OFFCURVE",
"468 -2 CURVE SMOOTH"
);
},
{
closed = 1;
nodes = (
"512.333 135 OFFCURVE",
"499 161 OFFCURVE",
"499 273 CURVE SMOOTH",
"504 1093 LINE SMOOTH",
"504 1204 OFFCURVE",
"533 1250 OFFCURVE",
"649 1249 CURVE SMOOTH",
"961 1246 OFFCURVE",
"1077 994 OFFCURVE",
"1077 650 CURVE SMOOTH",
"1077 327 OFFCURVE",
"920 135 OFFCURVE",
"627 135 CURVE SMOOTH"
);
}
);
width = 1499;
}
);
unicode = 0044;
},
{
glyphname = Eth;
layers = (
{
layerId = "92A672BF-229C-4BEC-8D25-4DDBB2A38145";
paths = (
{
closed = 1;
nodes = (
"1102 -4 OFFCURVE",
"1393 250.333 OFFCURVE",
"1393 713 CURVE SMOOTH",
"1393 1150 OFFCURVE",
"1113 1386 OFFCURVE",
"655 1386 CURVE SMOOTH",
"502 1384 OFFCURVE",
"457 1383 OFFCURVE",
"227 1376 CURVE SMOOTH",
"153 1376 OFFCURVE",
"116 1364.667 OFFCURVE",
"116 1342 CURVE SMOOTH",
"116 1308 OFFCURVE",
"243 1238 OFFCURVE",
"249.5 1220.5 CURVE SMOOTH",
"261.833 1186.167 OFFCURVE",
"268 1113.667 OFFCURVE",
"268 1003 CURVE SMOOTH",
"271 849 OFFCURVE",
"273 796 OFFCURVE",
"254 780 CURVE SMOOTH",
"249 776 OFFCURVE",
"220 770 OFFCURVE",
"165 762 CURVE SMOOTH",
"127 757 OFFCURVE",
"108 739 OFFCURVE",
"108 708.5 CURVE SMOOTH",
"108 678.167 OFFCURVE",
"129.667 660.167 OFFCURVE",
"173 654.5 CURVE SMOOTH",
"216 649 OFFCURVE",
"244 642 OFFCURVE",
"255 633 CURVE SMOOTH",
"266 624 OFFCURVE",
"271 561 OFFCURVE",
"270 444 CURVE SMOOTH",
"267 264 OFFCURVE",
"262 194 OFFCURVE",
"251 162.5 CURVE SMOOTH",
"228 100 OFFCURVE",
"114 92 OFFCURVE",
"114 35 CURVE SMOOTH",
"114 -11 OFFCURVE",
"319 1 OFFCURVE",
"662 -4 CURVE SMOOTH"
);
},
{
closed = 1;
nodes = (
"496.333 84 OFFCURVE",
"470 110.333 OFFCURVE",
"470 245 CURVE SMOOTH",
"470 378 OFFCURVE",
"475 472 OFFCURVE",
"495 535 CURVE SMOOTH",
"505 566 OFFCURVE",
"519 591 OFFCURVE",
"538 608 CURVE SMOOTH",
"563 632 OFFCURVE",
"599 643 OFFCURVE",
"647.5 645 CURVE SMOOTH",
"733 648 OFFCURVE",
"776 667.333 OFFCURVE",
"776 692 CURVE SMOOTH",
"776 724 OFFCURVE",
"761 740 OFFCURVE",
"738 748 CURVE SMOOTH",
"668 773 OFFCURVE",
"516 739 OFFCURVE",
"488 806 CURVE SMOOTH",
"480 826 OFFCURVE",
"475 919 OFFCURVE",
"474 1017 CURVE SMOOTH",
"474 1123 OFFCURVE",
"479 1234 OFFCURVE",
"490 1260 CURVE SMOOTH",
"500 1283.333 OFFCURVE",
"531.667 1295 OFFCURVE",
"585 1295 CURVE SMOOTH",
"955 1295 OFFCURVE",
"1140 1099 OFFCURVE",
"1140 712 CURVE SMOOTH",
"1140 281 OFFCURVE",
"971 84 OFFCURVE",
"607 84 CURVE SMOOTH"
);
}
);
width = 1526;
},
{
layerId = "5CBF0BAD-1756-4F16-9711-93DC239D102B";
paths = (
{
closed = 1;
nodes = (
"1102 -10 OFFCURVE",
"1393 243 OFFCURVE",
"1393 670 CURVE SMOOTH",
"1392 1069 OFFCURVE",
"1125 1348 OFFCURVE",
"732 1348 CURVE SMOOTH",
"515 1348 OFFCURVE",
"366 1331 OFFCURVE",
"183 1323 CURVE SMOOTH",
"138 1323 OFFCURVE",
"115 1305 OFFCURVE",
"114 1283 CURVE SMOOTH",
"113 1241 OFFCURVE",
"241 1183.333 OFFCURVE",
"249 1170 CURVE SMOOTH",
"271.667 1132.667 OFFCURVE",
"283 1071.667 OFFCURVE",
"283 987 CURVE SMOOTH",
"285 938 OFFCURVE",
"286 888 OFFCURVE",
"288 839 CURVE SMOOTH",
"288 799.667 OFFCURVE",
"264.5 774.833 OFFCURVE",
"217.5 764.5 CURVE SMOOTH",
"170.5 754.167 OFFCURVE",
"147 724.667 OFFCURVE",
"147 676 CURVE SMOOTH",
"147 643.333 OFFCURVE",
"173 620 OFFCURVE",
"225 606 CURVE SMOOTH",
"267 594.667 OFFCURVE",
"288 567 OFFCURVE",
"288 523 CURVE SMOOTH",
"288 470 OFFCURVE",
"287 425 OFFCURVE",
"286 385 CURVE SMOOTH",
"283 303 OFFCURVE",
"278 249 OFFCURVE",
"269.5 225 CURVE SMOOTH",
"244 152 OFFCURVE",
"122 103 OFFCURVE",
"122 60.5 CURVE SMOOTH",
"122 -38 OFFCURVE",
"294 -6 OFFCURVE",
"661 -10 CURVE SMOOTH"
);
},
{
closed = 1;
nodes = (
"537.333 118 OFFCURVE",
"503 145 OFFCURVE",
"503 199 CURVE SMOOTH",
"503 280 OFFCURVE",
"503 362 OFFCURVE",
"503 443 CURVE SMOOTH",
"503 503 OFFCURVE",
"515 545 OFFCURVE",
"540 568 CURVE SMOOTH",
"574 602 OFFCURVE",
"652 586 OFFCURVE",
"710 593 CURVE SMOOTH",
"749 598 OFFCURVE",
"778 612 OFFCURVE",
"778 658 CURVE SMOOTH",
"778 709.333 OFFCURVE",
"750.333 735 OFFCURVE",
"695 735 CURVE SMOOTH",
"600 735 OFFCURVE",
"553 729 OFFCURVE",
"530 753 CURVE SMOOTH",
"506 778 OFFCURVE",
"508 836 OFFCURVE",
"508 969 CURVE SMOOTH",
"508 1025 OFFCURVE",
"507 1082 OFFCURVE",
"507 1138 CURVE SMOOTH",
"507 1184 OFFCURVE",
"533.667 1207 OFFCURVE",
"587 1207 CURVE SMOOTH",
"872 1207 OFFCURVE",
"1055 1031 OFFCURVE",
"1055 764 CURVE SMOOTH",
"1061 354 OFFCURVE",
"990 118 OFFCURVE",
"606 118 CURVE SMOOTH"
);
}
);
width = 1492;
}
);
note = uni00D0;
unicode = 00D0;
},
{
glyphname = E;
layers = (
{
anchors = (
{
name = top;
position = "{640, 1394}";
}
);
layerId = "92A672BF-229C-4BEC-8D25-4DDBB2A38145";
paths = (
{
closed = 1;
nodes = (
"938 -2 OFFCURVE",
"1065 1 OFFCURVE",
"1096 21 CURVE SMOOTH",
"1145.333 53 OFFCURVE",
"1170 99 OFFCURVE",
"1170 218 CURVE SMOOTH",
"1170 240 OFFCURVE",
"1158 280 OFFCURVE",
"1145 280 CURVE SMOOTH",
"1117 280 OFFCURVE",
"999.54 168.733 OFFCURVE",
"951.5 150 CURVE SMOOTH",
"897 129 OFFCURVE",
"792 116 OFFCURVE",
"699 119 CURVE SMOOTH",
"504 124 OFFCURVE",
"471 186 OFFCURVE",
"471 398.5 CURVE SMOOTH",
"471 568 OFFCURVE",
"480 659 OFFCURVE",
"631 659 CURVE SMOOTH",
"716 659 OFFCURVE",
"818 561 OFFCURVE",
"849 561 CURVE SMOOTH",
"886 561 OFFCURVE",
"937 609 OFFCURVE",
"937 703 CURVE SMOOTH",
"937 780 OFFCURVE",
"921 869 OFFCURVE",
"869 869 CURVE SMOOTH",
"853.667 869 OFFCURVE",
"726 781 OFFCURVE",
"694 782 CURVE SMOOTH",
"560 786 OFFCURVE",
"487 824 OFFCURVE",
"487 940 CURVE SMOOTH",
"487 1144 OFFCURVE",
"540 1273 OFFCURVE",
"656 1273 CURVE SMOOTH",
"766 1273 OFFCURVE",
"899 1273 OFFCURVE",
"956 1235 CURVE SMOOTH",
"983 1217 OFFCURVE",
"1029 1143 OFFCURVE",
"1052 1142 CURVE SMOOTH",
"1102 1140 OFFCURVE",
"1117 1158.333 OFFCURVE",
"1117 1191 CURVE SMOOTH",
"1117 1375 OFFCURVE",
"1071 1395 OFFCURVE",
"640 1394 CURVE SMOOTH",
"339 1394 OFFCURVE",
"128 1405 OFFCURVE",
"128 1353 CURVE SMOOTH",
"128 1273 OFFCURVE",
"235 1286 OFFCURVE",
"247 1235.5 CURVE SMOOTH",
"264 1163 OFFCURVE",
"259 1030 OFFCURVE",
"255 710 CURVE SMOOTH",
"252 446 OFFCURVE",
"247 218.333 OFFCURVE",
"231 171 CURVE SMOOTH",
"215.241 123.723 OFFCURVE",
"122 74.278 OFFCURVE",
"122 39.5 CURVE SMOOTH",
"122 -12 OFFCURVE",
"317 -2 OFFCURVE",
"590 -2 CURVE SMOOTH"
);
}
);
width = 1272;
},
{
anchors = (
{
name = top;
position = "{645, 1389}";
}
);
layerId = "5CBF0BAD-1756-4F16-9711-93DC239D102B";
paths = (
{
closed = 1;
nodes = (
"996 -9 OFFCURVE",
"1087 0 OFFCURVE",
"1131 37 CURVE SMOOTH",
"1182 80 OFFCURVE",
"1199 158 OFFCURVE",
"1199 219 CURVE SMOOTH",
"1199 273 OFFCURVE",
"1184.667 300 OFFCURVE",
"1156 300 CURVE SMOOTH",
"1115 300 OFFCURVE",
"1057 273 OFFCURVE",
"991 244 CURVE SMOOTH",
"906 205 OFFCURVE",
"793 161 OFFCURVE",
"714 161 CURVE SMOOTH",
"566 161 OFFCURVE",
"526 243 OFFCURVE",
"525 413.5 CURVE SMOOTH",
"524 561 OFFCURVE",
"539 626 OFFCURVE",
"697 626 CURVE SMOOTH",
"762 626 OFFCURVE",
"802 540 OFFCURVE",
"884 540 CURVE SMOOTH",
"944 540 OFFCURVE",
"964 603 OFFCURVE",
"964 741 CURVE SMOOTH",
"964 815.667 OFFCURVE",
"944 878 OFFCURVE",
"884 878 CURVE SMOOTH",
"864 878 OFFCURVE",
"734 794 OFFCURVE",
"657 794 CURVE SMOOTH",
"563 794 OFFCURVE",
"522 834 OFFCURVE",
"522 975 CURVE SMOOTH",
"522 1126 OFFCURVE",
"568 1232 OFFCURVE",
"689 1232 CURVE SMOOTH",
"762 1232 OFFCURVE",
"858 1209 OFFCURVE",
"944 1171 CURVE SMOOTH",
"991 1150 OFFCURVE",
"1041 1105 OFFCURVE",
"1072 1105 CURVE SMOOTH",
"1120 1105 OFFCURVE",
"1149 1123.667 OFFCURVE",
"1149 1213 CURVE SMOOTH",
"1149 1395 OFFCURVE",
"1079 1397 OFFCURVE",
"637 1397 CURVE SMOOTH",
"122 1397 OFFCURVE",
"92 1377 OFFCURVE",
"92 1330 CURVE SMOOTH",
"92 1275 OFFCURVE",
"196 1242 OFFCURVE",
"218 1151 CURVE SMOOTH",
"227 1114 OFFCURVE",
"232 955 OFFCURVE",
"232 675 CURVE SMOOTH",
"232 395 OFFCURVE",
"219 212 OFFCURVE",
"202 198 CURVE SMOOTH",
"136 144 OFFCURVE",
"87 113 OFFCURVE",
"88 59 CURVE SMOOTH",
"89 15 OFFCURVE",
"128 -9 OFFCURVE",
"408 -9 CURVE SMOOTH"
);
}
);
width = 1278;
}
);
note = uni0045;
unicode = 0045;
},
{
glyphname = F;
layers = (
{
layerId = "92A672BF-229C-4BEC-8D25-4DDBB2A38145";
paths = (
{
closed = 1;
nodes = (
"525 -6 OFFCURVE",
"595 -2 OFFCURVE",
"595 32 CURVE SMOOTH",
"595 53 OFFCURVE",
"534 74 OFFCURVE",
"506 182 CURVE SMOOTH",
"492 235 OFFCURVE",
"478 349 OFFCURVE",
"480 449 CURVE SMOOTH",
"483 610 OFFCURVE",
"525 614 OFFCURVE",
"676 614 CURVE SMOOTH",
"725 614 OFFCURVE",
"837 553 OFFCURVE",
"856 553 CURVE SMOOTH",
"904 553 OFFCURVE",
"930 615.333 OFFCURVE",
"930 698 CURVE SMOOTH",
"930 801.333 OFFCURVE",
"911.333 853 OFFCURVE",
"874 853 CURVE SMOOTH",
"843 853 OFFCURVE",
"736 770 OFFCURVE",
"672 770 CURVE SMOOTH",
"512 770 OFFCURVE",
"480 807.167 OFFCURVE",
"480 998.5 CURVE SMOOTH",
"480 1189.833 OFFCURVE",
"509.333 1284 OFFCURVE",
"712 1284 CURVE SMOOTH",
"867.333 1284 OFFCURVE",
"939 1269 OFFCURVE",
"1007 1203 CURVE SMOOTH",
"1033 1178 OFFCURVE",
"1064 1116 OFFCURVE",
"1088 1116 CURVE SMOOTH",
"1113.333 1116 OFFCURVE",
"1126 1138 OFFCURVE",
"1126 1182 CURVE SMOOTH",
"1126 1362 OFFCURVE",
"1050 1399 OFFCURVE",
"939 1399 CURVE SMOOTH",
"208 1391 OFFCURVE",
"119 1391 OFFCURVE",
"119 1358 CURVE SMOOTH",
"119 1323 OFFCURVE",
"222 1283 OFFCURVE",
"239 1237 CURVE SMOOTH",
"254.333 1194.333 OFFCURVE",
"262 1090.333 OFFCURVE",
"262 925 CURVE SMOOTH",
"254 331 OFFCURVE",
"246 199 OFFCURVE",
"242.5 175 CURVE SMOOTH",
"237 140 OFFCURVE",
"128 94 OFFCURVE",
"130 63 CURVE SMOOTH",
"135 -2 OFFCURVE",
"254 -6 OFFCURVE",
"373 -6 CURVE SMOOTH"
);
}
);
width = 1194;
},
{
layerId = "5CBF0BAD-1756-4F16-9711-93DC239D102B";
paths = (
{
closed = 1;
nodes = (
"584 -11 OFFCURVE",
"630 -6 OFFCURVE",
"630 43 CURVE SMOOTH",
"630 73 OFFCURVE",
"589 133 OFFCURVE",
"568 204 CURVE SMOOTH",
"549 266 OFFCURVE",
"533 323 OFFCURVE",
"532 424 CURVE SMOOTH",
"531 541 OFFCURVE",
"574 581 OFFCURVE",
"702 581 CURVE SMOOTH",
"767.315 581 OFFCURVE",
"790 530 OFFCURVE",
"876 530 CURVE SMOOTH",
"922 530 OFFCURVE",
"936 622.667 OFFCURVE",
"936 686 CURVE SMOOTH",
"936 801.333 OFFCURVE",
"910 859 OFFCURVE",
"859 859 CURVE SMOOTH",
"790 859 OFFCURVE",
"759 782 OFFCURVE",
"672 782 CURVE SMOOTH",
"576 782 OFFCURVE",
"528 852.667 OFFCURVE",
"528 994 CURVE SMOOTH",
"528 1137 OFFCURVE",
"579 1232 OFFCURVE",
"700 1232 CURVE SMOOTH",
"809 1232 OFFCURVE",
"848.333 1209.333 OFFCURVE",
"939 1164 CURVE SMOOTH",
"1029.667 1118.667 OFFCURVE",
"1076.667 1096 OFFCURVE",
"1080 1096 CURVE SMOOTH",
"1118 1096 OFFCURVE",
"1137 1140 OFFCURVE",
"1137 1239 CURVE SMOOTH",
"1137 1371 OFFCURVE",
"1118 1390 OFFCURVE",
"595 1390 CURVE SMOOTH",
"114 1390 OFFCURVE",
"92 1365 OFFCURVE",
"92 1320 CURVE SMOOTH",
"92 1281 OFFCURVE",
"206 1194 OFFCURVE",
"222.5 1105 CURVE SMOOTH",
"229 1069 OFFCURVE",
"233 912 OFFCURVE",
"234 634 CURVE SMOOTH",
"234 517 OFFCURVE",
"233 378 OFFCURVE",
"233 218 CURVE SMOOTH",
"233 150 OFFCURVE",
"97 113 OFFCURVE",
"97 61 CURVE SMOOTH",
"97 0 OFFCURVE",
"142 -11 OFFCURVE",
"457 -11 CURVE SMOOTH"
);
}
);
width = 1194;
}
);
note = uni0046;
unicode = 0046;
},
{
glyphname = G;
layers = (
{
layerId = "92A672BF-229C-4BEC-8D25-4DDBB2A38145";
paths = (
{
closed = 1;
nodes = (
"952 -23 OFFCURVE",
"1267 29 OFFCURVE",
"1267 190 CURVE SMOOTH",
"1267 277 OFFCURVE",
"1281 396 OFFCURVE",
"1291 455 CURVE SMOOTH",
"1295 477 OFFCURVE",
"1350 532 OFFCURVE",
"1350 576 CURVE SMOOTH",
"1350 608 OFFCURVE",
"1285 625 OFFCURVE",
"1155 625 CURVE SMOOTH",
"1025 625 OFFCURVE",
"960 612 OFFCURVE",
"960 585 CURVE SMOOTH",
"960 537 OFFCURVE",
"1084 517 OFFCURVE",
"1084 401 CURVE SMOOTH",
"1084 170 OFFCURVE",
"1012 102 OFFCURVE",
"841 102 CURVE SMOOTH",
"503 102 OFFCURVE",
"330 340 OFFCURVE",
"330 683 CURVE SMOOTH",
"330 1008 OFFCURVE",
"482 1298 OFFCURVE",
"769 1298 CURVE SMOOTH",
"946 1298 OFFCURVE",
"1044 1263 OFFCURVE",
"1136 1129 CURVE SMOOTH",
"1173 1076 OFFCURVE",
"1211 1049 OFFCURVE",
"1229 1049 CURVE SMOOTH",
"1273 1049 OFFCURVE",
"1276 1089 OFFCURVE",
"1276 1168 CURVE SMOOTH",
"1276 1271 OFFCURVE",
"1259 1347 OFFCURVE",
"1212 1349 CURVE SMOOTH",
"1108 1353 OFFCURVE",
"896 1401 OFFCURVE",
"800 1401 CURVE SMOOTH",
"400 1401 OFFCURVE",
"109 1117 OFFCURVE",
"109 711 CURVE SMOOTH",
"109 279 OFFCURVE",
"351 -20 OFFCURVE",
"768 -23 CURVE SMOOTH"
);
}
);
width = 1471;
},
{
layerId = "5CBF0BAD-1756-4F16-9711-93DC239D102B";
paths = (
{
closed = 1;
nodes = (
"1035 -17 OFFCURVE",
"1271 28 OFFCURVE",
"1298 222 CURVE SMOOTH",
"1305.397 281.175 OFFCURVE",
"1311.853 386.119 OFFCURVE",
"1324 459 CURVE SMOOTH",
"1330.983 500.898 OFFCURVE",
"1377 544.854 OFFCURVE",
"1377 586 CURVE SMOOTH",
"1377 658 OFFCURVE",
"1240 662 OFFCURVE",
"1103 662 CURVE SMOOTH",
"978.333 662 OFFCURVE",
"916 642.333 OFFCURVE",
"916 603 CURVE SMOOTH",
"916 565 OFFCURVE",
"1008 490 OFFCURVE",
"1008 397 CURVE SMOOTH",
"1008 222 OFFCURVE",
"939 150 OFFCURVE",
"801 149 CURVE SMOOTH",
"569 149 OFFCURVE",
"389 371.333 OFFCURVE",
"389 706 CURVE SMOOTH",
"389 992 OFFCURVE",
"520 1234 OFFCURVE",
"775 1237 CURVE SMOOTH",
"897.667 1237 OFFCURVE",
"944.333 1215 OFFCURVE",
"1083 1111 CURVE SMOOTH",
"1152.333 1059 OFFCURVE",
"1196.333 1033 OFFCURVE",
"1215 1033 CURVE SMOOTH",
"1255 1033 OFFCURVE",
"1275 1084 OFFCURVE",
"1275 1186 CURVE SMOOTH",
"1275 1334 OFFCURVE",
"1190.833 1384 OFFCURVE",
"1059.5 1384 CURVE SMOOTH",
"974.799 1384 OFFCURVE",
"824.089 1402 OFFCURVE",
"785 1402 CURVE SMOOTH",
"381 1402 OFFCURVE",
"82 1107 OFFCURVE",
"82 708 CURVE SMOOTH",
"82 275 OFFCURVE",
"327 -17 OFFCURVE",
"744 -17 CURVE SMOOTH"
);
}
);
width = 1457;
}
);
note = uni0047;
unicode = 0047;
},
{
glyphname = H;
layers = (
{
layerId = "92A672BF-229C-4BEC-8D25-4DDBB2A38145";
paths = (
{
closed = 1;
nodes = (
"502 -6 OFFCURVE",
"577 0 OFFCURVE",
"577 25 CURVE SMOOTH",
"577 43.843 OFFCURVE",
"503.408 114.417 OFFCURVE",
"491 146 CURVE SMOOTH",
"481 170 OFFCURVE",
"479 312 OFFCURVE",
"484 437 CURVE SMOOTH",
"488 532 OFFCURVE",
"496 616 OFFCURVE",
"510 631 CURVE SMOOTH",
"529 651 OFFCURVE",
"643.333 667 OFFCURVE",
"808 667 CURVE SMOOTH",
"972.667 667 OFFCURVE",
"1070 657.5 OFFCURVE",
"1100 638.5 CURVE SMOOTH",
"1130 619.5 OFFCURVE",
"1145 540.667 OFFCURVE",
"1145 402 CURVE SMOOTH",
"1145 263 OFFCURVE",
"1126 156 OFFCURVE",
"1109 131 CURVE SMOOTH",
"1097 114 OFFCURVE",
"1046 55 OFFCURVE",
"1046 38 CURVE SMOOTH",
"1046 10.667 OFFCURVE",
"1120.667 -3 OFFCURVE",
"1270 -3 CURVE SMOOTH",
"1419.333 -3 OFFCURVE",
"1494 11.333 OFFCURVE",
"1494 40 CURVE SMOOTH",
"1494 67 OFFCURVE",
"1408 97 OFFCURVE",
"1387 127 CURVE SMOOTH",
"1346 183 OFFCURVE",
"1356 253 OFFCURVE",
"1363 842 CURVE SMOOTH",
"1363 1072.667 OFFCURVE",
"1366.333 1198.333 OFFCURVE",
"1373 1219 CURVE SMOOTH",
"1389 1270 OFFCURVE",
"1500 1296 OFFCURVE",
"1500 1345 CURVE SMOOTH",
"1500 1371.667 OFFCURVE",
"1453.667 1385 OFFCURVE",
"1361 1385 CURVE SMOOTH",
"1141 1385 OFFCURVE",
"1031 1372.667 OFFCURVE",
"1031 1348 CURVE SMOOTH",
"1031 1329 OFFCURVE",
"1046 1316 OFFCURVE",
"1104 1258 CURVE SMOOTH",
"1141 1209 OFFCURVE",
"1138 1146 OFFCURVE",
"1135 1054 CURVE SMOOTH",
"1132 880 OFFCURVE",
"1126 823 OFFCURVE",
"1098.5 803 CURVE SMOOTH",
"1076.167 787 OFFCURVE",
"914 779 OFFCURVE",
"768 779 CURVE SMOOTH",
"661 779 OFFCURVE",
"544 793 OFFCURVE",
"519.5 806 CURVE SMOOTH",
"505 814 OFFCURVE",
"490 895 OFFCURVE",
"485 999 CURVE SMOOTH",
"481 1084 OFFCURVE",
"486 1192 OFFCURVE",
"486 1227 CURVE SMOOTH",
"486 1279 OFFCURVE",
"578 1303 OFFCURVE",
"578 1351 CURVE SMOOTH",
"578 1375 OFFCURVE",
"521.333 1387 OFFCURVE",
"408 1387 CURVE SMOOTH",
"212.667 1387 OFFCURVE",
"115 1372 OFFCURVE",
"115 1346 CURVE SMOOTH",
"115 1316 OFFCURVE",
"239 1257 OFFCURVE",
"249.5 1193.5 CURVE SMOOTH",
"257 1147 OFFCURVE",
"263 974.333 OFFCURVE",
"263 675 CURVE SMOOTH",
"263 375.667 OFFCURVE",
"255 211 OFFCURVE",
"248 178.5 CURVE SMOOTH",
"238 131 OFFCURVE",
"112 91 OFFCURVE",
"112 45 CURVE SMOOTH",
"112 7 OFFCURVE",
"179 -5 OFFCURVE",
"340 -5 CURVE SMOOTH"
);
}
);
width = 1608;
},
{
layerId = "5CBF0BAD-1756-4F16-9711-93DC239D102B";
paths = (
{
closed = 1;
nodes = (
"526 0 OFFCURVE",
"633 20 OFFCURVE",
"633 63 CURVE SMOOTH",
"633 93 OFFCURVE",
"607 124 OFFCURVE",
"574 161 CURVE SMOOTH",
"535 205 OFFCURVE",
"512 261.333 OFFCURVE",
"512 440 CURVE SMOOTH",
"512 529.333 OFFCURVE",
"517.667 583.333 OFFCURVE",
"529 602 CURVE SMOOTH",
"545.667 628.667 OFFCURVE",
"602 642 OFFCURVE",
"794 642 CURVE SMOOTH",
"949 642 OFFCURVE",
"1030.167 632.167 OFFCURVE",
"1054.5 612.5 CURVE SMOOTH",
"1078.833 592.833 OFFCURVE",
"1091 542.333 OFFCURVE",
"1091 461 CURVE SMOOTH",
"1091 362 OFFCURVE",
"1079 255 OFFCURVE",
"1048 197 CURVE SMOOTH",
"1025 154 OFFCURVE",
"980 98 OFFCURVE",
"980 55 CURVE SMOOTH",
"980 -3 OFFCURVE",
"1050 -9 OFFCURVE",
"1283 -9 CURVE SMOOTH",
"1449 -9 OFFCURVE",
"1509 6 OFFCURVE",
"1509 35 CURVE SMOOTH",
"1509 89 OFFCURVE",
"1439 124 OFFCURVE",
"1405 153 CURVE SMOOTH",
"1377 177 OFFCURVE",
"1372 271 OFFCURVE",
"1376 776 CURVE SMOOTH",
"1378 999 OFFCURVE",
"1382 1125.667 OFFCURVE",
"1394 1157 CURVE SMOOTH",
"1408 1191 OFFCURVE",
"1507 1262 OFFCURVE",
"1507 1295 CURVE SMOOTH",
"1507 1389 OFFCURVE",
"1409 1380 OFFCURVE",
"1241 1380 CURVE SMOOTH",
"1016 1380 OFFCURVE",
"966 1361 OFFCURVE",
"966 1316 CURVE SMOOTH",
"966 1291 OFFCURVE",
"1043 1182 OFFCURVE",
"1060.5 1131.5 CURVE SMOOTH",
"1073 1096 OFFCURVE",
"1075 1038.167 OFFCURVE",
"1075 958.5 CURVE SMOOTH",
"1075 889 OFFCURVE",
"1071 840 OFFCURVE",
"1054 827 CURVE SMOOTH",
"1023 803 OFFCURVE",
"959 797 OFFCURVE",
"799.5 797 CURVE SMOOTH",
"658.5 797 OFFCURVE",
"580.667 802.667 OFFCURVE",
"566 814 CURVE SMOOTH",
"541.333 833.333 OFFCURVE",
"525 899 OFFCURVE",
"525 1031 CURVE SMOOTH",
"525 1102 OFFCURVE",
"540 1142.167 OFFCURVE",
"588 1241.5 CURVE SMOOTH",
"612 1291.167 OFFCURVE",
"624 1324 OFFCURVE",
"624 1340 CURVE SMOOTH",
"624 1374 OFFCURVE",
"581 1391 OFFCURVE",
"387 1391 CURVE SMOOTH",
"160 1391 OFFCURVE",
"81 1370 OFFCURVE",
"81 1341 CURVE SMOOTH",
"81 1262 OFFCURVE",
"196 1229 OFFCURVE",
"210.5 1172.5 CURVE SMOOTH",
"218 1143 OFFCURVE",
"224 985.5 OFFCURVE",
"224 698.5 CURVE SMOOTH",
"224 411.5 OFFCURVE",
"223 291 OFFCURVE",
"212 225 CURVE SMOOTH",
"202 167 OFFCURVE",
"99 119 OFFCURVE",
"99 81 CURVE SMOOTH",
"99 19 OFFCURVE",
"115 0 OFFCURVE",
"294 0 CURVE SMOOTH"
);
}
);
width = 1601;
}
);
note = uni0048;
unicode = 0048;
},
{
glyphname = I;
layers = (
{
anchors = (
{
name = top;
position = "{424, 1388}";
}
);
layerId = "92A672BF-229C-4BEC-8D25-4DDBB2A38145";
paths = (
{
closed = 1;
nodes = (
"498 1 OFFCURVE",
"645 -15 OFFCURVE",
"645 38 CURVE SMOOTH",
"645 78 OFFCURVE",
"555 104 OFFCURVE",
"526 142 CURVE SMOOTH",
"506 168 OFFCURVE",
"484 293 OFFCURVE",
"494 700 CURVE SMOOTH",
"503 1052 OFFCURVE",
"498 1202 OFFCURVE",
"510 1238 CURVE SMOOTH",
"526 1286 OFFCURVE",
"633 1301 OFFCURVE",
"633 1337 CURVE SMOOTH",
"633 1379 OFFCURVE",
"581 1388 OFFCURVE",
"379 1387 CURVE SMOOTH",
"276 1386 OFFCURVE",
"112 1373.667 OFFCURVE",
"112 1347 CURVE SMOOTH",
"112 1330.333 OFFCURVE",
"192 1297 OFFCURVE",
"230 1257 CURVE SMOOTH",
"283 1202 OFFCURVE",
"295 977 OFFCURVE",
"283 703 CURVE SMOOTH",
"283 357 OFFCURVE",
"267 204 OFFCURVE",
"248 151 CURVE SMOOTH",
"230 100 OFFCURVE",
"117 79 OFFCURVE",
"117 34 CURVE SMOOTH",
"117 4 OFFCURVE",
"189 -1 OFFCURVE",
"379 1 CURVE SMOOTH"
);
}
);
width = 756;
},
{
anchors = (
{
name = top;
position = "{423, 1416}";
}
);
layerId = "5CBF0BAD-1756-4F16-9711-93DC239D102B";
paths = (
{
closed = 1;
nodes = (
"665 0 OFFCURVE",
"695 11 OFFCURVE",
"695 58 CURVE SMOOTH",
"695 97 OFFCURVE",
"575 160 OFFCURVE",
"558 228 CURVE SMOOTH",
"551 258 OFFCURVE",
"547 427 OFFCURVE",
"547 700 CURVE SMOOTH",
"547 1121 OFFCURVE",
"556 1177 OFFCURVE",
"593 1224 CURVE SMOOTH",
"620 1258 OFFCURVE",
"689 1311 OFFCURVE",
"689 1345 CURVE SMOOTH",
"689 1388 OFFCURVE",
"668 1394 OFFCURVE",
"421 1394 CURVE SMOOTH",
"120 1394 OFFCURVE",
"92 1382 OFFCURVE",
"92 1342 CURVE SMOOTH",
"92 1318 OFFCURVE",
"131 1284 OFFCURVE",
"183 1242 CURVE SMOOTH",
"254 1185 OFFCURVE",
"259 1146 OFFCURVE",
"259 704.5 CURVE SMOOTH",
"259 438 OFFCURVE",
"257 284 OFFCURVE",
"244 246 CURVE SMOOTH",
"215 160 OFFCURVE",
"97 108 OFFCURVE",
"97 58 CURVE SMOOTH",
"97 11 OFFCURVE",
"185 0 OFFCURVE",
"405 0 CURVE SMOOTH"
);
}
);
width = 791;
}
);
note = uni0049;
unicode = 0049;
},
{
glyphname = J;
layers = (
{
layerId = "92A672BF-229C-4BEC-8D25-4DDBB2A38145";
paths = (
{
closed = 1;
nodes = (
"485 -236 OFFCURVE",
"577 145 OFFCURVE",
"577 551 CURVE SMOOTH",
"582 1099 OFFCURVE",
"584 1211 OFFCURVE",
"591 1232 CURVE SMOOTH",
"602 1263 OFFCURVE",
"699 1300 OFFCURVE",
"699 1338 CURVE SMOOTH",
"699 1378 OFFCURVE",
"664 1393 OFFCURVE",
"601 1393 CURVE SMOOTH",
"343.667 1393 OFFCURVE",
"215 1378 OFFCURVE",
"215 1348 CURVE SMOOTH",
"215 1309 OFFCURVE",
"321 1273 OFFCURVE",
"341 1226 CURVE SMOOTH",
"364 1172 OFFCURVE",
"368 1062 OFFCURVE",
"374 654 CURVE SMOOTH",
"374 78 OFFCURVE",
"350 -76 OFFCURVE",
"119 -61 CURVE SMOOTH",
"39 -61 OFFCURVE",
"-10 -103.333 OFFCURVE",
"-10 -158 CURVE SMOOTH",
"-10 -210 OFFCURVE",
"44.667 -236 OFFCURVE",
"154 -236 CURVE SMOOTH"
);
}
);
width = 811;
},
{
layerId = "5CBF0BAD-1756-4F16-9711-93DC239D102B";
paths = (
{
closed = 1;
nodes = (
"615 -244 OFFCURVE",
"664 113 OFFCURVE",
"661 844 CURVE SMOOTH",
"660 968 OFFCURVE",
"664 1057 OFFCURVE",
"674 1110.5 CURVE SMOOTH",
"688 1187 OFFCURVE",
"765 1312 OFFCURVE",
"765 1347 CURVE SMOOTH",
"765 1377 OFFCURVE",
"715 1396 OFFCURVE",
"615 1394 CURVE SMOOTH",
"229 1386 OFFCURVE",
"205 1377 OFFCURVE",
"205 1333 CURVE SMOOTH",
"205 1302 OFFCURVE",
"254 1261 OFFCURVE",
"311 1194 CURVE SMOOTH",
"358 1139 OFFCURVE",
"370 1070 OFFCURVE",
"352 404 CURVE SMOOTH",
"346 171 OFFCURVE",
"311 25 OFFCURVE",
"162 1 CURVE SMOOTH",
"62 -15 OFFCURVE",
"11 -58.667 OFFCURVE",
"11 -130 CURVE SMOOTH",
"11 -217 OFFCURVE",
"61 -244 OFFCURVE",
"192 -244 CURVE SMOOTH"
);
}
);
width = 859;
}
);
note = uni004A;
unicode = 004A;
},
{
glyphname = K;
layers = (
{
layerId = "92A672BF-229C-4BEC-8D25-4DDBB2A38145";
paths = (
{
closed = 1;
nodes = (
"482 559.667 OFFCURVE",
"511 635 OFFCURVE",
"569 635 CURVE SMOOTH",
"627 635 OFFCURVE",
"733 516.333 OFFCURVE",
"887 279 CURVE SMOOTH",
"897 263 OFFCURVE",
"1022 40 OFFCURVE",
"1019 43 CURVE SMOOTH",
"1056 6 OFFCURVE",
"1096 -1 OFFCURVE",
"1196 -1 CURVE SMOOTH",
"1315.333 -1 OFFCURVE",
"1375 13.667 OFFCURVE",
"1375 43 CURVE SMOOTH",
"1375 69 OFFCURVE",
"1292 88 OFFCURVE",
"1140 278 CURVE SMOOTH",
"901 577 OFFCURVE",
"785 743 OFFCURVE",
"785 777 CURVE SMOOTH",
"785 819 OFFCURVE",
"855 900 OFFCURVE",
"939 1001 CURVE SMOOTH",
"1116 1214 OFFCURVE",
"1294 1299 OFFCURVE",
"1294 1358 CURVE SMOOTH",
"1294 1387 OFFCURVE",
"1239 1396 OFFCURVE",
"1125 1396 CURVE SMOOTH",
"985 1396 OFFCURVE",
"956 1361 OFFCURVE",
"956 1341 CURVE SMOOTH",
"956 1314 OFFCURVE",
"956 1282 OFFCURVE",
"947 1245 CURVE SMOOTH",
"937 1203 OFFCURVE",
"917 1154 OFFCURVE",
"873 1098 CURVE SMOOTH",
"794 996 OFFCURVE",
"587 768 OFFCURVE",
"537 768 CURVE SMOOTH",
"505.667 768 OFFCURVE",
"490 798 OFFCURVE",
"490 858 CURVE SMOOTH",
"490 1032 OFFCURVE",
"491 1128 OFFCURVE",
"500 1175 CURVE SMOOTH",
"516 1262 OFFCURVE",
"574 1319 OFFCURVE",
"574 1349 CURVE SMOOTH",
"574 1380 OFFCURVE",
"532 1396 OFFCURVE",
"448 1396 CURVE SMOOTH",
"196 1396 OFFCURVE",
"122 1387 OFFCURVE",
"122 1344 CURVE SMOOTH",
"122 1304 OFFCURVE",
"241 1244 OFFCURVE",
"248 1212 CURVE SMOOTH",
"257 1165 OFFCURVE",
"261 972.333 OFFCURVE",
"261 695 CURVE SMOOTH",
"261 417.667 OFFCURVE",
"256 235 OFFCURVE",
"245 186 CURVE SMOOTH",
"234 137 OFFCURVE",
"122 88 OFFCURVE",
"122 37 CURVE SMOOTH",
"122 14 OFFCURVE",
"178.333 0 OFFCURVE",
"291 0 CURVE SMOOTH",
"483 0 OFFCURVE",
"579 17 OFFCURVE",
"579 43 CURVE SMOOTH",
"579 74 OFFCURVE",
"500 157 OFFCURVE",
"493 197.5 CURVE SMOOTH",
"487 234 OFFCURVE",
"482 304.333 OFFCURVE",
"482 409 CURVE SMOOTH"
);
}
);
width = 1442;
},
{
layerId = "5CBF0BAD-1756-4F16-9711-93DC239D102B";
paths = (
{
closed = 1;
nodes = (
"101 1302 OFFCURVE",
"201 1208 OFFCURVE",
"217.5 1139 CURVE SMOOTH",
"225.833 1103.667 OFFCURVE",
"230 956.333 OFFCURVE",
"230 697 CURVE SMOOTH",
"230 437.667 OFFCURVE",
"225 289 OFFCURVE",
"219 249.5 CURVE SMOOTH",
"210 185 OFFCURVE",
"105 102 OFFCURVE",
"105 61 CURVE SMOOTH",
"105 18 OFFCURVE",
"199 1 OFFCURVE",
"290 1 CURVE SMOOTH",
"548 0 OFFCURVE",
"607 17 OFFCURVE",
"606 74 CURVE SMOOTH",
"605 112 OFFCURVE",
"563 202 OFFCURVE",
"548 239 CURVE SMOOTH",
"531 282 OFFCURVE",
"513 344 OFFCURVE",
"513 400 CURVE SMOOTH",
"513 514 OFFCURVE",
"533 588 OFFCURVE",
"595 588 CURVE SMOOTH",
"688.333 588 OFFCURVE",
"819.667 395.333 OFFCURVE",
"901 222 CURVE SMOOTH",
"941.667 135.333 OFFCURVE",
"968.667 84 OFFCURVE",
"982 68 CURVE SMOOTH",
"1020 21.333 OFFCURVE",
"1064 -2 OFFCURVE",
"1114 -2 CURVE SMOOTH",
"1369 0 OFFCURVE",
"1427 14 OFFCURVE",
"1427 60 CURVE SMOOTH",
"1427 84 OFFCURVE",
"1374.667 113.667 OFFCURVE",
"1270 215 CURVE SMOOTH",
"1207.333 275 OFFCURVE",
"835 744 OFFCURVE",
"835 773 CURVE SMOOTH",
"835 809.667 OFFCURVE",
"942 967 OFFCURVE",
"1135 1133 CURVE SMOOTH",
"1266 1246 OFFCURVE",
"1369 1318 OFFCURVE",
"1369 1354 CURVE SMOOTH",
"1369 1387 OFFCURVE",
"1322 1411 OFFCURVE",
"1214 1411 CURVE SMOOTH",
"1103 1411 OFFCURVE",
"921 1411 OFFCURVE",
"921 1340 CURVE SMOOTH",
"921 1308 OFFCURVE",
"955 1256 OFFCURVE",
"955 1225 CURVE SMOOTH",
"955 1191.667 OFFCURVE",
"907.333 1124.333 OFFCURVE",
"812 1023 CURVE SMOOTH",
"656.667 857.667 OFFCURVE",
"563 775 OFFCURVE",
"531 775 CURVE SMOOTH",
"512 775 OFFCURVE",
"510 871 OFFCURVE",
"513 967 CURVE SMOOTH",
"515 1023 OFFCURVE",
"524 1132 OFFCURVE",
"526 1162 CURVE SMOOTH",
"530 1234 OFFCURVE",
"629 1298 OFFCURVE",
"629 1340 CURVE SMOOTH",
"629 1380 OFFCURVE",
"540 1400 OFFCURVE",
"463 1402 CURVE SMOOTH",
"189 1409 OFFCURVE",
"101 1394 OFFCURVE",
"101 1352 CURVE SMOOTH"
);
}
);
width = 1488;
}
);
note = uni004B;
unicode = 004B;
},
{
glyphname = L;
layers = (
{
layerId = "92A672BF-229C-4BEC-8D25-4DDBB2A38145";
paths = (
{
closed = 1;
nodes = (
"947 -2 OFFCURVE",
"1076 1 OFFCURVE",
"1106 27 CURVE SMOOTH",
"1144 59 OFFCURVE",
"1163 147 OFFCURVE",
"1163 291 CURVE SMOOTH",
"1163 332.333 OFFCURVE",
"1150.667 353 OFFCURVE",
"1126 353 CURVE SMOOTH",
"1106 353 OFFCURVE",
"963 165 OFFCURVE",
"931.5 148 CURVE SMOOTH",
"897 129 OFFCURVE",
"822 122 OFFCURVE",
"742 120 CURVE SMOOTH",
"633 117 OFFCURVE",
"516 130 OFFCURVE",
"496 165 CURVE SMOOTH",
"484 185.667 OFFCURVE",
"478 347.667 OFFCURVE",
"478 651 CURVE SMOOTH",
"478 954.333 OFFCURVE",
"476 1160 OFFCURVE",
"501 1214 CURVE SMOOTH",
"526 1268 OFFCURVE",
"632 1309 OFFCURVE",
"632 1346 CURVE SMOOTH",
"632 1378 OFFCURVE",
"593 1388 OFFCURVE",
"376 1393 CURVE SMOOTH",
"181 1397 OFFCURVE",
"112 1401 OFFCURVE",
"114 1354 CURVE SMOOTH",
"117 1308 OFFCURVE",
"221 1308 OFFCURVE",
"245 1256 CURVE SMOOTH",
"268 1205 OFFCURVE",
"260 1112 OFFCURVE",
"256 583 CURVE SMOOTH",
"256 361.667 OFFCURVE",
"249 230 OFFCURVE",
"238 189 CURVE SMOOTH",
"221 127 OFFCURVE",
"115 68 OFFCURVE",
"115 39 CURVE SMOOTH",
"115 14 OFFCURVE",
"275 -1 OFFCURVE",
"595 -1 CURVE SMOOTH"
);
}
);
width = 1213;
},
{
layerId = "5CBF0BAD-1756-4F16-9711-93DC239D102B";
paths = (
{
closed = 1;
nodes = (
"997 0 OFFCURVE",
"1094 0 OFFCURVE",
"1124 28 CURVE SMOOTH",
"1143 45 OFFCURVE",
"1186 199 OFFCURVE",
"1186 299 CURVE SMOOTH",
"1186 355 OFFCURVE",
"1181 379 OFFCURVE",
"1143 379 CURVE SMOOTH",
"1060 379 OFFCURVE",
"979 240 OFFCURVE",
"863.5 176 CURVE SMOOTH",
"818 151 OFFCURVE",
"754 142 OFFCURVE",
"656 142 CURVE SMOOTH",
"568 142 OFFCURVE",
"538.167 188.333 OFFCURVE",
"530.5 217 CURVE SMOOTH",
"522.833 245.667 OFFCURVE",
"519 396.833 OFFCURVE",
"519 670.5 CURVE SMOOTH",
"519 944.167 OFFCURVE",
"526 1097 OFFCURVE",
"530.5 1129 CURVE SMOOTH",
"544 1222 OFFCURVE",
"665 1277 OFFCURVE",
"665 1340 CURVE SMOOTH",
"665 1378 OFFCURVE",
"623 1389 OFFCURVE",
"538 1389 CURVE SMOOTH",
"129 1389 OFFCURVE",
"78 1374 OFFCURVE",
"78 1333 CURVE SMOOTH",
"78 1277 OFFCURVE",
"179 1239 OFFCURVE",
"205 1193 CURVE SMOOTH",
"233 1143 OFFCURVE",
"238 894 OFFCURVE",
"236 688 CURVE SMOOTH",
"235 505 OFFCURVE",
"225 276 OFFCURVE",
"213 219 CURVE SMOOTH",
"204 176 OFFCURVE",
"98 106 OFFCURVE",
"98 58 CURVE SMOOTH",
"98 7 OFFCURVE",
"119 -2 OFFCURVE",
"437 -1 CURVE SMOOTH"
);
}
);
width = 1230;
}
);
note = uni004C;
unicode = 004C;
},
{
glyphname = Lslash;
layers = (
{
layerId = "92A672BF-229C-4BEC-8D25-4DDBB2A38145";
paths = (
{
closed = 1;
nodes = (
"926 5 LINE SMOOTH",
"1140.667 5 OFFCURVE",
"1187 61 OFFCURVE",
"1187 269 CURVE SMOOTH",
"1187 322 OFFCURVE",
"1176 347 OFFCURVE",
"1155 345 CURVE SMOOTH",
"1135 343 OFFCURVE",
"1106 316 OFFCURVE",
"1071 266.5 CURVE SMOOTH",
"996.333 161.833 OFFCURVE",
"937.5 104 OFFCURVE",
"739.5 104 CURVE SMOOTH",
"541.5 104 OFFCURVE",
"492 146.833 OFFCURVE",
"492 363.5 CURVE SMOOTH",
"492 439 OFFCURVE",
"505 559 OFFCURVE",
"552 608 CURVE SMOOTH",
"640 700 OFFCURVE",
"807 808 OFFCURVE",
"807 867 CURVE SMOOTH",
"807 889 OFFCURVE",
"795 896 OFFCURVE",
"775 894 CURVE SMOOTH",
"720 889 OFFCURVE",
"607 814 OFFCURVE",
"552 814 CURVE SMOOTH",
"513 814 OFFCURVE",
"498 903 OFFCURVE",
"497 994 CURVE SMOOTH",
"495 1064 OFFCURVE",
"502 1135 OFFCURVE",
"511.5 1169.5 CURVE SMOOTH",
"518.997 1196.435 OFFCURVE",
"618 1295 OFFCURVE",
"618 1326 CURVE SMOOTH",
"618 1370 OFFCURVE",
"533 1372 OFFCURVE",
"257 1372 CURVE SMOOTH",
"178.333 1372 OFFCURVE",
"139 1356.333 OFFCURVE",
"139 1325 CURVE SMOOTH",
"139 1295 OFFCURVE",
"251 1212 OFFCURVE",
"256.5 1195 CURVE SMOOTH",
"266.167 1167.667 OFFCURVE",
"271 1094.333 OFFCURVE",
"271 975 CURVE SMOOTH",
"271 855.667 OFFCURVE",
"262 779 OFFCURVE",
"257 742.5 CURVE SMOOTH",
"249 685 OFFCURVE",
"135 595 OFFCURVE",
"135 546 CURVE SMOOTH",
"135 499 OFFCURVE",
"224 505 OFFCURVE",
"247 476 CURVE SMOOTH",
"263 454 OFFCURVE",
"270 396 OFFCURVE",
"270 335 CURVE SMOOTH",
"271 274 OFFCURVE",
"264 210 OFFCURVE",
"252 177.5 CURVE SMOOTH",
"240.87 146.893 OFFCURVE",
"135 55 OFFCURVE",
"135 31 CURVE SMOOTH",
"135 9 OFFCURVE",
"175 -2 OFFCURVE",
"255 -2 CURVE SMOOTH"
);
}
);
width = 1252;
},
{
layerId = "5CBF0BAD-1756-4F16-9711-93DC239D102B";
paths = (
{
closed = 1;
nodes = (
"961 0 LINE SMOOTH",
"1136 0 OFFCURVE",
"1175 32 OFFCURVE",
"1175 287 CURVE SMOOTH",
"1175 341 OFFCURVE",
"1172 364 OFFCURVE",
"1139 364 CURVE SMOOTH",
"1066 364 OFFCURVE",
"968 227 OFFCURVE",
"911 189 CURVE SMOOTH",
"854 151 OFFCURVE",
"799 132 OFFCURVE",
"746 132 CURVE SMOOTH",
"582 132 OFFCURVE",
"509 188.667 OFFCURVE",
"509 354 CURVE SMOOTH",
"509 607 OFFCURVE",
"555.167 658 OFFCURVE",
"694.5 762 CURVE SMOOTH",
"764.167 814 OFFCURVE",
"799 852.333 OFFCURVE",
"799 877 CURVE SMOOTH",
"799 927 OFFCURVE",
"783 948 OFFCURVE",
"753 947 CURVE SMOOTH",
"695 945 OFFCURVE",
"602 859 OFFCURVE",
"552 859 CURVE SMOOTH",
"525.333 859 OFFCURVE",
"512 890.167 OFFCURVE",
"512 952.5 CURVE SMOOTH",
"512 1015 OFFCURVE",
"520 1076 OFFCURVE",
"550 1125 CURVE SMOOTH",
"593 1195 OFFCURVE",
"644 1238 OFFCURVE",
"644 1259 CURVE SMOOTH",
"644 1298 OFFCURVE",
"591 1317 OFFCURVE",
"486 1317 CURVE SMOOTH",
"137 1317 OFFCURVE",
"110 1310 OFFCURVE",
"110 1273 CURVE SMOOTH",
"110 1230.278 OFFCURVE",
"223.501 1174.33 OFFCURVE",
"245.5 1121 CURVE SMOOTH",
"256 1096 OFFCURVE",
"262 1001 OFFCURVE",
"263 919 CURVE SMOOTH",
"265 790 OFFCURVE",
"255 710 OFFCURVE",
"241 692 CURVE SMOOTH",
"166 598 OFFCURVE",
"111 525 OFFCURVE",
"111 476 CURVE SMOOTH",
"111 444 OFFCURVE",
"137 429 OFFCURVE",
"202 429 CURVE SMOOTH",
"248 429 OFFCURVE",
"263 405 OFFCURVE",
"263 330 CURVE SMOOTH",
"263 279 OFFCURVE",
"256 221 OFFCURVE",
"236 190 CURVE SMOOTH",
"169 87 OFFCURVE",
"104 64 OFFCURVE",
"104 30 CURVE SMOOTH",
"104 10 OFFCURVE",
"136.667 0 OFFCURVE",
"202 0 CURVE SMOOTH"
);
}
);
width = 1253;
}
);
note = uni0141;
unicode = 0141;
},
{
glyphname = M;
layers = (
{
layerId = "92A672BF-229C-4BEC-8D25-4DDBB2A38145";
paths = (
{
closed = 1;
nodes = (
"368 6 OFFCURVE",
"453 34 OFFCURVE",
"453 58 CURVE SMOOTH",
"453 106 OFFCURVE",
"427 129 OFFCURVE",
"408 216 CURVE SMOOTH",
"388 303 OFFCURVE",
"378 354.333 OFFCURVE",
"378 417 CURVE SMOOTH",
"378 836 OFFCURVE",
"399 1065 OFFCURVE",
"422 1067 CURVE SMOOTH",
"442 1069 OFFCURVE",
"509.833 927.833 OFFCURVE",
"623.5 649.5 CURVE SMOOTH",
"766 301 OFFCURVE",
"842 81 OFFCURVE",
"903 81 CURVE SMOOTH",
"961 81 OFFCURVE",
"985 136 OFFCURVE",
"1222 693 CURVE SMOOTH",
"1334.667 947.667 OFFCURVE",
"1395.333 1075 OFFCURVE",
"1404 1075 CURVE SMOOTH",
"1434 1014 OFFCURVE",
"1444 899 OFFCURVE",
"1448 644 CURVE SMOOTH",
"1449 571 OFFCURVE",
"1449 487 OFFCURVE",
"1449 389 CURVE SMOOTH",
"1449 247.667 OFFCURVE",
"1400 158 OFFCURVE",
"1396 100 CURVE SMOOTH",
"1390 10 OFFCURVE",
"1456 16 OFFCURVE",
"1567 17 CURVE SMOOTH",
"1687 18 OFFCURVE",
"1784 0 OFFCURVE",
"1784 55 CURVE SMOOTH",
"1784 79 OFFCURVE",
"1670 180 OFFCURVE",
"1663 216 CURVE SMOOTH",
"1641 329.333 OFFCURVE",
"1630 408 OFFCURVE",
"1630 865 CURVE SMOOTH",
"1630 934 OFFCURVE",
"1638 1195 OFFCURVE",
"1659 1230 CURVE SMOOTH",
"1677 1260 OFFCURVE",
"1736 1289 OFFCURVE",
"1736 1326 CURVE SMOOTH",
"1736 1360 OFFCURVE",
"1695.667 1377 OFFCURVE",
"1615 1377 CURVE SMOOTH",
"1487 1377 OFFCURVE",
"1435 1365 OFFCURVE",
"1377 1270 CURVE SMOOTH",
"1354.333 1232.667 OFFCURVE",
"962 402 OFFCURVE",
"936 403 CURVE SMOOTH",
"891 405 OFFCURVE",
"567.5 1201.333 OFFCURVE",
"558.5 1218 CURVE SMOOTH",
"496 1335 OFFCURVE",
"445 1374 OFFCURVE",
"320 1374 CURVE SMOOTH",
"213.333 1374 OFFCURVE",
"160 1361 OFFCURVE",
"160 1335 CURVE SMOOTH",
"160 1319 OFFCURVE",
"248 1236 OFFCURVE",
"262 1207 CURVE SMOOTH",
"279.333 1170.333 OFFCURVE",
"288 979 OFFCURVE",
"288 879 CURVE SMOOTH",
"288 824 OFFCURVE",
"268 383 OFFCURVE",
"242 220 CURVE SMOOTH",
"234 170 OFFCURVE",
"118 106 OFFCURVE",
"118 69 CURVE SMOOTH",
"118 24 OFFCURVE",
"200 7 OFFCURVE",
"283 6 CURVE SMOOTH"
);
}
);
width = 1902;
},
{
layerId = "5CBF0BAD-1756-4F16-9711-93DC239D102B";
paths = (
{
closed = 1;
nodes = (
"389 21 OFFCURVE",
"462 42 OFFCURVE",
"462 74 CURVE SMOOTH",
"462 113 OFFCURVE",
"454 167 OFFCURVE",
"450 230 CURVE SMOOTH",
"441 358 OFFCURVE",
"428 523 OFFCURVE",
"428 674 CURVE SMOOTH",
"428 857.333 OFFCURVE",
"438.167 949 OFFCURVE",
"458.5 949 CURVE SMOOTH",
"478.833 949 OFFCURVE",
"570 741 OFFCURVE",
"666 500 CURVE SMOOTH",
"824 101 OFFCURVE",
"854 59 OFFCURVE",
"917.5 59 CURVE SMOOTH",
"979 59 OFFCURVE",
"1017 83 OFFCURVE",
"1228 625 CURVE SMOOTH",
"1315 848 OFFCURVE",
"1361.667 959 OFFCURVE",
"1379 959 CURVE SMOOTH",
"1401 959 OFFCURVE",
"1388 716 OFFCURVE",
"1401 607 CURVE SMOOTH",
"1414 499 OFFCURVE",
"1416 375 OFFCURVE",
"1416 318.5 CURVE SMOOTH",
"1416 230 OFFCURVE",
"1371 174 OFFCURVE",
"1372 115 CURVE SMOOTH",
"1373 38 OFFCURVE",
"1548 30 OFFCURVE",
"1705 30 CURVE SMOOTH",
"1785 30 OFFCURVE",
"1825 49 OFFCURVE",
"1825 87 CURVE SMOOTH",
"1825 116 OFFCURVE",
"1750 143 OFFCURVE",
"1715.5 207.5 CURVE SMOOTH",
"1685 264 OFFCURVE",
"1703 512 OFFCURVE",
"1697 660 CURVE SMOOTH",
"1679 1016 OFFCURVE",
"1677 1097 OFFCURVE",
"1707 1174 CURVE SMOOTH",
"1725 1222 OFFCURVE",
"1793 1262 OFFCURVE",
"1793 1321 CURVE SMOOTH",
"1793 1347 OFFCURVE",
"1719 1368 OFFCURVE",
"1574.5 1368 CURVE SMOOTH",
"1344 1368 OFFCURVE",
"1285 1222 OFFCURVE",
"1148.5 890 CURVE SMOOTH",
"1049 649 OFFCURVE",
"997 537 OFFCURVE",
"956 537 CURVE SMOOTH",
"925 537 OFFCURVE",
"790 841.333 OFFCURVE",
"726 1008 CURVE SMOOTH",
"609 1312 OFFCURVE",
"505 1381 OFFCURVE",
"249 1381 CURVE SMOOTH",
"179 1381 OFFCURVE",
"140 1363 OFFCURVE",
"140 1326 CURVE SMOOTH",
"140 1289 OFFCURVE",
"228.36 1149.814 OFFCURVE",
"241.5 1092 CURVE SMOOTH",
"264 995 OFFCURVE",
"252 800 OFFCURVE",
"240 569 CURVE SMOOTH",
"234 352 OFFCURVE",
"223 271 OFFCURVE",
"219 241.5 CURVE SMOOTH",
"213 195 OFFCURVE",
"127 115 OFFCURVE",
"127 68 CURVE SMOOTH",
"127 36.667 OFFCURVE",
"189.333 21 OFFCURVE",
"314 21 CURVE SMOOTH"
);
}
);
width = 1928;
}
);
note = uni004D;
unicode = 004D;
},
{
glyphname = N;
layers = (
{
anchors = (
{
name = top;
position = "{772, 1385}";
}
);
layerId = "92A672BF-229C-4BEC-8D25-4DDBB2A38145";
paths = (
{
closed = 1;
nodes = (
"447 0 OFFCURVE",
"492 19 OFFCURVE",
"492 56 CURVE SMOOTH",
"492 109 OFFCURVE",
"428 134 OFFCURVE",
"413 190 CURVE SMOOTH",
"391 271 OFFCURVE",
"383 500 OFFCURVE",
"383 700 CURVE SMOOTH",
"383 894 OFFCURVE",
"389.667 1101 OFFCURVE",
"403 1101 CURVE SMOOTH",
"427.667 1101 OFFCURVE",
"544.167 952.833 OFFCURVE",
"752.5 656.5 CURVE SMOOTH",
"960.833 360.167 OFFCURVE",
"1080.667 192.667 OFFCURVE",
"1112 154 CURVE SMOOTH",
"1184 64.667 OFFCURVE",
"1241 6 OFFCURVE",
"1283 6 CURVE SMOOTH",
"1337 6 OFFCURVE",
"1346 74 OFFCURVE",
"1349 367 CURVE SMOOTH",
"1352 700 LINE SMOOTH",
"1354 892 OFFCURVE",
"1362 1106 OFFCURVE",
"1375 1192 CURVE SMOOTH",
"1382 1239 OFFCURVE",
"1496 1287 OFFCURVE",
"1496 1342 CURVE SMOOTH",
"1496 1364 OFFCURVE",
"1432 1386 OFFCURVE",
"1303 1386 CURVE SMOOTH",
"1168 1386 OFFCURVE",
"1107 1369 OFFCURVE",
"1108 1346 CURVE SMOOTH",
"1110 1309 OFFCURVE",
"1173 1313 OFFCURVE",
"1218.5 1207 CURVE SMOOTH",
"1233 1174 OFFCURVE",
"1233 1078 OFFCURVE",
"1232 700 CURVE SMOOTH",
"1232 449 OFFCURVE",
"1221 366 OFFCURVE",
"1200 366 CURVE SMOOTH",
"1156 366 OFFCURVE",
"640.697 1139.418 OFFCURVE",
"486.5 1290.5 CURVE SMOOTH",
"420.5 1355.167 OFFCURVE",
"358.333 1382 OFFCURVE",
"201 1382 CURVE SMOOTH",
"152.333 1382 OFFCURVE",
"128 1372 OFFCURVE",
"128 1338 CURVE SMOOTH",
"128 1304 OFFCURVE",
"241 1257 OFFCURVE",
"261.5 1157 CURVE SMOOTH",
"272 1108 OFFCURVE",
"275 960 OFFCURVE",
"272 700 CURVE SMOOTH",
"270 501 OFFCURVE",
"272 295 OFFCURVE",
"251 195 CURVE SMOOTH",
"237 127 OFFCURVE",
"115 105 OFFCURVE",
"115 40 CURVE SMOOTH",
"115 12 OFFCURVE",
"189 5 OFFCURVE",
"284 3 CURVE SMOOTH"
);
}
);
width = 1592;
},
{
anchors = (
{
name = top;
position = "{804, 1374}";
}
);
layerId = "5CBF0BAD-1756-4F16-9711-93DC239D102B";
paths = (
{
closed = 1;
nodes = (
"459 7 OFFCURVE",
"521 25 OFFCURVE",
"521 64 CURVE SMOOTH",
"521 106 OFFCURVE",
"464 148 OFFCURVE",
"455 226 CURVE SMOOTH",
"438 371 OFFCURVE",
"416 533.5 OFFCURVE",
"416 714.5 CURVE SMOOTH",
"416 895.5 OFFCURVE",
"422.667 986 OFFCURVE",
"436 986 CURVE SMOOTH",
"468.667 986 OFFCURVE",
"576 853 OFFCURVE",
"758 587 CURVE SMOOTH",
"940 321 OFFCURVE",
"1039 179 OFFCURVE",
"1054 160 CURVE SMOOTH",
"1127 70 OFFCURVE",
"1188 17 OFFCURVE",
"1262 17 CURVE SMOOTH",
"1315 17 OFFCURVE",
"1338 37 OFFCURVE",
"1341 163 CURVE SMOOTH",
"1356 872 LINE SMOOTH",
"1359 1011 OFFCURVE",
"1358 1071 OFFCURVE",
"1362 1104.5 CURVE SMOOTH",
"1371 1180 OFFCURVE",
"1487 1206 OFFCURVE",
"1487 1279 CURVE SMOOTH",
"1487 1335 OFFCURVE",
"1409 1359 OFFCURVE",
"1168 1359 CURVE SMOOTH",
"1107.333 1359 OFFCURVE",
"1077 1344 OFFCURVE",
"1077 1314 CURVE SMOOTH",
"1077 1302.667 OFFCURVE",
"1089.333 1282.333 OFFCURVE",
"1114 1253 CURVE SMOOTH",
"1157.333 1202.333 OFFCURVE",
"1180 1079 OFFCURVE",
"1179 884 CURVE SMOOTH",
"1178 534 OFFCURVE",
"1148 498 OFFCURVE",
"1124 498 CURVE SMOOTH",
"1094 498 OFFCURVE",
"610 1189 OFFCURVE",
"562 1239 CURVE SMOOTH",
"474 1330 OFFCURVE",
"382 1376 OFFCURVE",
"274 1376 CURVE SMOOTH",
"136 1376 OFFCURVE",
"90 1364 OFFCURVE",
"90 1300.5 CURVE SMOOTH",
"90 1240 OFFCURVE",
"202 1200 OFFCURVE",
"223.5 1128.5 CURVE SMOOTH",
"258 1010 OFFCURVE",
"239 794 OFFCURVE",
"234 574 CURVE SMOOTH",
"229 282 OFFCURVE",
"223 239 OFFCURVE",
"215 204 CURVE SMOOTH",
"205 157 OFFCURVE",
"101 121 OFFCURVE",
"101 83 CURVE SMOOTH",
"101 7 OFFCURVE",
"165 7 OFFCURVE",
"278 7 CURVE SMOOTH"
);
}
);
width = 1562;
}
);
note = uni004E;
unicode = 004E;
},
{
glyphname = O;
layers = (
{
anchors = (
{
name = bottom;
position = "{739, -29}";
},
{
name = top;
position = "{738, 1416}";
}
);
layerId = "92A672BF-229C-4BEC-8D25-4DDBB2A38145";
paths = (
{
closed = 1;
nodes = (
"489 66 OFFCURVE",
"322 317 OFFCURVE",
"322 702 CURVE SMOOTH",
"322 1087 OFFCURVE",
"480 1320 OFFCURVE",
"742 1320 CURVE SMOOTH",
"1002 1320 OFFCURVE",
"1169 1070.333 OFFCURVE",
"1169 685 CURVE SMOOTH",
"1169 356 OFFCURVE",
"1046 66 OFFCURVE",
"763 66 CURVE SMOOTH"
);
},
{
closed = 1;
nodes = (
"1411 1124 OFFCURVE",
"1159 1412 OFFCURVE",
"788 1412 CURVE SMOOTH",
"365 1412 OFFCURVE",
"99 1126 OFFCURVE",
"99 699 CURVE SMOOTH",
"99 245 OFFCURVE",
"339 -28 OFFCURVE",
"764 -28 CURVE SMOOTH",
"1147 -28 OFFCURVE",
"1411 299 OFFCURVE",
"1411 690 CURVE SMOOTH"
);
}
);
width = 1533;
},
{
anchors = (
{
name = bottom;
position = "{709, -33}";
},
{
name = top;
position = "{749, 1405}";
}
);
layerId = "5CBF0BAD-1756-4F16-9711-93DC239D102B";
paths = (
{
closed = 1;
nodes = (
"1103 308 OFFCURVE",
"986 108 OFFCURVE",
"746 108 CURVE SMOOTH",
"522 108 OFFCURVE",
"386 409 OFFCURVE",
"386 687 CURVE SMOOTH",
"386 1056 OFFCURVE",
"518 1267 OFFCURVE",
"746 1267 CURVE SMOOTH",
"979 1267 OFFCURVE",
"1103 982 OFFCURVE",
"1103 706 CURVE SMOOTH"
);
},
{
closed = 1;
nodes = (
"98 275 OFFCURVE",
"348 -34 OFFCURVE",
"739 -34 CURVE SMOOTH",
"1173 -33 OFFCURVE",
"1444 263 OFFCURVE",
"1444 713 CURVE SMOOTH",
"1444 1089 OFFCURVE",
"1174 1406 OFFCURVE",
"809 1406 CURVE SMOOTH",
"364 1409 OFFCURVE",
"98 1123 OFFCURVE",
"98 682 CURVE SMOOTH"
);
}
);
width = 1533;
}
);
note = uni004F;
unicode = 004F;
},
{
glyphname = Oslash;
layers = (
{
layerId = "92A672BF-229C-4BEC-8D25-4DDBB2A38145";
paths = (
{
closed = 1;
nodes = (
"336 -68 OFFCURVE",
"436 -1 OFFCURVE",
"488 0 CURVE SMOOTH",
"530 1 OFFCURVE",
"596 -18 OFFCURVE",
"675 -18 CURVE SMOOTH",
"1111 -18 OFFCURVE",
"1376 291 OFFCURVE",
"1376 746 CURVE SMOOTH",
"1376 1050 OFFCURVE",
"1245 1170 OFFCURVE",
"1245 1311.5 CURVE SMOOTH",
"1245 1339 OFFCURVE",
"1248 1374 OFFCURVE",
"1240 1391 CURVE SMOOTH",
"1229 1415 OFFCURVE",
"1211 1421 OFFCURVE",
"1187 1419 CURVE SMOOTH",
"1138 1414 OFFCURVE",
"1071 1374 OFFCURVE",
"1018 1374 CURVE",
"956 1379 OFFCURVE",
"895 1385 OFFCURVE",
"833 1390 CURVE SMOOTH",
"386 1390 OFFCURVE",
"118 1089 OFFCURVE",
"118 640 CURVE SMOOTH",
"118 311 OFFCURVE",
"260 162 OFFCURVE",
"260 57 CURVE SMOOTH",
"258 33 OFFCURVE",
"239 21 OFFCURVE",
"241 -14 CURVE SMOOTH",
"243 -50 OFFCURVE",
"269.333 -68 OFFCURVE",
"302 -68 CURVE SMOOTH"
);
},
{
closed = 1;
nodes = (
"628 66 OFFCURVE",
"541 98 OFFCURVE",
"541 159 CURVE SMOOTH",
"541 178 OFFCURVE",
"713 448 OFFCURVE",
"853 700 CURVE SMOOTH",
"971 913 OFFCURVE",
"1059 1116 OFFCURVE",
"1071 1116 CURVE SMOOTH",
"1103 1116 OFFCURVE",
"1129 980 OFFCURVE",
"1129 864 CURVE SMOOTH",
"1129 388 OFFCURVE",
"964 78 OFFCURVE",
"704 68 CURVE SMOOTH"
);
},
{
closed = 1;
nodes = (
"377 258 OFFCURVE",
"324 523 OFFCURVE",
"324 645 CURVE SMOOTH",
"326 1079 OFFCURVE",
"475 1310 OFFCURVE",
"757 1310 CURVE SMOOTH",
"881 1310 OFFCURVE",
"986 1256 OFFCURVE",
"986 1175 CURVE SMOOTH",
"986 1044.333 OFFCURVE",
"484 258 OFFCURVE",
"444 258 CURVE SMOOTH"
);
}
);
width = 1543;
},
{
layerId = "5CBF0BAD-1756-4F16-9711-93DC239D102B";
paths = (
{
closed = 1;
nodes = (
"357.871 -66 OFFCURVE",
"418.08 -4 OFFCURVE",
"451 -4 CURVE SMOOTH",
"509.56 -4 OFFCURVE",
"618.28 -25 OFFCURVE",
"713 -25 CURVE SMOOTH",
"1122 -25 OFFCURVE",
"1405 289 OFFCURVE",
"1405 699 CURVE SMOOTH",
"1405 990 OFFCURVE",
"1276 1162 OFFCURVE",
"1276 1185 CURVE SMOOTH",
"1276 1242 OFFCURVE",
"1297 1269 OFFCURVE",
"1297 1329 CURVE SMOOTH",
"1297 1385 OFFCURVE",
"1267 1404 OFFCURVE",
"1225 1404 CURVE SMOOTH",
"1151 1404 OFFCURVE",
"1132 1348 OFFCURVE",
"1046 1348 CURVE SMOOTH",
"985 1348 OFFCURVE",
"920 1371 OFFCURVE",
"840 1371 CURVE SMOOTH",
"408 1371 OFFCURVE",
"128 1073 OFFCURVE",
"128 643 CURVE SMOOTH",
"128 341 OFFCURVE",
"258 198 OFFCURVE",
"258 158 CURVE SMOOTH",
"258 105.88 OFFCURVE",
"234 22.518 OFFCURVE",
"234 -3.5 CURVE SMOOTH",
"234 -26.833 OFFCURVE",
"270.667 -66 OFFCURVE",
"312 -66 CURVE SMOOTH"
);
},
{
closed = 1;
nodes = (
"605 105 OFFCURVE",
"565 135 OFFCURVE",
"565 180 CURVE SMOOTH",
"565 210 OFFCURVE",
"732 397 OFFCURVE",
"859 603 CURVE SMOOTH",
"988 814 OFFCURVE",
"1065 1024 OFFCURVE",
"1084 1024 CURVE SMOOTH",
"1091 1024 OFFCURVE",
"1098 1006 OFFCURVE",
"1098 971 CURVE SMOOTH",
"1095 503 OFFCURVE",
"893 106 OFFCURVE",
"645 105 CURVE SMOOTH"
);
},
{
closed = 1;
nodes = (
"449 337 OFFCURVE",
"413 615 OFFCURVE",
"413 736 CURVE SMOOTH",
"413 1005 OFFCURVE",
"515 1237 OFFCURVE",
"760 1237 CURVE SMOOTH",
"872 1237 OFFCURVE",
"971 1167.667 OFFCURVE",
"971 1097 CURVE SMOOTH",
"971 989 OFFCURVE",
"594 337 OFFCURVE",
"493 337 CURVE SMOOTH"
);
}
);
width = 1541;
}
);
note = uni00D8;
unicode = 00D8;
},
{
glyphname = OE;
layers = (
{
layerId = "92A672BF-229C-4BEC-8D25-4DDBB2A38145";
paths = (
{
closed = 1;
nodes = (
"842 -1 OFFCURVE",
"958 16 OFFCURVE",
"1051 16 CURVE SMOOTH",
"1105 16 OFFCURVE",
"1271 -5 OFFCURVE",
"1454 -8 CURVE SMOOTH",
"1654 -11 OFFCURVE",
"1866 9 OFFCURVE",
"1866 196 CURVE SMOOTH",
"1866 237.333 OFFCURVE",
"1859 259 OFFCURVE",
"1844 259 CURVE SMOOTH",
"1746 259 OFFCURVE",
"1706 114 OFFCURVE",
"1438 114 CURVE SMOOTH",
"1237 114 OFFCURVE",
"1210 242 OFFCURVE",
"1210 456 CURVE SMOOTH",
"1210 581.333 OFFCURVE",
"1266.667 644 OFFCURVE",
"1380 644 CURVE SMOOTH",
"1457 644 OFFCURVE",
"1568 559 OFFCURVE",
"1600 561 CURVE SMOOTH",
"1646 564 OFFCURVE",
"1655 609 OFFCURVE",
"1655 716 CURVE SMOOTH",
"1655 820 OFFCURVE",
"1630 868 OFFCURVE",
"1590 868 CURVE SMOOTH",
"1568 868 OFFCURVE",
"1463 791 OFFCURVE",
"1411 791 CURVE SMOOTH",
"1277 791 OFFCURVE",
"1221 831 OFFCURVE",
"1221 955 CURVE SMOOTH",
"1221 1158 OFFCURVE",
"1245 1267 OFFCURVE",
"1421 1267 CURVE SMOOTH",
"1651 1267 OFFCURVE",
"1744 1147 OFFCURVE",
"1801 1147 CURVE SMOOTH",
"1815 1147 OFFCURVE",
"1822 1164 OFFCURVE",
"1822 1198 CURVE SMOOTH",
"1822 1284 OFFCURVE",
"1790 1338.333 OFFCURVE",
"1726 1361 CURVE SMOOTH",
"1639 1392 OFFCURVE",
"1438 1374 OFFCURVE",
"1122 1374 CURVE SMOOTH",
"1017 1374 OFFCURVE",
"979 1374 OFFCURVE",
"770 1391 CURVE SMOOTH",
"360 1391 OFFCURVE",
"90 1110 OFFCURVE",
"90 703 CURVE SMOOTH",
"90 261 OFFCURVE",
"314 -9 OFFCURVE",
"738 -9 CURVE SMOOTH"
);
},
{
closed = 1;
nodes = (
"436 76 OFFCURVE",
"321 395 OFFCURVE",
"321 771 CURVE SMOOTH",
"321 1063 OFFCURVE",
"485 1307 OFFCURVE",
"770 1307 CURVE SMOOTH",
"943 1307 OFFCURVE",
"986 1254 OFFCURVE",
"986 1082 CURVE SMOOTH",
"983 397 OFFCURVE",
"980 193 OFFCURVE",
"969 162 CURVE SMOOTH",
"944 90 OFFCURVE",
"860 76 OFFCURVE",
"763 76 CURVE SMOOTH"
);
}
);
width = 2036;
},
{
layerId = "5CBF0BAD-1756-4F16-9711-93DC239D102B";
paths = (
{
closed = 1;
nodes = (
"786 -26 OFFCURVE",
"997 -3 OFFCURVE",
"1082 -3 CURVE SMOOTH",
"1184 -5 OFFCURVE",
"1287 -8 OFFCURVE",
"1389 -10 CURVE SMOOTH",
"1738 -10 OFFCURVE",
"1887 13 OFFCURVE",
"1887 242 CURVE SMOOTH",
"1887 279.333 OFFCURVE",
"1877.333 298 OFFCURVE",
"1858 298 CURVE SMOOTH",
"1794 298 OFFCURVE",
"1644 141 OFFCURVE",
"1428 141 CURVE SMOOTH",
"1308 141 OFFCURVE",
"1253 196.667 OFFCURVE",
"1253 370 CURVE SMOOTH",
"1253 541 OFFCURVE",
"1273 614 OFFCURVE",
"1361 614 CURVE SMOOTH",
"1476 614 OFFCURVE",
"1505 527 OFFCURVE",
"1596 527 CURVE SMOOTH",
"1630 527 OFFCURVE",
"1665 556 OFFCURVE",
"1665 706 CURVE SMOOTH",
"1665 791 OFFCURVE",
"1637 862 OFFCURVE",
"1584.5 862 CURVE SMOOTH",
"1527 862 OFFCURVE",
"1462 784 OFFCURVE",
"1380 784 CURVE SMOOTH",
"1308 784 OFFCURVE",
"1252 830 OFFCURVE",
"1252 897 CURVE SMOOTH",
"1252 1053 OFFCURVE",
"1280 1217 OFFCURVE",
"1426.5 1217 CURVE SMOOTH",
"1553 1217 OFFCURVE",
"1737 1103 OFFCURVE",
"1786 1103 CURVE SMOOTH",
"1816.667 1103 OFFCURVE",
"1832 1120.333 OFFCURVE",
"1832 1155 CURVE SMOOTH",
"1832 1345 OFFCURVE",
"1727 1370 OFFCURVE",
"1397 1370 CURVE SMOOTH",
"1203 1370 OFFCURVE",
"1141 1366 OFFCURVE",
"1072 1366 CURVE SMOOTH",
"968 1366 OFFCURVE",
"863 1385 OFFCURVE",
"730 1385 CURVE SMOOTH",
"300 1385 OFFCURVE",
"53 1102 OFFCURVE",
"53 656 CURVE SMOOTH",
"53 250.667 OFFCURVE",
"302.333 -26 OFFCURVE",
"725 -26 CURVE SMOOTH"
);
},
{
closed = 1;
nodes = (
"481 114 OFFCURVE",
"368 389 OFFCURVE",
"368 674 CURVE SMOOTH",
"368 1051 OFFCURVE",
"488 1248 OFFCURVE",
"721 1248 CURVE SMOOTH",
"917 1248 OFFCURVE",
"962 1198 OFFCURVE",
"962 993 CURVE SMOOTH",
"962 527 OFFCURVE",
"959 226 OFFCURVE",
"928 179 CURVE SMOOTH",
"896 131 OFFCURVE",
"841 115 OFFCURVE",
"732 114 CURVE SMOOTH"
);
}
);
width = 2004;
}
);
note = uni0152;
unicode = 0152;
},
{
glyphname = P;
layers = (
{
layerId = "92A672BF-229C-4BEC-8D25-4DDBB2A38145";
paths = (
{
closed = 1;
nodes = (
"510 0 OFFCURVE",
"624 10 OFFCURVE",
"624 44 CURVE SMOOTH",
"624 75.308 OFFCURVE",
"504.511 123.29 OFFCURVE",
"486.5 167.5 CURVE SMOOTH",
"473 200 OFFCURVE",
"466 292 OFFCURVE",
"470 380 CURVE SMOOTH",
"474 458 OFFCURVE",
"450 526 OFFCURVE",
"480 541 CURVE SMOOTH",
"527 564 OFFCURVE",
"557 579 OFFCURVE",
"618 579 CURVE SMOOTH",
"913 579 OFFCURVE",
"1173 711 OFFCURVE",
"1173 1000 CURVE SMOOTH",
"1173 1279 OFFCURVE",
"985 1395 OFFCURVE",
"701 1402 CURVE SMOOTH",
"250 1413 OFFCURVE",
"123 1384 OFFCURVE",
"123 1337 CURVE SMOOTH",
"123 1287 OFFCURVE",
"237 1256 OFFCURVE",
"243 1204.5 CURVE SMOOTH",
"248 1161 OFFCURVE",
"259 985 OFFCURVE",
"255 680.5 CURVE SMOOTH",
"253 509 OFFCURVE",
"246 285 OFFCURVE",
"223 179 CURVE SMOOTH",
"207 107 OFFCURVE",
"115 95 OFFCURVE",
"115 46 CURVE SMOOTH",
"115 20.667 OFFCURVE",
"273 0 OFFCURVE",
"359 0 CURVE SMOOTH"
);
},
{
closed = 1;
nodes = (
"518 652 OFFCURVE",
"470 700 OFFCURVE",
"470 772 CURVE SMOOTH",
"470 1152 LINE SMOOTH",
"470 1273 OFFCURVE",
"505 1307 OFFCURVE",
"578 1307 CURVE SMOOTH",
"838 1307 OFFCURVE",
"952 1211 OFFCURVE",
"953 969 CURVE SMOOTH",
"953 755 OFFCURVE",
"827 652 OFFCURVE",
"582 652 CURVE SMOOTH"
);
}
);
width = 1267;
},
{
layerId = "5CBF0BAD-1756-4F16-9711-93DC239D102B";
paths = (
{
closed = 1;
nodes = (
"526 -5 OFFCURVE",
"694 0 OFFCURVE",
"694 59 CURVE SMOOTH",
"694 89.667 OFFCURVE",
"666.333 127.333 OFFCURVE",
"611 172 CURVE SMOOTH",
"569.667 205.333 OFFCURVE",
"549 251.667 OFFCURVE",
"549 311 CURVE SMOOTH",
"549 439.667 OFFCURVE",
"571.333 514 OFFCURVE",
"616 534 CURVE SMOOTH",
"627.333 539.333 OFFCURVE",
"677 546 OFFCURVE",
"765 554 CURVE SMOOTH",
"1063.667 580.667 OFFCURVE",
"1235 749 OFFCURVE",
"1235 973 CURVE SMOOTH",
"1235 1262 OFFCURVE",
"1084 1398 OFFCURVE",
"577 1398 CURVE SMOOTH",
"141 1398 OFFCURVE",
"113 1373 OFFCURVE",
"113 1328 CURVE SMOOTH",
"113 1293 OFFCURVE",
"207 1249 OFFCURVE",
"236 1147.5 CURVE SMOOTH",
"250 1099 OFFCURVE",
"256 946 OFFCURVE",
"254 701 CURVE SMOOTH",
"252 434 OFFCURVE",
"248 341 OFFCURVE",
"240 250 CURVE SMOOTH",
"233 167 OFFCURVE",
"113 135 OFFCURVE",
"113 50 CURVE SMOOTH",
"113 13.333 OFFCURVE",
"207.333 -5 OFFCURVE",
"396 -5 CURVE SMOOTH"
);
},
{
closed = 1;
nodes = (
"545 653 OFFCURVE",
"520 670 OFFCURVE",
"522 751 CURVE SMOOTH",
"533 1175 LINE SMOOTH",
"534 1231 OFFCURVE",
"556 1262 OFFCURVE",
"652 1262 CURVE SMOOTH",
"804 1262 OFFCURVE",
"914 1147.333 OFFCURVE",
"914 958 CURVE SMOOTH",
"915 765 OFFCURVE",
"827 653 OFFCURVE",
"682 653 CURVE SMOOTH"
);
}
);
width = 1304;
}
);
note = uni0050;
unicode = 0050;
},
{
glyphname = Thorn;
layers = (
{
layerId = "92A672BF-229C-4BEC-8D25-4DDBB2A38145";
paths = (
{
closed = 1;
nodes = (
"480 14 OFFCURVE",
"627 11 OFFCURVE",
"627 60 CURVE SMOOTH",
"627 93 OFFCURVE",
"544 119 OFFCURVE",
"520 155 CURVE SMOOTH",
"508 173 OFFCURVE",
"502 205 OFFCURVE",
"504 237 CURVE SMOOTH",
"506 271 OFFCURVE",
"518 304 OFFCURVE",
"542 316 CURVE SMOOTH",
"552.667 321.333 OFFCURVE",
"603.667 327.333 OFFCURVE",
"695 334 CURVE SMOOTH",
"972 353 OFFCURVE",
"1177 479 OFFCURVE",
"1177 729 CURVE SMOOTH",
"1177 1004 OFFCURVE",
"1028 1100 OFFCURVE",
"739 1131 CURVE SMOOTH",
"606 1145 OFFCURVE",
"514 1139 OFFCURVE",
"514 1204 CURVE SMOOTH",
"514 1279 OFFCURVE",
"618 1293 OFFCURVE",
"618 1340 CURVE SMOOTH",
"618 1378 OFFCURVE",
"581 1382 OFFCURVE",
"415 1381 CURVE SMOOTH",
"252 1381 OFFCURVE",
"132 1395 OFFCURVE",
"132 1334 CURVE SMOOTH",
"132 1302 OFFCURVE",
"242 1273 OFFCURVE",
"256 1223 CURVE SMOOTH",
"270.667 1170.333 OFFCURVE",
"278 998.833 OFFCURVE",
"278 708.5 CURVE SMOOTH",
"278 418.167 OFFCURVE",
"270.667 245.333 OFFCURVE",
"256 190 CURVE SMOOTH",
"242.157 136.934 OFFCURVE",
"135 94.316 OFFCURVE",
"135 53 CURVE SMOOTH",
"135 29.667 OFFCURVE",
"276 6 OFFCURVE",
"353 9 CURVE SMOOTH"
);
},
{
closed = 1;
nodes = (
"524 397 OFFCURVE",
"480 414 OFFCURVE",
"479 484 CURVE SMOOTH",
"478 548 OFFCURVE",
"490 967 OFFCURVE",
"489 1012 CURVE SMOOTH",
"488 1046 OFFCURVE",
"540.667 1060 OFFCURVE",
"620 1060 CURVE SMOOTH",
"813 1060 OFFCURVE",
"925 943 OFFCURVE",
"925 754 CURVE SMOOTH",
"925 521 OFFCURVE",
"824 398 OFFCURVE",
"607 397 CURVE SMOOTH"
);
}
);
width = 1285;
},
{
layerId = "5CBF0BAD-1756-4F16-9711-93DC239D102B";
paths = (
{
closed = 1;
nodes = (
"635.667 -2 OFFCURVE",
"724 15.167 OFFCURVE",
"724 49.5 CURVE SMOOTH",
"724 99 OFFCURVE",
"686 128 OFFCURVE",
"653 159 CURVE SMOOTH",
"627 184 OFFCURVE",
"604 210 OFFCURVE",
"605 248 CURVE SMOOTH",
"606 278 OFFCURVE",
"621 293 OFFCURVE",
"646 302 CURVE SMOOTH",
"681 314 OFFCURVE",
"735 313 OFFCURVE",
"807 317 CURVE SMOOTH",
"1089 334 OFFCURVE",
"1268 460 OFFCURVE",
"1268 729 CURVE SMOOTH",
"1268 970 OFFCURVE",
"1089 1086 OFFCURVE",
"816 1111 CURVE SMOOTH",
"685 1122 OFFCURVE",
"619 1140 OFFCURVE",
"619 1163 CURVE SMOOTH",
"619 1212 OFFCURVE",
"695 1243 OFFCURVE",
"695 1328 CURVE SMOOTH",
"695 1363 OFFCURVE",
"626 1376 OFFCURVE",
"370 1376 CURVE SMOOTH",
"167 1376 OFFCURVE",
"133 1353 OFFCURVE",
"133 1313 CURVE SMOOTH",
"133 1261 OFFCURVE",
"240 1232 OFFCURVE",
"267 1168 CURVE SMOOTH",
"284 1128 OFFCURVE",
"291 901 OFFCURVE",
"290 705 CURVE SMOOTH",
"290 551 OFFCURVE",
"287 297 OFFCURVE",
"277 255.5 CURVE SMOOTH",
"261 186 OFFCURVE",
"151 97 OFFCURVE",
"151 64 CURVE SMOOTH",
"151 2 OFFCURVE",
"189 -3 OFFCURVE",
"459 -2 CURVE SMOOTH"
);
},
{
closed = 1;
nodes = (
"581.333 425 OFFCURVE",
"563 450.667 OFFCURVE",
"563 502 CURVE SMOOTH",
"563 646 OFFCURVE",
"563 790 OFFCURVE",
"563 934 CURVE SMOOTH",
"563 978 OFFCURVE",
"581.667 1000 OFFCURVE",
"619 1000 CURVE SMOOTH",
"838 1000 OFFCURVE",
"929 934 OFFCURVE",
"929 738 CURVE SMOOTH",
"929 503 OFFCURVE",
"860 425 OFFCURVE",
"618 425 CURVE SMOOTH"
);
}
);
width = 1370;
}
);
note = uni00DE;
unicode = 00DE;
},
{
glyphname = Q;
layers = (
{
layerId = "92A672BF-229C-4BEC-8D25-4DDBB2A38145";
paths = (
{
closed = 1;
nodes = (
"1469 -306 OFFCURVE",
"1546 -288 OFFCURVE",
"1546 -233 CURVE SMOOTH",
"1546 -189 OFFCURVE",
"1150 -121 OFFCURVE",
"1150 -34 CURVE SMOOTH",
"1150 -8 OFFCURVE",
"1173 21 OFFCURVE",
"1219 104 CURVE SMOOTH",
"1317 281 OFFCURVE",
"1366 482 OFFCURVE",
"1366 706 CURVE SMOOTH",
"1366 1121 OFFCURVE",
"1131 1419 OFFCURVE",
"735 1419 CURVE SMOOTH",
"330 1419 OFFCURVE",
"79 1144 OFFCURVE",
"79 713 CURVE SMOOTH",
"79 359 OFFCURVE",
"230 211 OFFCURVE",
"351 119 CURVE SMOOTH",
"491 13 OFFCURVE",
"1187 -306 OFFCURVE",
"1351 -306 CURVE SMOOTH"
);
},
{
closed = 1;
nodes = (
"465 83 OFFCURVE",
"292 374 OFFCURVE",
"292 741 CURVE SMOOTH",
"292 1091 OFFCURVE",
"465 1322 OFFCURVE",
"750 1322 CURVE SMOOTH",
"1013 1322 OFFCURVE",
"1192 1067 OFFCURVE",
"1192 678 CURVE SMOOTH",
"1192 362 OFFCURVE",
"1035 83 OFFCURVE",
"752 83 CURVE SMOOTH"
);
}
);
width = 1555;
},
{
layerId = "5CBF0BAD-1756-4F16-9711-93DC239D102B";
paths = (
{
closed = 1;
nodes = (
"1354 -309 OFFCURVE",
"1486 -271 OFFCURVE",
"1486 -199.5 CURVE SMOOTH",
"1486 -140 OFFCURVE",
"1261.815 -110.828 OFFCURVE",
"1172 -57.5 CURVE SMOOTH",
"1118.667 -25.833 OFFCURVE",
"1092 1.667 OFFCURVE",
"1092 25 CURVE SMOOTH",
"1092 72 OFFCURVE",
"1464 194 OFFCURVE",
"1465 695 CURVE SMOOTH",
"1466 1160 OFFCURVE",
"1210 1438 OFFCURVE",
"750 1438 CURVE SMOOTH",
"352 1438 OFFCURVE",
"65 1118 OFFCURVE",
"65 719 CURVE SMOOTH",
"65 400 OFFCURVE",
"209 215 OFFCURVE",
"301 130 CURVE SMOOTH",
"405 34 OFFCURVE",
"1135 -309 OFFCURVE",
"1217 -309 CURVE SMOOTH"
);
},
{
closed = 1;
nodes = (
"531 126 OFFCURVE",
"403 442 OFFCURVE",
"403 699 CURVE SMOOTH",
"403 1040 OFFCURVE",
"512 1291 OFFCURVE",
"750 1291 CURVE SMOOTH",
"1003 1291 OFFCURVE",
"1140 1011 OFFCURVE",
"1140 731 CURVE SMOOTH",
"1140 299 OFFCURVE",
"1025 126 OFFCURVE",
"755 126 CURVE SMOOTH"
);
}
);
width = 1589;
}
);
note = uni0051;
unicode = 0051;
},
{
glyphname = R;
layers = (
{
layerId = "92A672BF-229C-4BEC-8D25-4DDBB2A38145";
paths = (
{
closed = 1;
nodes = (
"1264 -13 OFFCURVE",
"1318 7 OFFCURVE",
"1318 48 CURVE SMOOTH",
"1318 96 OFFCURVE",
"1202 127 OFFCURVE",
"1154 182 CURVE SMOOTH",
"1082 264 OFFCURVE",
"879 566 OFFCURVE",
"879 639 CURVE SMOOTH",
"879 657 OFFCURVE",
"1125 844 OFFCURVE",
"1125 1015 CURVE SMOOTH",
"1125 1286 OFFCURVE",
"920 1388 OFFCURVE",
"626 1394 CURVE SMOOTH",
"345 1400 OFFCURVE",
"114 1397 OFFCURVE",
"114 1350 CURVE SMOOTH",
"114 1301 OFFCURVE",
"208 1298 OFFCURVE",
"230 1247 CURVE SMOOTH",
"253 1194 OFFCURVE",
"264 1072 OFFCURVE",
"259 729 CURVE SMOOTH",
"254 417 OFFCURVE",
"262 265 OFFCURVE",
"245.5 184.5 CURVE SMOOTH",
"238 147 OFFCURVE",
"113 100 OFFCURVE",
"113 60 CURVE SMOOTH",
"113 14 OFFCURVE",
"200 9 OFFCURVE",
"501 3 CURVE SMOOTH",
"561 3 OFFCURVE",
"591 14.333 OFFCURVE",
"591 37 CURVE SMOOTH",
"591 60 OFFCURVE",
"490 133 OFFCURVE",
"478.5 162.5 CURVE SMOOTH",
"468 188 OFFCURVE",
"462 253 OFFCURVE",
"463 356 CURVE SMOOTH",
"464 543 OFFCURVE",
"501 603 OFFCURVE",
"540 603 CURVE SMOOTH",
"672 603 OFFCURVE",
"734 532 OFFCURVE",
"868.5 295 CURVE SMOOTH",
"992 76 OFFCURVE",
"1014 -16 OFFCURVE",
"1200 -13 CURVE SMOOTH"
);
},
{
closed = 1;
nodes = (
"459 707 OFFCURVE",
"454 718 OFFCURVE",
"454 810 CURVE SMOOTH",
"454 1155 LINE SMOOTH",
"454 1252 OFFCURVE",
"452 1298 OFFCURVE",
"519 1298 CURVE SMOOTH",
"795 1298 OFFCURVE",
"924 1228 OFFCURVE",
"924 984 CURVE SMOOTH",
"924 783 OFFCURVE",
"803 707 OFFCURVE",
"538 707 CURVE SMOOTH"
);
}
);
width = 1385;
},
{
layerId = "5CBF0BAD-1756-4F16-9711-93DC239D102B";
paths = (
{
closed = 1;
nodes = (
"1298 -4 OFFCURVE",
"1388 17 OFFCURVE",
"1388 100 CURVE SMOOTH",
"1388 155 OFFCURVE",
"1213 179 OFFCURVE",
"1166 267 CURVE SMOOTH",
"1139 317 OFFCURVE",
"979 576 OFFCURVE",
"979 623 CURVE SMOOTH",
"979 639 OFFCURVE",
"1204 782 OFFCURVE",
"1204 1012 CURVE SMOOTH",
"1204 1267 OFFCURVE",
"999 1386 OFFCURVE",
"592 1386 CURVE SMOOTH",
"351 1386 OFFCURVE",
"101 1396 OFFCURVE",
"101 1322 CURVE SMOOTH",
"101 1288 OFFCURVE",
"209 1207 OFFCURVE",
"225 1130 CURVE SMOOTH",
"235 1084 OFFCURVE",
"240 901 OFFCURVE",
"240 674.5 CURVE SMOOTH",
"240 618 OFFCURVE",
"245 321 OFFCURVE",
"227 235.5 CURVE SMOOTH",
"213 168 OFFCURVE",
"92 132 OFFCURVE",
"92 59 CURVE SMOOTH",
"92 17 OFFCURVE",
"127 0 OFFCURVE",
"473 -1 CURVE SMOOTH",
"582 -1 OFFCURVE",
"636 16.333 OFFCURVE",
"636 51 CURVE SMOOTH",
"636 70 OFFCURVE",
"606 125 OFFCURVE",
"578 180 CURVE SMOOTH",
"553 230 OFFCURVE",
"529 280 OFFCURVE",
"529 306 CURVE SMOOTH",
"529 491 OFFCURVE",
"535 566 OFFCURVE",
"604 566 CURVE SMOOTH",
"712 566 OFFCURVE",
"780 438 OFFCURVE",
"836 303 CURVE SMOOTH",
"897 155 OFFCURVE",
"960 0 OFFCURVE",
"1191 -3 CURVE SMOOTH"
);
},
{
closed = 1;
nodes = (
"526 701 OFFCURVE",
"511 721.667 OFFCURVE",
"511 775 CURVE SMOOTH",
"511 1138 LINE SMOOTH",
"511 1242 OFFCURVE",
"529 1253 OFFCURVE",
"608 1253 CURVE SMOOTH",
"811 1253 OFFCURVE",
"894 1160 OFFCURVE",
"894 948 CURVE SMOOTH",
"894 772 OFFCURVE",
"795 700 OFFCURVE",
"603 701 CURVE SMOOTH"
);
}
);
width = 1429;
}
);
note = uni0052;
unicode = 0052;
},
{
glyphname = S;
layers = (
{
anchors = (
{
name = top;
position = "{602, 1405}";
}
);
layerId = "92A672BF-229C-4BEC-8D25-4DDBB2A38145";
paths = (
{
closed = 1;
nodes = (
"852 -7 OFFCURVE",
"1047 142 OFFCURVE",
"1047 354 CURVE SMOOTH",
"1047 503 OFFCURVE",
"993 586 OFFCURVE",
"885 664 CURVE SMOOTH",
"782 740 OFFCURVE",
"629 811 OFFCURVE",
"427 933 CURVE SMOOTH",
"359 974 OFFCURVE",
"329 1046 OFFCURVE",
"335 1115 CURVE SMOOTH",
"343 1215 OFFCURVE",
"423 1312 OFFCURVE",
"565 1312 CURVE SMOOTH",
"776 1312 OFFCURVE",
"866 1103 OFFCURVE",
"930 1103 CURVE SMOOTH",
"961 1103 OFFCURVE",
"989 1121 OFFCURVE",
"989 1155 CURVE SMOOTH",
"989 1286 OFFCURVE",
"987 1368 OFFCURVE",
"893.5 1368 CURVE SMOOTH",
"829.472 1368 OFFCURVE",
"662.376 1407 OFFCURVE",
"573 1407 CURVE SMOOTH",
"331.667 1407 OFFCURVE",
"140 1269 OFFCURVE",
"140 1053 CURVE SMOOTH",
"140 945 OFFCURVE",
"176 856 OFFCURVE",
"249 786 CURVE SMOOTH",
"381 659 OFFCURVE",
"664 574 OFFCURVE",
"762 496.5 CURVE SMOOTH",
"826 446 OFFCURVE",
"863 384 OFFCURVE",
"859 297 CURVE SMOOTH",
"855 177 OFFCURVE",
"768 91 OFFCURVE",
"577 91 CURVE SMOOTH",
"461 91 OFFCURVE",
"392 149 OFFCURVE",
"345 190 CURVE SMOOTH",
"297 231 OFFCURVE",
"225 384 OFFCURVE",
"189 384 CURVE SMOOTH",
"142 384 OFFCURVE",
"128 334 OFFCURVE",
"128 216 CURVE SMOOTH",
"128 129 OFFCURVE",
"147 76 OFFCURVE",
"186 58 CURVE SMOOTH",
"247 32 OFFCURVE",
"480 -7 OFFCURVE",
"584 -7 CURVE SMOOTH"
);
}
);
width = 1150;
},
{
anchors = (
{
name = top;
position = "{606, 1407}";
}
);
layerId = "5CBF0BAD-1756-4F16-9711-93DC239D102B";
paths = (
{
closed = 1;
nodes = (
"868 -20 OFFCURVE",
"1072 127 OFFCURVE",
"1072 401 CURVE SMOOTH",
"1072 493.667 OFFCURVE",
"1035.667 577 OFFCURVE",
"963 651 CURVE SMOOTH",
"833 783 OFFCURVE",
"621 821 OFFCURVE",
"474 927 CURVE SMOOTH",
"407.333 975 OFFCURVE",
"374 1029.333 OFFCURVE",
"374 1090 CURVE SMOOTH",
"374 1180.667 OFFCURVE",
"455.833 1256 OFFCURVE",
"556.5 1256 CURVE SMOOTH",
"744 1256 OFFCURVE",
"841 1035 OFFCURVE",
"948 1035 CURVE SMOOTH",
"980.667 1035 OFFCURVE",
"997 1083.333 OFFCURVE",
"997 1180 CURVE SMOOTH",
"997 1276.667 OFFCURVE",
"974 1336.667 OFFCURVE",
"928 1360 CURVE SMOOTH",
"862 1393 OFFCURVE",
"744 1407 OFFCURVE",
"533 1407 CURVE SMOOTH",
"310 1407 OFFCURVE",
"112 1252 OFFCURVE",
"112 1025 CURVE SMOOTH",
"112 903.667 OFFCURVE",
"170.667 799.667 OFFCURVE",
"288 713 CURVE SMOOTH",
"386.312 640.802 OFFCURVE",
"659.041 540.885 OFFCURVE",
"742 452 CURVE SMOOTH",
"779.333 412 OFFCURVE",
"798 361 OFFCURVE",
"798 299 CURVE SMOOTH",
"798 216.333 OFFCURVE",
"702.833 131 OFFCURVE",
"579.5 131 CURVE SMOOTH",
"517.833 131 OFFCURVE",
"467.167 142.333 OFFCURVE",
"427.5 165 CURVE SMOOTH",
"387.833 187.667 OFFCURVE",
"193 403 OFFCURVE",
"154 403 CURVE SMOOTH",
"108 403 OFFCURVE",
"97 365 OFFCURVE",
"97 263 CURVE SMOOTH",
"97 153.667 OFFCURVE",
"118.667 84 OFFCURVE",
"162 54 CURVE SMOOTH",
"208.667 22 OFFCURVE",
"428.333 -20 OFFCURVE",
"575 -20 CURVE SMOOTH"
);
}
);
width = 1150;
}
);
note = uni0053;
unicode = 0053;
},
{
glyphname = T;
layers = (
{
layerId = "92A672BF-229C-4BEC-8D25-4DDBB2A38145";
paths = (
{
closed = 1;
nodes = (
"892 -6 OFFCURVE",
"912 8 OFFCURVE",
"912 41 CURVE SMOOTH",
"912 62 OFFCURVE",
"783 138 OFFCURVE",
"777 166 CURVE SMOOTH",
"768 205 OFFCURVE",
"750 607 OFFCURVE",
"751 712 CURVE SMOOTH",
"753 873 OFFCURVE",
"748 1146 OFFCURVE",
"779.5 1225 CURVE SMOOTH",
"804.589 1288.043 OFFCURVE",
"962 1268 OFFCURVE",
"1039 1265 CURVE SMOOTH",
"1085 1263 OFFCURVE",
"1210 1066 OFFCURVE",
"1232 1066 CURVE SMOOTH",
"1250 1066 OFFCURVE",
"1259 1106.333 OFFCURVE",
"1259 1163 CURVE SMOOTH",
"1259 1306 OFFCURVE",
"1239 1386 OFFCURVE",
"1172 1386 CURVE SMOOTH",
"1084 1386 OFFCURVE",
"1006 1391 OFFCURVE",
"620 1392 CURVE SMOOTH",
"284 1392 OFFCURVE",
"110 1389 OFFCURVE",
"98 1383 CURVE SMOOTH",
"66.667 1367 OFFCURVE",
"51 1290.667 OFFCURVE",
"51 1154 CURVE SMOOTH",
"51 1091 OFFCURVE",
"56 1066 OFFCURVE",
"98 1066 CURVE SMOOTH",
"142 1066 OFFCURVE",
"197 1270 OFFCURVE",
"406 1270 CURVE SMOOTH",
"476 1270 OFFCURVE",
"516.5 1253.333 OFFCURVE",
"527.5 1220 CURVE SMOOTH",
"550 1153 OFFCURVE",
"552 949 OFFCURVE",
"551 739 CURVE SMOOTH",
"550 559 OFFCURVE",
"530 252 OFFCURVE",
"519 193 CURVE SMOOTH",
"509 140 OFFCURVE",
"372 76 OFFCURVE",
"380 46 CURVE SMOOTH",
"387 20 OFFCURVE",
"447 -2 OFFCURVE",
"581 -2 CURVE SMOOTH"
);
}
);
width = 1304;
},
{
layerId = "5CBF0BAD-1756-4F16-9711-93DC239D102B";
paths = (
{
closed = 1;
nodes = (
"936 0 OFFCURVE",
"973 10 OFFCURVE",
"973 52.5 CURVE SMOOTH",
"973 92 OFFCURVE",
"830 197 OFFCURVE",
"820 236 CURVE SMOOTH",
"811 273 OFFCURVE",
"799 590 OFFCURVE",
"797 708 CURVE SMOOTH",
"795 844 OFFCURVE",
"804 1077 OFFCURVE",
"813 1144 CURVE SMOOTH",
"820.333 1202 OFFCURVE",
"846 1231 OFFCURVE",
"890 1231 CURVE SMOOTH",
"1096 1231 OFFCURVE",
"1141 1032 OFFCURVE",
"1240 1032 CURVE SMOOTH",
"1282 1032 OFFCURVE",
"1289 1074 OFFCURVE",
"1289 1202 CURVE SMOOTH",
"1289 1359.333 OFFCURVE",
"1265 1386 OFFCURVE",
"1121 1389 CURVE SMOOTH",
"980 1392 OFFCURVE",
"840 1385 OFFCURVE",
"699 1388 CURVE SMOOTH",
"486 1393 OFFCURVE",
"118.5 1385 OFFCURVE",
"97.5 1379 CURVE SMOOTH",
"45 1364 OFFCURVE",
"39 1238 OFFCURVE",
"39 1130 CURVE SMOOTH",
"39 1061 OFFCURVE",
"45 1034 OFFCURVE",
"91 1034 CURVE SMOOTH",
"143 1034 OFFCURVE",
"294 1232 OFFCURVE",
"421 1232 CURVE SMOOTH",
"485 1232 OFFCURVE",
"505.333 1204.833 OFFCURVE",
"516 1149.5 CURVE SMOOTH",
"529 1084 OFFCURVE",
"536 871 OFFCURVE",
"535 666 CURVE SMOOTH",
"535 482 OFFCURVE",
"528 306 OFFCURVE",
"512 246.5 CURVE SMOOTH",
"491 168 OFFCURVE",
"363 123 OFFCURVE",
"363 42 CURVE SMOOTH",
"363 11 OFFCURVE",
"388 -2 OFFCURVE",
"704 -1 CURVE SMOOTH"
);
}
);
width = 1334;
}
);
note = uni0054;
unicode = 0054;
},
{
glyphname = U;
layers = (
{
anchors = (
{
name = top;
position = "{807, 1374}";
}
);
layerId = "92A672BF-229C-4BEC-8D25-4DDBB2A38145";
paths = (
{
closed = 1;
nodes = (
"1219 -11 OFFCURVE",
"1300 225 OFFCURVE",
"1300 662 CURVE SMOOTH",
"1300 909 OFFCURVE",
"1302 1142 OFFCURVE",
"1317 1191 CURVE SMOOTH",
"1326.333 1222.333 OFFCURVE",
"1449 1293 OFFCURVE",
"1449 1328 CURVE SMOOTH",
"1449 1395 OFFCURVE",
"1345 1389 OFFCURVE",
"1232.5 1390 CURVE SMOOTH",
"1150 1391 OFFCURVE",
"1070 1398.232 OFFCURVE",
"1070 1364 CURVE SMOOTH",
"1070 1315 OFFCURVE",
"1149 1258 OFFCURVE",
"1168 1189.5 CURVE SMOOTH",
"1184 1130 OFFCURVE",
"1187 964 OFFCURVE",
"1187 842 CURVE SMOOTH",
"1187 400 OFFCURVE",
"1172 98 OFFCURVE",
"835 98 CURVE SMOOTH",
"423 98 OFFCURVE",
"443 375 OFFCURVE",
"443 877 CURVE SMOOTH",
"443 1059.667 OFFCURVE",
"450 1167 OFFCURVE",
"452 1202 CURVE SMOOTH",
"456 1268 OFFCURVE",
"556 1297 OFFCURVE",
"552 1351 CURVE SMOOTH",
"550 1377 OFFCURVE",
"496.667 1392 OFFCURVE",
"386 1392 CURVE SMOOTH",
"170 1392 OFFCURVE",
"90 1387 OFFCURVE",
"90 1347 CURVE SMOOTH",
"90 1293 OFFCURVE",
"193 1286 OFFCURVE",
"212 1226 CURVE SMOOTH",
"231 1169 OFFCURVE",
"235 989 OFFCURVE",
"236 804 CURVE SMOOTH",
"240 124 OFFCURVE",
"324 -11 OFFCURVE",
"814 -11 CURVE SMOOTH"
);
}
);
width = 1525;
},
{
anchors = (
{
name = top;
position = "{758, 1374}";
}
);
layerId = "5CBF0BAD-1756-4F16-9711-93DC239D102B";
paths = (
{
closed = 1;
nodes = (
"1205 -16 OFFCURVE",
"1312 209 OFFCURVE",
"1312 710 CURVE SMOOTH",
"1309 1007 OFFCURVE",
"1308 1112 OFFCURVE",
"1318 1144.5 CURVE SMOOTH",
"1341 1219 OFFCURVE",
"1444 1223 OFFCURVE",
"1444 1307.5 CURVE SMOOTH",
"1444 1386 OFFCURVE",
"1342 1388 OFFCURVE",
"1211.5 1388 CURVE SMOOTH",
"1059 1388 OFFCURVE",
"1009 1383 OFFCURVE",
"1009 1337 CURVE SMOOTH",
"1009 1291 OFFCURVE",
"1079 1238 OFFCURVE",
"1094 1141 CURVE SMOOTH",
"1108 1053 OFFCURVE",
"1119 921 OFFCURVE",
"1119 746.5 CURVE SMOOTH",
"1119 380 OFFCURVE",
"1097 145 OFFCURVE",
"797 145 CURVE SMOOTH",
"516 145 OFFCURVE",
"501 369 OFFCURVE",
"495 704 CURVE SMOOTH",
"491 880 OFFCURVE",
"499 1054 OFFCURVE",
"508.5 1117.5 CURVE SMOOTH",
"524 1223 OFFCURVE",
"593 1317 OFFCURVE",
"593 1350 CURVE SMOOTH",
"593 1380 OFFCURVE",
"553 1395 OFFCURVE",
"473 1395 CURVE SMOOTH",
"150 1395 OFFCURVE",
"62 1396 OFFCURVE",
"62 1307 CURVE SMOOTH",
"62 1231 OFFCURVE",
"174 1231 OFFCURVE",
"197 1175.5 CURVE SMOOTH",
"208 1150 OFFCURVE",
"207 1115 OFFCURVE",
"204 543 CURVE SMOOTH",
"204 165 OFFCURVE",
"383 -16 OFFCURVE",
"745 -16 CURVE SMOOTH"
);
}
);
width = 1506;
}
);
note = uni0055;
unicode = 0055;
},
{
glyphname = V;
layers = (
{
layerId = "92A672BF-229C-4BEC-8D25-4DDBB2A38145";
paths = (
{
closed = 1;
nodes = (
"761 -4 OFFCURVE",
"804 58 OFFCURVE",
"857 178 CURVE SMOOTH",
"966 425 OFFCURVE",
"1207 1086 OFFCURVE",
"1279 1223 CURVE SMOOTH",
"1295 1254 OFFCURVE",
"1401 1321 OFFCURVE",
"1401 1346 CURVE SMOOTH",
"1401 1383 OFFCURVE",
"1351 1394 OFFCURVE",
"1233 1394 CURVE SMOOTH",
"1091 1394 OFFCURVE",
"1020 1379.667 OFFCURVE",
"1020 1351 CURVE SMOOTH",
"1020 1324 OFFCURVE",
"1104 1256 OFFCURVE",
"1104 1202.5 CURVE SMOOTH",
"1104 1105 OFFCURVE",
"907 556 OFFCURVE",
"847 423 CURVE SMOOTH",
"802.333 323.667 OFFCURVE",
"796 274 OFFCURVE",
"774 274 CURVE SMOOTH",
"747.333 274 OFFCURVE",
"721 327 OFFCURVE",
"663 500 CURVE SMOOTH",
"594 706 OFFCURVE",
"423 1176 OFFCURVE",
"423 1221.5 CURVE SMOOTH",
"423 1262.926 OFFCURVE",
"479 1323.648 OFFCURVE",
"479 1353 CURVE SMOOTH",
"479 1377 OFFCURVE",
"404.667 1389 OFFCURVE",
"256 1389 CURVE SMOOTH",
"107.333 1389 OFFCURVE",
"33 1379 OFFCURVE",
"33 1360 CURVE SMOOTH",
"33 1333 OFFCURVE",
"154 1262 OFFCURVE",
"188.5 1194 CURVE SMOOTH",
"242 1086 OFFCURVE",
"536 255 OFFCURVE",
"590.5 132 CURVE SMOOTH",
"631 41 OFFCURVE",
"653 -4 OFFCURVE",
"727 -4 CURVE SMOOTH"
);
}
);
width = 1424;
},
{
layerId = "5CBF0BAD-1756-4F16-9711-93DC239D102B";
paths = (
{
closed = 1;
nodes = (
"785 -18 OFFCURVE",
"837.167 8.333 OFFCURVE",
"869.5 61 CURVE SMOOTH",
"989 255 OFFCURVE",
"1180 919 OFFCURVE",
"1283 1125 CURVE SMOOTH",
"1311.073 1182.958 OFFCURVE",
"1444 1292.498 OFFCURVE",
"1444 1322 CURVE SMOOTH",
"1444 1377.126 OFFCURVE",
"1379.316 1388 OFFCURVE",
"1266 1388 CURVE SMOOTH",
"1061 1388 OFFCURVE",
"1013 1382 OFFCURVE",
"1013 1330 CURVE SMOOTH",
"1013 1305 OFFCURVE",
"1072 1228 OFFCURVE",
"1072 1190 CURVE SMOOTH",
"1072 1080 OFFCURVE",
"922 622 OFFCURVE",
"878 485 CURVE SMOOTH",
"849 395 OFFCURVE",
"825.333 353 OFFCURVE",
"806 353 CURVE SMOOTH",
"798 353 OFFCURVE",
"778 396.667 OFFCURVE",
"742 484 CURVE SMOOTH",
"684 624 OFFCURVE",
"519 1087 OFFCURVE",
"517 1186 CURVE SMOOTH",
"517 1251 OFFCURVE",
"555 1269 OFFCURVE",
"555 1324 CURVE SMOOTH",
"555 1371 OFFCURVE",
"491 1388 OFFCURVE",
"343 1388 CURVE SMOOTH",
"161 1388 OFFCURVE",
"26 1377 OFFCURVE",
"26 1344 CURVE SMOOTH",
"26 1266 OFFCURVE",
"150.893 1236.792 OFFCURVE",
"192 1148 CURVE SMOOTH",
"207 1114 OFFCURVE",
"563 182 OFFCURVE",
"593 114 CURVE SMOOTH",
"631.667 26 OFFCURVE",
"671.667 -18 OFFCURVE",
"713 -18 CURVE SMOOTH"
);
}
);
width = 1470;
}
);
note = uni0056;
unicode = 0056;
},
{
glyphname = W;
layers = (
{
layerId = "92A672BF-229C-4BEC-8D25-4DDBB2A38145";
paths = (
{
closed = 1;
nodes = (
"674.333 67 OFFCURVE",
"718.333 107.333 OFFCURVE",
"757 188 CURVE SMOOTH",
"811 300 OFFCURVE",
"939 701 OFFCURVE",
"987 823 CURVE SMOOTH",
"1010 882 OFFCURVE",
"1025 911 OFFCURVE",
"1032 911 CURVE SMOOTH",
"1057 911 OFFCURVE",
"1062 860 OFFCURVE",
"1071 841 CURVE SMOOTH",
"1111 757 OFFCURVE",
"1233 298 OFFCURVE",
"1268 213 CURVE SMOOTH",
"1307.333 117 OFFCURVE",
"1349.667 69 OFFCURVE",
"1395 69 CURVE SMOOTH",
"1446.556 69 OFFCURVE",
"1500.451 128.249 OFFCURVE",
"1546 231 CURVE SMOOTH",
"1624.324 407.685 OFFCURVE",
"1758.52 890.052 OFFCURVE",
"1817 1043 CURVE SMOOTH",
"1856 1133 OFFCURVE",
"1952 1265 OFFCURVE",
"1956 1310 CURVE SMOOTH",
"1959 1364 OFFCURVE",
"1896 1386 OFFCURVE",
"1823 1386 CURVE SMOOTH",
"1726.333 1386 OFFCURVE",
"1678 1355 OFFCURVE",
"1678 1293 CURVE SMOOTH",
"1678 1203 OFFCURVE",
"1695 1169 OFFCURVE",
"1695 1137 CURVE SMOOTH",
"1695 1069 OFFCURVE",
"1641.333 871 OFFCURVE",
"1534 543 CURVE SMOOTH",
"1508.667 465 OFFCURVE",
"1483.667 426 OFFCURVE",
"1459 426 CURVE SMOOTH",
"1429 426 OFFCURVE",
"1406.667 443.167 OFFCURVE",
"1392 477.5 CURVE SMOOTH",
"1354 566 OFFCURVE",
"1202 1066 OFFCURVE",
"1202 1120 CURVE SMOOTH",
"1202 1158 OFFCURVE",
"1222 1185 OFFCURVE",
"1222 1234 CURVE SMOOTH",
"1222 1299 OFFCURVE",
"1109 1358 OFFCURVE",
"1025 1356 CURVE SMOOTH",
"940 1354 OFFCURVE",
"838 1303 OFFCURVE",
"838 1221 CURVE SMOOTH",
"838 1156 OFFCURVE",
"884 1100 OFFCURVE",
"884 1045 CURVE SMOOTH",
"884 940 OFFCURVE",
"803 551 OFFCURVE",
"756.5 474.5 CURVE SMOOTH",
"735.5 440.167 OFFCURVE",
"715 423 OFFCURVE",
"695 423 CURVE SMOOTH",
"663.667 423 OFFCURVE",
"633.333 468 OFFCURVE",
"604 558 CURVE SMOOTH",
"496.667 886 OFFCURVE",
"436 1092 OFFCURVE",
"436 1177 CURVE SMOOTH",
"436 1262 OFFCURVE",
"455 1276 OFFCURVE",
"455 1308 CURVE SMOOTH",
"455 1343 OFFCURVE",
"408.667 1380 OFFCURVE",
"210 1380 CURVE SMOOTH",
"153 1380 OFFCURVE",
"100 1343 OFFCURVE",
"100 1305 CURVE SMOOTH",
"100 1284 OFFCURVE",
"218 1079 OFFCURVE",
"245.5 1004.5 CURVE SMOOTH",
"268.5 942.833 OFFCURVE",
"364 617 OFFCURVE",
"432 391 CURVE SMOOTH",
"482 209 OFFCURVE",
"553 67 OFFCURVE",
"625 67 CURVE SMOOTH"
);
}
);
width = 2044;
},
{
layerId = "5CBF0BAD-1756-4F16-9711-93DC239D102B";
paths = (
{
closed = 1;
nodes = (
"707 5 OFFCURVE",
"762 53 OFFCURVE",
"794 112.5 CURVE SMOOTH",
"826 172 OFFCURVE",
"950 575 OFFCURVE",
"1005 755 CURVE SMOOTH",
"1018 796 OFFCURVE",
"1030 817 OFFCURVE",
"1034 817 CURVE SMOOTH",
"1039 817 OFFCURVE",
"1047 800 OFFCURVE",
"1061 764 CURVE SMOOTH",
"1122 607 OFFCURVE",
"1261 183 OFFCURVE",
"1279.5 143 CURVE SMOOTH",
"1321.5 49.667 OFFCURVE",
"1353 10 OFFCURVE",
"1421 10 CURVE SMOOTH",
"1513 10 OFFCURVE",
"1569 85 OFFCURVE",
"1607 184 CURVE SMOOTH",
"1639 284 OFFCURVE",
"1697 479 OFFCURVE",
"1830 932 CURVE SMOOTH",
"1849 993 OFFCURVE",
"1986 1257 OFFCURVE",
"1986 1288 CURVE SMOOTH",
"1986 1336 OFFCURVE",
"1938.667 1360 OFFCURVE",
"1844 1360 CURVE SMOOTH",
"1724 1360 OFFCURVE",
"1597 1310 OFFCURVE",
"1597 1208 CURVE SMOOTH",
"1597 1141 OFFCURVE",
"1621 1077 OFFCURVE",
"1621 1013 CURVE SMOOTH",
"1621 909 OFFCURVE",
"1563 717 OFFCURVE",
"1529 603 CURVE SMOOTH",
"1513 550 OFFCURVE",
"1481 520 OFFCURVE",
"1467 520 CURVE SMOOTH",
"1454 520 OFFCURVE",
"1443 540.333 OFFCURVE",
"1429 581 CURVE SMOOTH",
"1363 769 OFFCURVE",
"1320 886 OFFCURVE",
"1301 978 CURVE SMOOTH",
"1292 1017 OFFCURVE",
"1288 1062 OFFCURVE",
"1288 1101 CURVE SMOOTH",
"1288 1252 OFFCURVE",
"1226 1340 OFFCURVE",
"1087.5 1340 CURVE SMOOTH",
"939 1340 OFFCURVE",
"857 1297 OFFCURVE",
"857 1148 CURVE SMOOTH",
"857 1097 OFFCURVE",
"863 987 OFFCURVE",
"859 941 CURVE SMOOTH",
"845 787 OFFCURVE",
"827 715 OFFCURVE",
"794 629 CURVE SMOOTH",
"778 584 OFFCURVE",
"754 527 OFFCURVE",
"732 527 CURVE SMOOTH",
"718 527 OFFCURVE",
"700 547 OFFCURVE",
"683 579 CURVE SMOOTH",
"632 671 OFFCURVE",
"577 865 OFFCURVE",
"577 978 CURVE SMOOTH",
"577 1075 OFFCURVE",
"588 1148 OFFCURVE",
"577 1203 CURVE SMOOTH",
"552 1330 OFFCURVE",
"441 1369 OFFCURVE",
"181 1369 CURVE SMOOTH",
"111.667 1369 OFFCURVE",
"70 1328.667 OFFCURVE",
"70 1294 CURVE SMOOTH",
"70 1257 OFFCURVE",
"196.667 1059.462 OFFCURVE",
"220 993 CURVE SMOOTH",
"267 847 OFFCURVE",
"474 157 OFFCURVE",
"510 96 CURVE SMOOTH",
"545 36 OFFCURVE",
"594 5 OFFCURVE",
"658 5 CURVE SMOOTH"
);
}
);
width = 2072;
}
);
note = uni0057;
unicode = 0057;
},
{
glyphname = X;
layers = (
{
layerId = "92A672BF-229C-4BEC-8D25-4DDBB2A38145";
paths = (
{
closed = 1;
nodes = (
"404 3 OFFCURVE",
"462 11 OFFCURVE",
"462 45 CURVE SMOOTH",
"462 57 OFFCURVE",
"395 98 OFFCURVE",
"395 123 CURVE SMOOTH",
"395 178 OFFCURVE",
"620 550 OFFCURVE",
"663 550 CURVE SMOOTH",
"709 550 OFFCURVE",
"938 179 OFFCURVE",
"938 133.5 CURVE SMOOTH",
"938 107 OFFCURVE",
"905 75 OFFCURVE",
"898 43 CURVE SMOOTH",
"890 8 OFFCURVE",
"936 3 OFFCURVE",
"1065 3 CURVE SMOOTH",
"1259 3 OFFCURVE",
"1356 17.667 OFFCURVE",
"1356 47 CURVE SMOOTH",
"1356 81 OFFCURVE",
"1212 155 OFFCURVE",
"1174 204 CURVE SMOOTH",
"942 503 OFFCURVE",
"839 691.333 OFFCURVE",
"839 750 CURVE SMOOTH",
"839 808.667 OFFCURVE",
"933.333 954.333 OFFCURVE",
"1122 1187 CURVE SMOOTH",
"1166 1242 OFFCURVE",
"1328 1324 OFFCURVE",
"1328 1352 CURVE SMOOTH",
"1328 1380 OFFCURVE",
"1263 1394 OFFCURVE",
"1133 1394 CURVE SMOOTH",
"1003 1394 OFFCURVE",
"944 1385 OFFCURVE",
"944 1352 CURVE SMOOTH",
"944 1335 OFFCURVE",
"1010 1293 OFFCURVE",
"1010 1270 CURVE SMOOTH",
"1010 1215 OFFCURVE",
"802 883 OFFCURVE",
"759 883 CURVE SMOOTH",
"714 883 OFFCURVE",
"509 1210 OFFCURVE",
"509 1262 CURVE SMOOTH",
"509 1284 OFFCURVE",
"563 1325 OFFCURVE",
"563 1345 CURVE SMOOTH",
"563 1373 OFFCURVE",
"531.333 1387 OFFCURVE",
"468 1387 CURVE SMOOTH",
"197 1384 OFFCURVE",
"93 1376 OFFCURVE",
"93 1340 CURVE SMOOTH",
"93 1312 OFFCURVE",
"222 1259 OFFCURVE",
"260 1214 CURVE SMOOTH",
"327 1134 OFFCURVE",
"598 748 OFFCURVE",
"598 704 CURVE SMOOTH",
"598 639.333 OFFCURVE",
"460 436 OFFCURVE",
"262 187 CURVE SMOOTH",
"217 130 OFFCURVE",
"76 92 OFFCURVE",
"76 37 CURVE SMOOTH",
"76 14 OFFCURVE",
"142.667 3 OFFCURVE",
"276 3 CURVE SMOOTH"
);
}
);
width = 1428;
},
{
layerId = "5CBF0BAD-1756-4F16-9711-93DC239D102B";
paths = (
{
closed = 1;
nodes = (
"440 -1 OFFCURVE",
"516 15 OFFCURVE",
"516 58 CURVE SMOOTH",
"516 85 OFFCURVE",
"469 148 OFFCURVE",
"469 218 CURVE SMOOTH",
"469 269 OFFCURVE",
"630 522 OFFCURVE",
"685 522 CURVE SMOOTH",
"724 522 OFFCURVE",
"894 229 OFFCURVE",
"894 172 CURVE SMOOTH",
"894 126 OFFCURVE",
"864 111 OFFCURVE",
"864 60 CURVE SMOOTH",
"864 6 OFFCURVE",
"905 0 OFFCURVE",
"1106 -1 CURVE SMOOTH",
"1255 -2 OFFCURVE",
"1414 -8 OFFCURVE",
"1414 64 CURVE SMOOTH",
"1414 110 OFFCURVE",
"1281 179 OFFCURVE",
"1237 232 CURVE SMOOTH",
"1170 313 OFFCURVE",
"892 693 OFFCURVE",
"892 732 CURVE SMOOTH",
"892 780 OFFCURVE",
"994 935 OFFCURVE",
"1154 1141 CURVE SMOOTH",
"1216 1221 OFFCURVE",
"1376 1257 OFFCURVE",
"1376 1340 CURVE SMOOTH",
"1376 1374 OFFCURVE",
"1289 1388 OFFCURVE",
"1115 1388 CURVE SMOOTH",
"956 1388 OFFCURVE",
"926 1375 OFFCURVE",
"926 1347 CURVE SMOOTH",
"926 1300 OFFCURVE",
"971 1289 OFFCURVE",
"971 1208 CURVE SMOOTH",
"971 1145 OFFCURVE",
"826 915 OFFCURVE",
"761 915 CURVE SMOOTH",
"745 915 OFFCURVE",
"577 1171.333 OFFCURVE",
"577 1210 CURVE SMOOTH",
"577 1243.038 OFFCURVE",
"609 1292.572 OFFCURVE",
"609 1311 CURVE SMOOTH",
"609 1383 OFFCURVE",
"581 1394 OFFCURVE",
"466 1394 CURVE SMOOTH",
"275 1394 OFFCURVE",
"68 1402 OFFCURVE",
"68 1331 CURVE SMOOTH",
"68 1293 OFFCURVE",
"225 1188 OFFCURVE",
"276 1120 CURVE SMOOTH",
"457.333 877.333 OFFCURVE",
"548 734 OFFCURVE",
"548 689 CURVE SMOOTH",
"548 624 OFFCURVE",
"254 236 OFFCURVE",
"180 177 CURVE SMOOTH",
"96 111.667 OFFCURVE",
"54 71 OFFCURVE",
"54 55 CURVE SMOOTH",
"54 17 OFFCURVE",
"172 -1 OFFCURVE",
"297 -1 CURVE SMOOTH"
);
}
);
width = 1458;
}
);
note = uni0058;
unicode = 0058;
},
{
glyphname = Y;
layers = (
{
anchors = (
{
name = top;
position = "{696, 1393}";
}
);
layerId = "92A672BF-229C-4BEC-8D25-4DDBB2A38145";
paths = (
{
closed = 1;
nodes = (
"858 -7 OFFCURVE",
"923 -14 OFFCURVE",
"923 32 CURVE SMOOTH",
"923 68.531 OFFCURVE",
"834.213 90.412 OFFCURVE",
"802.5 129.5 CURVE SMOOTH",
"788.167 147.167 OFFCURVE",
"781 178 OFFCURVE",
"781 222 CURVE SMOOTH",
"781 640 OFFCURVE",
"863 803 OFFCURVE",
"1119 1184 CURVE SMOOTH",
"1160.46 1245.63 OFFCURVE",
"1294 1317.351 OFFCURVE",
"1294 1360 CURVE SMOOTH",
"1294 1383.333 OFFCURVE",
"1254 1395 OFFCURVE",
"1174 1395 CURVE SMOOTH",
"1012 1395 OFFCURVE",
"933 1383 OFFCURVE",
"933 1349 CURVE SMOOTH",
"933 1321 OFFCURVE",
"973 1282 OFFCURVE",
"973 1247 CURVE SMOOTH",
"973 1166 OFFCURVE",
"770 739 OFFCURVE",
"709 739 CURVE SMOOTH",
"666 739 OFFCURVE",
"438 1193 OFFCURVE",
"438 1258 CURVE SMOOTH",
"438 1278 OFFCURVE",
"492 1325 OFFCURVE",
"492 1341 CURVE SMOOTH",
"492 1370.333 OFFCURVE",
"454 1385 OFFCURVE",
"378 1385 CURVE SMOOTH",
"233 1385 OFFCURVE",
"63 1386 OFFCURVE",
"63 1329.5 CURVE SMOOTH",
"63 1307.833 OFFCURVE",
"82.833 1286.5 OFFCURVE",
"122.5 1265.5 CURVE SMOOTH",
"279 1183 OFFCURVE",
"574 637 OFFCURVE",
"574 386.5 CURVE SMOOTH",
"574 275.5 OFFCURVE",
"568.333 204.667 OFFCURVE",
"557 174 CURVE SMOOTH",
"535.487 115.789 OFFCURVE",
"435 72.909 OFFCURVE",
"435 27 CURVE SMOOTH",
"435 7 OFFCURVE",
"498.333 -3 OFFCURVE",
"625 -3 CURVE SMOOTH"
);
}
);
width = 1340;
},
{
anchors = (
{
name = top;
position = "{736, 1370}";
}
);
layerId = "5CBF0BAD-1756-4F16-9711-93DC239D102B";
paths = (
{
closed = 1;
nodes = (
"939 -23 OFFCURVE",
"980 -15 OFFCURVE",
"980 31 CURVE SMOOTH",
"980 63 OFFCURVE",
"870 129 OFFCURVE",
"870 258 CURVE SMOOTH",
"870 339 OFFCURVE",
"878 428 OFFCURVE",
"893 503 CURVE SMOOTH",
"939 725 OFFCURVE",
"1049 912 OFFCURVE",
"1203 1143 CURVE SMOOTH",
"1258 1227 OFFCURVE",
"1364 1243 OFFCURVE",
"1364 1338 CURVE SMOOTH",
"1364 1372 OFFCURVE",
"1322 1389 OFFCURVE",
"1239 1389 CURVE SMOOTH",
"986 1389 OFFCURVE",
"939 1352 OFFCURVE",
"939 1307 CURVE SMOOTH",
"939 1254 OFFCURVE",
"986 1196 OFFCURVE",
"986 1134 CURVE SMOOTH",
"986 1065 OFFCURVE",
"809 749 OFFCURVE",
"759 749 CURVE SMOOTH",
"718 749 OFFCURVE",
"538 1151 OFFCURVE",
"538 1214 CURVE SMOOTH",
"538 1251 OFFCURVE",
"556 1283 OFFCURVE",
"556 1320 CURVE SMOOTH",
"556 1368 OFFCURVE",
"508.333 1392 OFFCURVE",
"413 1392 CURVE SMOOTH",
"139 1392 OFFCURVE",
"45 1376 OFFCURVE",
"45 1310 CURVE SMOOTH",
"45 1239 OFFCURVE",
"156 1202 OFFCURVE",
"201 1138 CURVE SMOOTH",
"345 932 OFFCURVE",
"582 594 OFFCURVE",
"582 371 CURVE SMOOTH",
"582 292 OFFCURVE",
"574 228 OFFCURVE",
"551 187 CURVE SMOOTH",
"515 122 OFFCURVE",
"438 79 OFFCURVE",
"438 36 CURVE SMOOTH",
"438 -19 OFFCURVE",
"474 -27 OFFCURVE",
"818 -24 CURVE SMOOTH"
);
}
);
width = 1403;
}
);
note = uni0059;
unicode = 0059;
},
{
glyphname = Z;
layers = (
{
anchors = (
{
name = top;
position = "{608, 1395}";
}
);
layerId = "92A672BF-229C-4BEC-8D25-4DDBB2A38145";
paths = (
{
closed = 1;
nodes = (
"943 -7 LINE SMOOTH",
"1053 -7 OFFCURVE",
"1118.333 7.333 OFFCURVE",
"1139 36 CURVE SMOOTH",
"1178 89 OFFCURVE",
"1187 190 OFFCURVE",
"1187 279 CURVE SMOOTH",
"1187 316.333 OFFCURVE",
"1175 335 OFFCURVE",
"1151 335 CURVE SMOOTH",
"1135 335 OFFCURVE",
"1106 297.667 OFFCURVE",
"1064 223 CURVE SMOOTH",
"996 102 OFFCURVE",
"855 100 OFFCURVE",
"645 100 CURVE SMOOTH",
"487.667 100 OFFCURVE",
"409 107.667 OFFCURVE",
"409 123 CURVE SMOOTH",
"409 155 OFFCURVE",
"1146 1203 OFFCURVE",
"1146 1319 CURVE SMOOTH",
"1146 1349 OFFCURVE",
"1111 1379 OFFCURVE",
"1085 1381 CURVE SMOOTH",
"1038 1385 OFFCURVE",
"718 1393 OFFCURVE",
"691 1394 CURVE SMOOTH",
"304 1395 OFFCURVE",
"185 1391 OFFCURVE",
"163 1369 CURVE SMOOTH",
"134.333 1340.333 OFFCURVE",
"120 1259.333 OFFCURVE",
"120 1126 CURVE SMOOTH",
"120 1085.333 OFFCURVE",
"134.333 1065 OFFCURVE",
"163 1065 CURVE SMOOTH",
"185.667 1065 OFFCURVE",
"211.667 1091 OFFCURVE",
"241 1143 CURVE SMOOTH",
"326 1294 OFFCURVE",
"445 1285 OFFCURVE",
"694 1285 CURVE SMOOTH",
"799.333 1285 OFFCURVE",
"852 1272 OFFCURVE",
"852 1243.5 CURVE SMOOTH",
"852 1203 OFFCURVE",
"109 155 OFFCURVE",
"109 58 CURVE SMOOTH",
"109 3 OFFCURVE",
"186 1 OFFCURVE",
"283 1 CURVE SMOOTH"
);
}
);
width = 1273;
},
{
anchors = (
{
name = top;
position = "{612, 1394}";
}
);
layerId = "5CBF0BAD-1756-4F16-9711-93DC239D102B";
paths = (
{
closed = 1;
nodes = (
"1003 -1 LINE SMOOTH",
"1086.333 -1 OFFCURVE",
"1137.333 14.333 OFFCURVE",
"1156 45 CURVE SMOOTH",
"1187.333 96.333 OFFCURVE",
"1203 179.667 OFFCURVE",
"1203 295 CURVE SMOOTH",
"1203 348.333 OFFCURVE",
"1187.333 375 OFFCURVE",
"1156 375 CURVE SMOOTH",
"1125 375 OFFCURVE",
"899 187 OFFCURVE",
"874 180.5 CURVE SMOOTH",
"826 160 OFFCURVE",
"732 148 OFFCURVE",
"645 146 CURVE SMOOTH",
"545 144 OFFCURVE",
"454 157 OFFCURVE",
"454 189 CURVE SMOOTH",
"454 276 OFFCURVE",
"1164 1159 OFFCURVE",
"1164 1308 CURVE SMOOTH",
"1164 1349 OFFCURVE",
"1152 1373 OFFCURVE",
"1129 1380 CURVE SMOOTH",
"1105 1386 OFFCURVE",
"954 1389 OFFCURVE",
"676 1389 CURVE SMOOTH",
"312 1389 OFFCURVE",
"180 1387 OFFCURVE",
"158 1368 CURVE SMOOTH",
"127.333 1342.667 OFFCURVE",
"112 1264.333 OFFCURVE",
"112 1133 CURVE SMOOTH",
"112 1075.667 OFFCURVE",
"128 1047 OFFCURVE",
"160 1047 CURVE SMOOTH",
"181 1047 OFFCURVE",
"227 1064 OFFCURVE",
"275 1100 CURVE SMOOTH",
"365 1168 OFFCURVE",
"481 1243 OFFCURVE",
"643 1245 CURVE SMOOTH",
"719 1246 OFFCURVE",
"785 1230 OFFCURVE",
"785 1190 CURVE SMOOTH",
"785 1117 OFFCURVE",
"82 223 OFFCURVE",
"82 89 CURVE SMOOTH",
"82 8 OFFCURVE",
"132 -1 OFFCURVE",
"231 -1 CURVE SMOOTH"
);
}
);
width = 1278;
}
);
note = uni005A;
unicode = 005A;
},
{
glyphname = a;
layers = (
{
anchors = (
{
name = top;
position = "{534, 972}";
}
);
layerId = "92A672BF-229C-4BEC-8D25-4DDBB2A38145";
paths = (
{
closed = 1;
nodes = (
"430 -20 OFFCURVE",
"628 82 OFFCURVE",
"642 82 CURVE SMOOTH",
"655 82 OFFCURVE",
"752 -9 OFFCURVE",
"791 -9 CURVE SMOOTH",
"850.564 -9 OFFCURVE",
"973 18.778 OFFCURVE",
"973 65 CURVE SMOOTH",
"973 93 OFFCURVE",
"861 131 OFFCURVE",
"844 174 CURVE SMOOTH",
"836 196 OFFCURVE",
"836 350 OFFCURVE",
"836 485 CURVE SMOOTH",
"836 820 OFFCURVE",
"804 974 OFFCURVE",
"503 974 CURVE SMOOTH",
"334 974 OFFCURVE",
"125 911 OFFCURVE",
"125 780 CURVE SMOOTH",
"125 728.969 OFFCURVE",
"157.836 689 OFFCURVE",
"186 689 CURVE SMOOTH",
"314 689 OFFCURVE",
"324 875 OFFCURVE",
"465 875 CURVE SMOOTH",
"566.333 875 OFFCURVE",
"623.333 829.667 OFFCURVE",
"622 731 CURVE SMOOTH",
"618 590 OFFCURVE",
"605 564 OFFCURVE",
"476 531.5 CURVE SMOOTH",
"231 470 OFFCURVE",
"84 421 OFFCURVE",
"84 219 CURVE SMOOTH",
"84 64.333 OFFCURVE",
"176.667 -20 OFFCURVE",
"358 -20 CURVE SMOOTH"
);
},
{
closed = 1;
nodes = (
"283 94 OFFCURVE",
"269 159 OFFCURVE",
"271 262 CURVE SMOOTH",
"273 357 OFFCURVE",
"420 462 OFFCURVE",
"593 462 CURVE SMOOTH",
"629 462 OFFCURVE",
"646 453 OFFCURVE",
"646 421 CURVE SMOOTH",
"646 373 OFFCURVE",
"646 326 OFFCURVE",
"646 278 CURVE SMOOTH",
"646 167 OFFCURVE",
"530 94 OFFCURVE",
"400 94 CURVE SMOOTH"
);
}
);
width = 1050;
},
{
anchors = (
{
name = top;
position = "{560, 979}";
}
);
layerId = "5CBF0BAD-1756-4F16-9711-93DC239D102B";
paths = (
{
closed = 1;
nodes = (
"494 -29 OFFCURVE",
"636 73 OFFCURVE",
"650 73 CURVE SMOOTH",
"678 73 OFFCURVE",
"722 -16 OFFCURVE",
"798 -16 CURVE SMOOTH",
"892 -16 OFFCURVE",
"1051 17 OFFCURVE",
"1051 77 CURVE SMOOTH",
"1051 129 OFFCURVE",
"982 148 OFFCURVE",
"951 171 CURVE SMOOTH",
"928 188 OFFCURVE",
"919 323.667 OFFCURVE",
"919 497 CURVE SMOOTH",
"919 849 OFFCURVE",
"871 980 OFFCURVE",
"538 980 CURVE SMOOTH",
"364 980 OFFCURVE",
"122 903 OFFCURVE",
"122 754 CURVE SMOOTH",
"122 715.333 OFFCURVE",
"156.333 670 OFFCURVE",
"223 670 CURVE SMOOTH",
"367 670 OFFCURVE",
"381 839 OFFCURVE",
"515 839 CURVE SMOOTH",
"581.667 839 OFFCURVE",
"640 793.667 OFFCURVE",
"640 683 CURVE SMOOTH",
"640 587 OFFCURVE",
"590 572 OFFCURVE",
"467 553 CURVE SMOOTH",
"200.333 508.333 OFFCURVE",
"67 399.333 OFFCURVE",
"67 226 CURVE SMOOTH",
"68.333 64.667 OFFCURVE",
"180.667 -29 OFFCURVE",
"354 -29 CURVE SMOOTH"
);
},
{
closed = 1;
nodes = (
"386.667 128 OFFCURVE",
"338 185 OFFCURVE",
"338 253 CURVE SMOOTH",
"338 388 OFFCURVE",
"436 454 OFFCURVE",
"617 454 CURVE SMOOTH",
"635.667 454 OFFCURVE",
"645 439 OFFCURVE",
"645 409 CURVE SMOOTH",
"645 370 OFFCURVE",
"646 330 OFFCURVE",
"646 291 CURVE SMOOTH",
"645 189 OFFCURVE",
"579 128 OFFCURVE",
"448 128 CURVE SMOOTH"
);
}
);
width = 1109;
}
);
note = uni0061;
unicode = 0061;
},
{
glyphname = ae;
layers = (
{
layerId = "92A672BF-229C-4BEC-8D25-4DDBB2A38145";
paths = (
{
closed = 1;
nodes = (
"1215 -9 OFFCURVE",
"1431 76 OFFCURVE",
"1431 173 CURVE SMOOTH",
"1431 192 OFFCURVE",
"1422 202 OFFCURVE",
"1403 202 CURVE SMOOTH",
"1388 202 OFFCURVE",
"1211 111 OFFCURVE",
"1114 111 CURVE SMOOTH",
"947.333 111 OFFCURVE",
"847 231.333 OFFCURVE",
"847 406 CURVE SMOOTH",
"847 444.667 OFFCURVE",
"869.333 469 OFFCURVE",
"914 479 CURVE SMOOTH",
"1000 498 OFFCURVE",
"1347 497 OFFCURVE",
"1413 533 CURVE SMOOTH",
"1439 547 OFFCURVE",
"1452 579 OFFCURVE",
"1452 630 CURVE SMOOTH",
"1452 827 OFFCURVE",
"1302 969 OFFCURVE",
"1075 969 CURVE SMOOTH",
"965.756 969 OFFCURVE",
"818.371 881 OFFCURVE",
"767 881 CURVE SMOOTH",
"740 881 OFFCURVE",
"638 965 OFFCURVE",
"489 965 CURVE SMOOTH",
"338 965 OFFCURVE",
"144 899 OFFCURVE",
"144 766 CURVE SMOOTH",
"144 725 OFFCURVE",
"171 692 OFFCURVE",
"224 692 CURVE SMOOTH",
"343 692 OFFCURVE",
"296 871 OFFCURVE",
"488.5 871 CURVE SMOOTH",
"568 871 OFFCURVE",
"644 797 OFFCURVE",
"644 648 CURVE SMOOTH",
"644 567 OFFCURVE",
"578 549 OFFCURVE",
"480 532 CURVE SMOOTH",
"258 494 OFFCURVE",
"83 424 OFFCURVE",
"83 237 CURVE SMOOTH",
"83 81 OFFCURVE",
"184 -7 OFFCURVE",
"361.5 -7 CURVE SMOOTH",
"539 -7 OFFCURVE",
"682 135 OFFCURVE",
"705 135 CURVE SMOOTH",
"737 135 OFFCURVE",
"852 -9 OFFCURVE",
"1092 -9 CURVE SMOOTH"
);
},
{
closed = 1;
nodes = (
"332 131 OFFCURVE",
"285 164 OFFCURVE",
"285 266 CURVE SMOOTH",
"285 420 OFFCURVE",
"343 460 OFFCURVE",
"617 479 CURVE SMOOTH",
"658 482 OFFCURVE",
"675 435 OFFCURVE",
"678 270 CURVE SMOOTH",
"678 202 OFFCURVE",
"540.667 131 OFFCURVE",
"442 131 CURVE SMOOTH"
);
},
{
closed = 1;
nodes = (
"838 542 OFFCURVE",
"815 556.667 OFFCURVE",
"815 584 CURVE SMOOTH",
"815 746 OFFCURVE",
"906 857 OFFCURVE",
"1031 857 CURVE SMOOTH",
"1163 857 OFFCURVE",
"1232 802 OFFCURVE",
"1232 622 CURVE SMOOTH",
"1232 568 OFFCURVE",
"1189 547 OFFCURVE",
"884 543 CURVE SMOOTH"
);
}
);
width = 1566;
},
{
layerId = "5CBF0BAD-1756-4F16-9711-93DC239D102B";
paths = (
{
closed = 1;
nodes = (
"1235 -21 OFFCURVE",
"1447 45 OFFCURVE",
"1447 153 CURVE SMOOTH",
"1447 182 OFFCURVE",
"1425 210 OFFCURVE",
"1405 207 CURVE SMOOTH",
"1343 198 OFFCURVE",
"1244 152 OFFCURVE",
"1166 152 CURVE SMOOTH",
"1016 152 OFFCURVE",
"909 248 OFFCURVE",
"909 380 CURVE SMOOTH",
"909 418 OFFCURVE",
"929 442.333 OFFCURVE",
"969 453 CURVE SMOOTH",
"1014 467 OFFCURVE",
"1357 471 OFFCURVE",
"1424 493 CURVE SMOOTH",
"1467.333 507.667 OFFCURVE",
"1489 547 OFFCURVE",
"1489 611 CURVE SMOOTH",
"1489 812 OFFCURVE",
"1317 987 OFFCURVE",
"1107 987 CURVE SMOOTH",
"970 987 OFFCURVE",
"843 908 OFFCURVE",
"802 908 CURVE SMOOTH",
"741 908 OFFCURVE",
"696 983 OFFCURVE",
"477.5 983 CURVE SMOOTH",
"299 983 OFFCURVE",
"117 886 OFFCURVE",
"120 794 CURVE SMOOTH",
"122 726 OFFCURVE",
"157.333 689 OFFCURVE",
"232 689 CURVE SMOOTH",
"337 689 OFFCURVE",
"368 839 OFFCURVE",
"482 839 CURVE SMOOTH",
"574.667 839 OFFCURVE",
"621 783.333 OFFCURVE",
"621 672 CURVE SMOOTH",
"621 581 OFFCURVE",
"564 578 OFFCURVE",
"446 559 CURVE SMOOTH",
"235 524 OFFCURVE",
"67 433 OFFCURVE",
"62 252 CURVE SMOOTH",
"55 91 OFFCURVE",
"176 -18 OFFCURVE",
"350 -18 CURVE SMOOTH",
"600 -18 OFFCURVE",
"620 99 OFFCURVE",
"706 97 CURVE SMOOTH",
"779 97 OFFCURVE",
"899 -21 OFFCURVE",
"1099.5 -21 CURVE SMOOTH"
);
},
{
closed = 1;
nodes = (
"378 136 OFFCURVE",
"324 189 OFFCURVE",
"324 261 CURVE SMOOTH",
"324 388 OFFCURVE",
"400 450 OFFCURVE",
"581 456 CURVE SMOOTH",
"614.333 456 OFFCURVE",
"631 414.667 OFFCURVE",
"631 332 CURVE SMOOTH",
"633 177 OFFCURVE",
"591 136 OFFCURVE",
"446 136 CURVE SMOOTH"
);
},
{
closed = 1;
nodes = (
"915.667 575 OFFCURVE",
"902 585.333 OFFCURVE",
"902 606 CURVE SMOOTH",
"905 761 OFFCURVE",
"969 852 OFFCURVE",
"1073 852 CURVE SMOOTH",
"1166 852 OFFCURVE",
"1234 776 OFFCURVE",
"1234 651 CURVE SMOOTH",
"1234 581 OFFCURVE",
"1149 579 OFFCURVE",
"943 575 CURVE SMOOTH"
);
}
);
width = 1586;
}
);
note = uni00E6;
unicode = 00E6;
},
{
glyphname = b;
layers = (
{
layerId = "92A672BF-229C-4BEC-8D25-4DDBB2A38145";
paths = (
{
closed = 1;
nodes = (
"878 -13 OFFCURVE",
"1048 201 OFFCURVE",
"1048 474 CURVE SMOOTH",
"1048 757 OFFCURVE",
"897 945 OFFCURVE",
"676 945 CURVE SMOOTH",
"519 945 OFFCURVE",
"428 877 OFFCURVE",
"397 877 CURVE SMOOTH",
"370.333 877 OFFCURVE",
"357 956.167 OFFCURVE",
"357 1114.5 CURVE SMOOTH",
"357 1325 OFFCURVE",
"375 1455 OFFCURVE",
"264 1455 CURVE SMOOTH",
"193 1455 OFFCURVE",
"47 1433 OFFCURVE",
"47 1402 CURVE SMOOTH",
"47 1355 OFFCURVE",
"130 1346 OFFCURVE",
"151 1306 CURVE SMOOTH",
"183 1245 OFFCURVE",
"174 1126 OFFCURVE",
"170 697 CURVE SMOOTH",
"165 243 OFFCURVE",
"154 181 OFFCURVE",
"154 124 CURVE SMOOTH",
"154 56 OFFCURVE",
"180 22 OFFCURVE",
"232 22 CURVE SMOOTH",
"256 22 OFFCURVE",
"276 33 OFFCURVE",
"311 33 CURVE SMOOTH",
"418 33 OFFCURVE",
"482 -13 OFFCURVE",
"612 -13 CURVE SMOOTH"
);
},
{
closed = 1;
nodes = (
"392 72 OFFCURVE",
"359 139 OFFCURVE",
"357 358 CURVE SMOOTH",
"353 765 OFFCURVE",
"412 860 OFFCURVE",
"602 860 CURVE SMOOTH",
"752 860 OFFCURVE",
"845 715 OFFCURVE",
"846 458 CURVE SMOOTH",
"846 278 OFFCURVE",
"766 72 OFFCURVE",
"605 72 CURVE SMOOTH"
);
}
);
width = 1149;
},
{
layerId = "5CBF0BAD-1756-4F16-9711-93DC239D102B";
paths = (
{
closed = 1;
nodes = (
"912 -20 OFFCURVE",
"1114 206 OFFCURVE",
"1114 504 CURVE SMOOTH",
"1114 758.667 OFFCURVE",
"962 964 OFFCURVE",
"721 964 CURVE SMOOTH",
"604 964 OFFCURVE",
"509 913 OFFCURVE",
"474 913 CURVE SMOOTH",
"444 913 OFFCURVE",
"435 996 OFFCURVE",
"435 1163 CURVE SMOOTH",
"435 1412 OFFCURVE",
"410 1455 OFFCURVE",
"336 1455 CURVE SMOOTH",
"185 1455 OFFCURVE",
"47 1414 OFFCURVE",
"47 1361 CURVE SMOOTH",
"47 1311 OFFCURVE",
"158 1258 OFFCURVE",
"163 1202 CURVE SMOOTH",
"166 1164 OFFCURVE",
"174 865 OFFCURVE",
"173 607 CURVE SMOOTH",
"172 326 OFFCURVE",
"134 243 OFFCURVE",
"133 107 CURVE SMOOTH",
"133 50 OFFCURVE",
"156 0 OFFCURVE",
"230 0 CURVE SMOOTH",
"268 0 OFFCURVE",
"307 18 OFFCURVE",
"354 18 CURVE SMOOTH",
"387 18 OFFCURVE",
"590 -20 OFFCURVE",
"630 -20 CURVE SMOOTH"
);
},
{
closed = 1;
nodes = (
"448 110 OFFCURVE",
"432 141 OFFCURVE",
"424 485 CURVE SMOOTH",
"424 700 OFFCURVE",
"436 835 OFFCURVE",
"599 835 CURVE SMOOTH",
"757 835 OFFCURVE",
"825 702 OFFCURVE",
"825 434 CURVE SMOOTH",
"825 251.333 OFFCURVE",
"734.333 110 OFFCURVE",
"629 110 CURVE SMOOTH"
);
}
);
width = 1200;
}
);
note = uni0062;
unicode = 0062;
},
{
glyphname = c;
layers = (
{
layerId = "92A672BF-229C-4BEC-8D25-4DDBB2A38145";
paths = (
{
closed = 1;
nodes = (
"715.667 -18 OFFCURVE",
"888 86.333 OFFCURVE",
"888 153 CURVE SMOOTH",
"888 178 OFFCURVE",
"882 189 OFFCURVE",
"864 189 CURVE SMOOTH",
"827 189 OFFCURVE",
"685 93 OFFCURVE",
"600 93 CURVE SMOOTH",
"396 93 OFFCURVE",
"283 242.5 OFFCURVE",
"283 476.5 CURVE SMOOTH",
"283 703 OFFCURVE",
"380 871 OFFCURVE",
"529 871 CURVE SMOOTH",
"682 871 OFFCURVE",
"721 682 OFFCURVE",
"813 682 CURVE SMOOTH",
"864 682 OFFCURVE",
"886 738 OFFCURVE",
"887 804 CURVE SMOOTH",
"887 925 OFFCURVE",
"731 967 OFFCURVE",
"582 967 CURVE SMOOTH",
"276 967 OFFCURVE",
"86 763 OFFCURVE",
"86 458.5 CURVE SMOOTH",
"86 157 OFFCURVE",
"247 -18 OFFCURVE",
"569 -18 CURVE SMOOTH"
);
}
);
width = 973;
},
{
layerId = "5CBF0BAD-1756-4F16-9711-93DC239D102B";
paths = (
{
closed = 1;
nodes = (
"687 -20 OFFCURVE",
"927 74 OFFCURVE",
"927 159.5 CURVE SMOOTH",
"927 195.167 OFFCURVE",
"914 213 OFFCURVE",
"888 213 CURVE SMOOTH",
"858 213 OFFCURVE",
"680 153 OFFCURVE",
"615 153 CURVE SMOOTH",
"449 153 OFFCURVE",
"347 304 OFFCURVE",
"347 491 CURVE SMOOTH",
"348 668 OFFCURVE",
"403 835 OFFCURVE",
"547 835 CURVE SMOOTH",
"671 835 OFFCURVE",
"721 677 OFFCURVE",
"830 677 CURVE SMOOTH",
"888.667 677 OFFCURVE",
"918 723.333 OFFCURVE",
"918 816 CURVE SMOOTH",
"918 950 OFFCURVE",
"749 984 OFFCURVE",
"564 984 CURVE SMOOTH",
"279 984 OFFCURVE",
"72 771 OFFCURVE",
"72 457 CURVE SMOOTH",
"72 188 OFFCURVE",
"267 -20 OFFCURVE",
"532 -20 CURVE SMOOTH"
);
}
);
width = 1005;
}
);
note = uni0063;
unicode = 0063;
},
{
glyphname = ccedilla;
layers = (
{
layerId = "92A672BF-229C-4BEC-8D25-4DDBB2A38145";
paths = (
{
closed = 1;
nodes = (
"571 -430 OFFCURVE",
"714 -341 OFFCURVE",
"714 -247 CURVE SMOOTH",
"714 -226 OFFCURVE",
"695 -202 OFFCURVE",
"620 -120 CURVE SMOOTH",
"594.667 -92 OFFCURVE",
"574.333 -69.667 OFFCURVE",
"559 -53 CURVE",
"663 -42 OFFCURVE",
"834 31 OFFCURVE",
"834 112 CURVE SMOOTH",
"834 139.333 OFFCURVE",
"818 153 OFFCURVE",
"786 153 CURVE SMOOTH",
"772 153 OFFCURVE",
"639 73 OFFCURVE",
"557 73 CURVE SMOOTH",
"377 73 OFFCURVE",
"273 205.833 OFFCURVE",
"273 418.5 CURVE SMOOTH",
"273 631.167 OFFCURVE",
"358 759 OFFCURVE",
"498 759 CURVE SMOOTH",
"659 759 OFFCURVE",
"671 593 OFFCURVE",
"774 593 CURVE SMOOTH",
"812.667 593 OFFCURVE",
"832 630 OFFCURVE",
"832 704 CURVE SMOOTH",
"832 835 OFFCURVE",
"684 867 OFFCURVE",
"504 867 CURVE SMOOTH",
"260 867 OFFCURVE",
"97 656 OFFCURVE",
"97 397 CURVE SMOOTH",
"100 162 OFFCURVE",
"226 -26 OFFCURVE",
"458 -52 CURVE",
"454.667 -58 OFFCURVE",
"453 -62.667 OFFCURVE",
"453 -66 CURVE SMOOTH",
"453 -72 OFFCURVE",
"462.167 -88.833 OFFCURVE",
"480.5 -116.5 CURVE SMOOTH",
"498.833 -144.167 OFFCURVE",
"508 -164 OFFCURVE",
"508 -176 CURVE SMOOTH",
"506 -262 OFFCURVE",
"461 -317 OFFCURVE",
"399 -317 CURVE SMOOTH",
"375 -317 OFFCURVE",
"363 -338.667 OFFCURVE",
"363 -382 CURVE SMOOTH",
"363 -423 OFFCURVE",
"392 -430 OFFCURVE",
"477 -430 CURVE SMOOTH"
);
}
);
width = 983;
},
{
layerId = "5CBF0BAD-1756-4F16-9711-93DC239D102B";
paths = (
{
closed = 1;
nodes = (
"649 -448 OFFCURVE",
"749 -370 OFFCURVE",
"750 -242 CURVE SMOOTH",
"750 -178 OFFCURVE",
"708 -135 OFFCURVE",
"641.5 -102.5 CURVE SMOOTH",
"600 -82 OFFCURVE",
"587 -52 OFFCURVE",
"586 -34 CURVE",
"768 -34 OFFCURVE",
"971 77.333 OFFCURVE",
"971 172 CURVE SMOOTH",
"971 205.333 OFFCURVE",
"947 222 OFFCURVE",
"899 222 CURVE SMOOTH",
"849 222 OFFCURVE",
"698 173 OFFCURVE",
"649 173 CURVE SMOOTH",
"483.667 173 OFFCURVE",
"384 296.333 OFFCURVE",
"384 495 CURVE SMOOTH",
"384 693.667 OFFCURVE",
"456.5 815 OFFCURVE",
"570.5 815 CURVE SMOOTH",
"686 815 OFFCURVE",
"767 652 OFFCURVE",
"865.5 652 CURVE SMOOTH",
"952.833 652 OFFCURVE",
"966 673 OFFCURVE",
"966 756 CURVE SMOOTH",
"966 930 OFFCURVE",
"900 974 OFFCURVE",
"573 974 CURVE SMOOTH",
"274 974 OFFCURVE",
"55 769 OFFCURVE",
"55 477 CURVE SMOOTH",
"55 196 OFFCURVE",
"255 -31 OFFCURVE",
"495 -31 CURVE",
"495 -50 OFFCURVE",
"467 -78.667 OFFCURVE",
"467 -132 CURVE SMOOTH",
"467 -154 OFFCURVE",
"484 -172 OFFCURVE",
"518 -187 CURVE SMOOTH",
"552 -201 OFFCURVE",
"569 -221 OFFCURVE",
"569 -246 CURVE SMOOTH",
"569 -306 OFFCURVE",
"530 -336 OFFCURVE",
"452 -336 CURVE SMOOTH",
"391 -336 OFFCURVE",
"366 -346 OFFCURVE",
"366 -393 CURVE SMOOTH",
"366 -448 OFFCURVE",
"431 -448 OFFCURVE",
"513 -448 CURVE"
);
}
);
width = 1067;
}
);
note = uni00E7;
unicode = 00E7;
},
{
glyphname = d;
layers = (
{
layerId = "92A672BF-229C-4BEC-8D25-4DDBB2A38145";
paths = (
{
closed = 1;
nodes = (
"629 -18 OFFCURVE",
"725 81 OFFCURVE",
"765 81 CURVE SMOOTH",
"775 81 OFFCURVE",
"831 -8 OFFCURVE",
"906 -8 CURVE SMOOTH",
"969 -8 OFFCURVE",
"1076 8 OFFCURVE",
"1076 63 CURVE SMOOTH",
"1076 97 OFFCURVE",
"974 124 OFFCURVE",
"964 184 CURVE SMOOTH",
"959 213 OFFCURVE",
"956 426 OFFCURVE",
"956 805 CURVE SMOOTH",
"956 1017 OFFCURVE",
"955 1272 OFFCURVE",
"956 1368 CURVE SMOOTH",
"957 1426 OFFCURVE",
"907 1462 OFFCURVE",
"874 1462 CURVE SMOOTH",
"734 1462 OFFCURVE",
"647 1439 OFFCURVE",
"647 1399 CURVE SMOOTH",
"647 1364.185 OFFCURVE",
"732.03 1344.237 OFFCURVE",
"755 1301 CURVE SMOOTH",
"766 1280 OFFCURVE",
"773 1196 OFFCURVE",
"773 1118 CURVE SMOOTH",
"773 1000 OFFCURVE",
"759 941 OFFCURVE",
"713 941 CURVE SMOOTH",
"674 941 OFFCURVE",
"620 956 OFFCURVE",
"570 955 CURVE SMOOTH",
"262 948 OFFCURVE",
"90 752.667 OFFCURVE",
"90 442 CURVE SMOOTH",
"90 202 OFFCURVE",
"221 -18 OFFCURVE",
"444 -18 CURVE SMOOTH"
);
},
{
closed = 1;
nodes = (
"372.333 88 OFFCURVE",
"274 243.667 OFFCURVE",
"274 445 CURVE SMOOTH",
"276 724 OFFCURVE",
"363 872 OFFCURVE",
"534 872 CURVE SMOOTH",
"752 872 OFFCURVE",
"761 814 OFFCURVE",
"761 429 CURVE SMOOTH",
"761 169 OFFCURVE",
"703 88 OFFCURVE",
"515 88 CURVE SMOOTH"
);
}
);
width = 1176;
},
{
layerId = "5CBF0BAD-1756-4F16-9711-93DC239D102B";
paths = (
{
closed = 1;
nodes = (
"629 -26 OFFCURVE",
"697 57 OFFCURVE",
"761 57 CURVE SMOOTH",
"788 57 OFFCURVE",
"796 -15 OFFCURVE",
"871 -15 CURVE SMOOTH",
"1013 -15 OFFCURVE",
"1150 -2 OFFCURVE",
"1150 84 CURVE SMOOTH",
"1150 122 OFFCURVE",
"1051 150 OFFCURVE",
"1035 257.5 CURVE SMOOTH",
"1029 300 OFFCURVE",
"1011 487 OFFCURVE",
"1019 820 CURVE SMOOTH",
"1023 980 OFFCURVE",
"1026 1104 OFFCURVE",
"1027 1304 CURVE SMOOTH",
"1028 1440 OFFCURVE",
"985 1465 OFFCURVE",
"883 1465 CURVE SMOOTH",
"802 1465 OFFCURVE",
"618 1426 OFFCURVE",
"618 1373 CURVE SMOOTH",
"618 1361 OFFCURVE",
"637 1341 OFFCURVE",
"675 1308 CURVE SMOOTH",
"726 1263 OFFCURVE",
"751 1182 OFFCURVE",
"751 1065 CURVE SMOOTH",
"751 993 OFFCURVE",
"735 957 OFFCURVE",
"704 957 CURVE SMOOTH",
"661 957 OFFCURVE",
"634 964 OFFCURVE",
"552 964 CURVE SMOOTH",
"255 964 OFFCURVE",
"83 748 OFFCURVE",
"83 425 CURVE SMOOTH",
"83 188 OFFCURVE",
"245 -26 OFFCURVE",
"469 -26 CURVE SMOOTH"
);
},
{
closed = 1;
nodes = (
"432 124 OFFCURVE",
"341 258 OFFCURVE",
"341 451 CURVE SMOOTH",
"341 700 OFFCURVE",
"417 843 OFFCURVE",
"568 843 CURVE SMOOTH",
"704 843 OFFCURVE",
"741 773.667 OFFCURVE",
"741 543 CURVE SMOOTH",
"741 196 OFFCURVE",
"725 124 OFFCURVE",
"576 124 CURVE SMOOTH"
);
}
);
width = 1218;
}
);
note = uni0064;
unicode = 0064;
},
{
glyphname = eth;
layers = (
{
layerId = "92A672BF-229C-4BEC-8D25-4DDBB2A38145";
paths = (
{
closed = 1;
nodes = (
"853 -29 OFFCURVE",
"1024 178 OFFCURVE",
"1023 504 CURVE SMOOTH",
"1022 908 OFFCURVE",
"789 1189 OFFCURVE",
"789 1220 CURVE SMOOTH",
"789 1262 OFFCURVE",
"825 1308 OFFCURVE",
"825 1349 CURVE SMOOTH",
"825 1376.333 OFFCURVE",
"808.333 1390 OFFCURVE",
"775 1390 CURVE SMOOTH",
"728 1390 OFFCURVE",
"667 1360 OFFCURVE",
"612 1360 CURVE SMOOTH",
"542 1360 OFFCURVE",
"465 1426 OFFCURVE",
"383 1426 CURVE SMOOTH",
"327 1426 OFFCURVE",
"306 1417 OFFCURVE",
"308 1395 CURVE SMOOTH",
"308 1352 OFFCURVE",
"445 1289 OFFCURVE",
"445 1245.5 CURVE SMOOTH",
"445 1202 OFFCURVE",
"380 1185 OFFCURVE",
"380 1145 CURVE SMOOTH",
"380 1109 OFFCURVE",
"446 1100 OFFCURVE",
"542 1100 CURVE SMOOTH",
"644 1100 OFFCURVE",
"719 1037 OFFCURVE",
"719 941 CURVE SMOOTH",
"719 908 OFFCURVE",
"697 898 OFFCURVE",
"585 901 CURVE SMOOTH",
"270 901 OFFCURVE",
"106 733 OFFCURVE",
"106 406 CURVE SMOOTH",
"106 155 OFFCURVE",
"285 -29 OFFCURVE",
"546 -29 CURVE SMOOTH"
);
},
{
closed = 1;
nodes = (
"413.667 51 OFFCURVE",
"313 197.667 OFFCURVE",
"313 431 CURVE SMOOTH",
"313 712 OFFCURVE",
"391 855 OFFCURVE",
"549 855 CURVE SMOOTH",
"736 855 OFFCURVE",
"818 704 OFFCURVE",
"818 494 CURVE SMOOTH",
"818 211 OFFCURVE",
"730 51 OFFCURVE",
"543 51 CURVE SMOOTH"
);
}
);
width = 1152;
},
{
layerId = "5CBF0BAD-1756-4F16-9711-93DC239D102B";
paths = (
{
closed = 1;
nodes = (
"916 -32 OFFCURVE",
"1114 175 OFFCURVE",
"1113 521 CURVE SMOOTH",
"1112 940 OFFCURVE",
"894 1169 OFFCURVE",
"894 1227.5 CURVE SMOOTH",
"894 1253 OFFCURVE",
"916 1289 OFFCURVE",
"914 1327 CURVE SMOOTH",
"911 1364 OFFCURVE",
"891 1415 OFFCURVE",
"850.5 1415 CURVE SMOOTH",
"811 1415 OFFCURVE",
"720 1382 OFFCURVE",
"669.5 1382 CURVE SMOOTH",
"647.167 1382 OFFCURVE",
"471 1437 OFFCURVE",
"418 1437 CURVE SMOOTH",
"343 1437 OFFCURVE",
"305 1416.667 OFFCURVE",
"305 1376 CURVE SMOOTH",
"305 1330 OFFCURVE",
"447 1268 OFFCURVE",
"447 1237 CURVE SMOOTH",
"447 1193 OFFCURVE",
"375 1161 OFFCURVE",
"375 1117 CURVE SMOOTH",
"375 1041.382 OFFCURVE",
"496.888 1097 OFFCURVE",
"558 1097 CURVE SMOOTH",
"639.333 1097 OFFCURVE",
"715 1042.667 OFFCURVE",
"715 972 CURVE SMOOTH",
"715 929 OFFCURVE",
"688 926 OFFCURVE",
"598 928 CURVE SMOOTH",
"296 928 OFFCURVE",
"120 741 OFFCURVE",
"120 441 CURVE SMOOTH",
"120 214 OFFCURVE",
"266 -32 OFFCURVE",
"567 -32 CURVE SMOOTH"
);
},
{
closed = 1;
nodes = (
"478 100 OFFCURVE",
"386 256.333 OFFCURVE",
"386 443 CURVE SMOOTH",
"386 668 OFFCURVE",
"460 811 OFFCURVE",
"579 811 CURVE SMOOTH",
"734 811 OFFCURVE",
"794 718 OFFCURVE",
"798 460 CURVE SMOOTH",
"798 234 OFFCURVE",
"732 100 OFFCURVE",
"598 100 CURVE SMOOTH"
);
}
);
width = 1236;
}
);
note = uni00F0;
unicode = 00F0;
},
{
glyphname = e;
layers = (
{
anchors = (
{
name = top;
position = "{510, 972}";
}
);
layerId = "92A672BF-229C-4BEC-8D25-4DDBB2A38145";
paths = (
{
closed = 1;
nodes = (
"700 -19 OFFCURVE",
"894 63 OFFCURVE",
"894 157 CURVE SMOOTH",
"894 179 OFFCURVE",
"882.333 190 OFFCURVE",
"859 190 CURVE SMOOTH",
"831 190 OFFCURVE",
"691 100 OFFCURVE",
"600 100 CURVE SMOOTH",
"407 100 OFFCURVE",
"277 213.667 OFFCURVE",
"277 399 CURVE SMOOTH",
"277 476 OFFCURVE",
"376 487 OFFCURVE",
"590.5 498 CURVE SMOOTH",
"797 509 OFFCURVE",
"914 522 OFFCURVE",
"914 631 CURVE SMOOTH",
"914 847 OFFCURVE",
"769 972 OFFCURVE",
"532 972 CURVE SMOOTH",
"286 972 OFFCURVE",
"77 744 OFFCURVE",
"77 487 CURVE SMOOTH",
"77 165 OFFCURVE",
"236 -19 OFFCURVE",
"552 -19 CURVE SMOOTH"
);
},
{
closed = 1;
nodes = (
"310 567 OFFCURVE",
"283 576 OFFCURVE",
"283 610 CURVE SMOOTH",
"285 762 OFFCURVE",
"392 883 OFFCURVE",
"516 883 CURVE SMOOTH",
"645 883 OFFCURVE",
"725 794 OFFCURVE",
"725 663 CURVE SMOOTH",
"725 601 OFFCURVE",
"701 594 OFFCURVE",
"622 585 CURVE SMOOTH",
"354 567 LINE SMOOTH"
);
}
);
width = 1015;
},
{
anchors = (
{
name = top;
position = "{530, 987}";
}
);
layerId = "5CBF0BAD-1756-4F16-9711-93DC239D102B";
paths = (
{
closed = 1;
nodes = (
"739.667 -21 OFFCURVE",
"936 78.667 OFFCURVE",
"936 156 CURVE SMOOTH",
"936 188.667 OFFCURVE",
"921 205 OFFCURVE",
"891 205 CURVE SMOOTH",
"867 205 OFFCURVE",
"686 149 OFFCURVE",
"634 149 CURVE SMOOTH",
"489 149 OFFCURVE",
"362 244 OFFCURVE",
"362 377 CURVE SMOOTH",
"362 439.667 OFFCURVE",
"388 463 OFFCURVE",
"492 463 CURVE SMOOTH",
"874 463 OFFCURVE",
"969 483 OFFCURVE",
"969 621 CURVE SMOOTH",
"969 824 OFFCURVE",
"788 987 OFFCURVE",
"572 987 CURVE SMOOTH",
"271 987 OFFCURVE",
"71 787 OFFCURVE",
"71 491 CURVE SMOOTH",
"71 169 OFFCURVE",
"241 -21 OFFCURVE",
"569 -21 CURVE SMOOTH"
);
},
{
closed = 1;
nodes = (
"356 578 OFFCURVE",
"350 592 OFFCURVE",
"350 631 CURVE SMOOTH",
"350 752.333 OFFCURVE",
"444 853 OFFCURVE",
"528 853 CURVE SMOOTH",
"647 853 OFFCURVE",
"715 785 OFFCURVE",
"715 643 CURVE SMOOTH",
"715 607.667 OFFCURVE",
"698 590 OFFCURVE",
"664 590 CURVE SMOOTH",
"391 578 LINE SMOOTH"
);
}
);
width = 1050;
}
);
note = uni0065;
unicode = 0065;
},
{
glyphname = f;
layers = (
{
layerId = "92A672BF-229C-4BEC-8D25-4DDBB2A38145";
paths = (
{
closed = 1;
nodes = (
"522 -27 OFFCURVE",
"562 -15.667 OFFCURVE",
"562 7 CURVE SMOOTH",
"562 36 OFFCURVE",
"447 94 OFFCURVE",
"433 137 CURVE SMOOTH",
"422 171 OFFCURVE",
"416 329 OFFCURVE",
"419 480 CURVE SMOOTH",
"421 613 OFFCURVE",
"430 741 OFFCURVE",
"447 776 CURVE SMOOTH",
"474 832 OFFCURVE",
"624 841 OFFCURVE",
"624 884 CURVE SMOOTH",
"624 922 OFFCURVE",
"491.448 966.552 OFFCURVE",
"468 990 CURVE SMOOTH",
"424 1030 OFFCURVE",
"419 1120 OFFCURVE",
"438 1205 CURVE SMOOTH",
"452 1273 OFFCURVE",
"482 1354 OFFCURVE",
"541 1354 CURVE SMOOTH",
"618 1354 OFFCURVE",
"672 1266 OFFCURVE",
"735 1266 CURVE SMOOTH",
"793 1266 OFFCURVE",
"829 1305 OFFCURVE",
"829 1364.5 CURVE SMOOTH",
"829 1421 OFFCURVE",
"741 1474 OFFCURVE",
"637 1474 CURVE SMOOTH",
"377 1474 OFFCURVE",
"303 1334 OFFCURVE",
"220 1052 CURVE SMOOTH",
"205.622 1005.484 OFFCURVE",
"133 909 OFFCURVE",
"133 876 CURVE SMOOTH",
"133 841 OFFCURVE",
"206.869 793.319 OFFCURVE",
"218 759 CURVE SMOOTH",
"227 732 OFFCURVE",
"231 612 OFFCURVE",
"231 484 CURVE SMOOTH",
"231 338 OFFCURVE",
"227 183 OFFCURVE",
"218.5 147 CURVE SMOOTH",
"204 82 OFFCURVE",
"100 50 OFFCURVE",
"100 18 CURVE SMOOTH",
"100 -14 OFFCURVE",
"203 -26 OFFCURVE",
"442 -27 CURVE SMOOTH"
);
}
);
width = 738;
},
{
layerId = "5CBF0BAD-1756-4F16-9711-93DC239D102B";
paths = (
{
closed = 1;
nodes = (
"571 -37 OFFCURVE",
"633 -28 OFFCURVE",
"633 23.5 CURVE SMOOTH",
"633 85 OFFCURVE",
"539 141 OFFCURVE",
"516 179 CURVE SMOOTH",
"496 212 OFFCURVE",
"489 241 OFFCURVE",
"489 484 CURVE SMOOTH",
"489 618 OFFCURVE",
"497 703.667 OFFCURVE",
"513 741 CURVE SMOOTH",
"534 788 OFFCURVE",
"689 808 OFFCURVE",
"689 866 CURVE SMOOTH",
"689 956 OFFCURVE",
"542 990 OFFCURVE",
"520 1019 CURVE SMOOTH",
"500 1045 OFFCURVE",
"497 1099 OFFCURVE",
"497 1147 CURVE SMOOTH",
"497 1206 OFFCURVE",
"538 1290 OFFCURVE",
"603 1290 CURVE SMOOTH",
"637 1290 OFFCURVE",
"697 1251 OFFCURVE",
"773.5 1251 CURVE SMOOTH",
"826 1251 OFFCURVE",
"872 1307 OFFCURVE",
"872 1375 CURVE SMOOTH",
"872 1445 OFFCURVE",
"812 1483 OFFCURVE",
"637 1483 CURVE SMOOTH",
"412 1483 OFFCURVE",
"258 1321 OFFCURVE",
"206 1080 CURVE SMOOTH",
"187 991 OFFCURVE",
"101 908 OFFCURVE",
"101 872 CURVE SMOOTH",
"101 822 OFFCURVE",
"186 795 OFFCURVE",
"203 739 CURVE SMOOTH",
"212 710 OFFCURVE",
"217 631.167 OFFCURVE",
"217 495.5 CURVE SMOOTH",
"217 359.833 OFFCURVE",
"207 267 OFFCURVE",
"201 216.5 CURVE SMOOTH",
"186 96 OFFCURVE",
"96 77 OFFCURVE",
"96 24 CURVE SMOOTH",
"96 -22 OFFCURVE",
"121 -37 OFFCURVE",
"369 -37 CURVE SMOOTH"
);
}
);
width = 795;
}
);
note = uni0066;
unicode = 0066;
},
{
glyphname = g;
layers = (
{
layerId = "92A672BF-229C-4BEC-8D25-4DDBB2A38145";
paths = (
{
closed = 1;
nodes = (
"744 -465 OFFCURVE",
"988 -341 OFFCURVE",
"988 -120.5 CURVE SMOOTH",
"988 78 OFFCURVE",
"834 120 OFFCURVE",
"600 136 CURVE SMOOTH",
"444 146 OFFCURVE",
"307 147 OFFCURVE",
"307 222 CURVE SMOOTH",
"307 303 OFFCURVE",
"383 307 OFFCURVE",
"492 313 CURVE SMOOTH",
"701 322 OFFCURVE",
"887 437 OFFCURVE",
"887 623 CURVE SMOOTH",
"887 700 OFFCURVE",
"877 740 OFFCURVE",
"856 804 CURVE SMOOTH",
"847 832 OFFCURVE",
"882.5 850.5 OFFCURVE",
"935.5 857.5 CURVE SMOOTH",
"988.5 864.5 OFFCURVE",
"1015 887 OFFCURVE",
"1015 925 CURVE SMOOTH",
"1015 953.667 OFFCURVE",
"981.333 968 OFFCURVE",
"914 968 CURVE SMOOTH",
"853 969 OFFCURVE",
"793 969 OFFCURVE",
"732 970 CURVE SMOOTH",
"678 971 OFFCURVE",
"623 971 OFFCURVE",
"569 972 CURVE SMOOTH",
"331 972 OFFCURVE",
"132 853 OFFCURVE",
"132 639 CURVE SMOOTH",
"132 454 OFFCURVE",
"241 386 OFFCURVE",
"241 356 CURVE SMOOTH",
"241 307 OFFCURVE",
"154 276 OFFCURVE",
"154 169 CURVE SMOOTH",
"154 102 OFFCURVE",
"221 78 OFFCURVE",
"221 33 CURVE SMOOTH",
"221 -17 OFFCURVE",
"83 -85 OFFCURVE",
"83 -210.5 CURVE SMOOTH",
"83 -396 OFFCURVE",
"277 -465 OFFCURVE",
"506 -465 CURVE SMOOTH"
);
},
{
closed = 1;
nodes = (
"324 -359 OFFCURVE",
"221 -283 OFFCURVE",
"220 -147 CURVE SMOOTH",
"220 -49 OFFCURVE",
"296 28 OFFCURVE",
"404 28 CURVE SMOOTH",
"771 13 OFFCURVE",
"842 -9 OFFCURVE",
"842 -141 CURVE SMOOTH",
"842 -279 OFFCURVE",
"729 -340 OFFCURVE",
"479 -359 CURVE SMOOTH"
);
},
{
closed = 1;
nodes = (
"355 389 OFFCURVE",
"304 478 OFFCURVE",
"303 667 CURVE SMOOTH",
"303 813 OFFCURVE",
"376 915 OFFCURVE",
"505 915 CURVE SMOOTH",
"612 915 OFFCURVE",
"684 774 OFFCURVE",
"684 657 CURVE SMOOTH",
"684 449 OFFCURVE",
"637 389 OFFCURVE",
"481 389 CURVE SMOOTH"
);
}
);
width = 1085;
},
{
layerId = "5CBF0BAD-1756-4F16-9711-93DC239D102B";
paths = (
{
closed = 1;
nodes = (
"738 -466 OFFCURVE",
"1018 -333 OFFCURVE",
"1027 -103 CURVE SMOOTH",
"1036 115 OFFCURVE",
"850 132 OFFCURVE",
"631 145 CURVE SMOOTH",
"439 156 OFFCURVE",
"400 180 OFFCURVE",
"400 224 CURVE SMOOTH",
"400 263 OFFCURVE",
"427 278 OFFCURVE",
"574 301 CURVE SMOOTH",
"801 336 OFFCURVE",
"920 439 OFFCURVE",
"936 615 CURVE SMOOTH",
"939 646 OFFCURVE",
"935 679 OFFCURVE",
"935 715 CURVE SMOOTH",
"935 779 OFFCURVE",
"943 792 OFFCURVE",
"1019 827 CURVE SMOOTH",
"1045 839 OFFCURVE",
"1060 861 OFFCURVE",
"1060 891 CURVE SMOOTH",
"1060 947 OFFCURVE",
"1023 966 OFFCURVE",
"975 966 CURVE SMOOTH",
"903 962 OFFCURVE",
"830 954 OFFCURVE",
"758 954 CURVE SMOOTH",
"684 954 OFFCURVE",
"651 973 OFFCURVE",
"504 973 CURVE SMOOTH",
"279 973 OFFCURVE",
"86 849 OFFCURVE",
"86 637 CURVE SMOOTH",
"86 458 OFFCURVE",
"223 398 OFFCURVE",
"223 357 CURVE SMOOTH",
"223 320 OFFCURVE",
"115 244 OFFCURVE",
"115 157 CURVE SMOOTH",
"115 71 OFFCURVE",
"187 21 OFFCURVE",
"187 3 CURVE SMOOTH",
"187 -28 OFFCURVE",
"67 -113 OFFCURVE",
"67 -230 CURVE SMOOTH",
"67 -377 OFFCURVE",
"214 -466 OFFCURVE",
"477 -466 CURVE SMOOTH"
);
},
{
closed = 1;
nodes = (
"368 -295 OFFCURVE",
"306 -261 OFFCURVE",
"306 -141 CURVE SMOOTH",
"306 -38 OFFCURVE",
"368 8 OFFCURVE",
"509 8 CURVE SMOOTH",
"753 8 OFFCURVE",
"808 -20 OFFCURVE",
"808 -94 CURVE SMOOTH",
"809 -217 OFFCURVE",
"693 -295 OFFCURVE",
"525 -295 CURVE SMOOTH"
);
},
{
closed = 1;
nodes = (
"430 427 OFFCURVE",
"363 530 OFFCURVE",
"363 653 CURVE SMOOTH",
"363 816 OFFCURVE",
"409 901 OFFCURVE",
"504 901 CURVE SMOOTH",
"586 901 OFFCURVE",
"643 820 OFFCURVE",
"645 683 CURVE SMOOTH",
"643 509 OFFCURVE",
"607 427 OFFCURVE",
"515 427 CURVE SMOOTH"
);
}
);
width = 1123;
}
);
note = uni0067;
unicode = 0067;
},
{
glyphname = h;
layers = (
{
layerId = "92A672BF-229C-4BEC-8D25-4DDBB2A38145";
paths = (
{
closed = 1;
nodes = (
"1066 3 OFFCURVE",
"1128 8 OFFCURVE",
"1128 42 CURVE SMOOTH",
"1128 55.342 OFFCURVE",
"1043.081 114.863 OFFCURVE",
"1028 140.5 CURVE SMOOTH",
"1010 172 OFFCURVE",
"1013 220 OFFCURVE",
"1016 490 CURVE SMOOTH",
"1016 775 OFFCURVE",
"974 963 OFFCURVE",
"724 963 CURVE SMOOTH",
"564 963 OFFCURVE",
"451 879 OFFCURVE",
"425 879 CURVE SMOOTH",
"398 879 OFFCURVE",
"398 958 OFFCURVE",
"398 1340 CURVE SMOOTH",
"398 1438 OFFCURVE",
"381 1468 OFFCURVE",
"295 1468 CURVE SMOOTH",
"219 1468 OFFCURVE",
"92 1447 OFFCURVE",
"92 1404 CURVE SMOOTH",
"92 1369 OFFCURVE",
"189 1350 OFFCURVE",
"198 1275 CURVE SMOOTH",
"210 1172 OFFCURVE",
"220 923 OFFCURVE",
"221 691 CURVE SMOOTH",
"221 481 OFFCURVE",
"217 284 OFFCURVE",
"206.5 216 CURVE SMOOTH",
"199.485 168.96 OFFCURVE",
"109 69.104 OFFCURVE",
"109 52 CURVE SMOOTH",
"109 19.333 OFFCURVE",
"174.333 3 OFFCURVE",
"305 3 CURVE SMOOTH",
"435.667 3 OFFCURVE",
"501 17 OFFCURVE",
"501 45 CURVE SMOOTH",
"501 69 OFFCURVE",
"426.109 120.854 OFFCURVE",
"414.5 145 CURVE SMOOTH",
"402 172 OFFCURVE",
"398 346 OFFCURVE",
"404 496 CURVE SMOOTH",
"411 730 OFFCURVE",
"443 845 OFFCURVE",
"666.5 845 CURVE SMOOTH",
"806 845 OFFCURVE",
"815 743 OFFCURVE",
"832 474 CURVE SMOOTH",
"841 326 OFFCURVE",
"839 174 OFFCURVE",
"825 142.5 CURVE SMOOTH",
"819 129 OFFCURVE",
"753 46 OFFCURVE",
"753 31 CURVE SMOOTH",
"753 8.333 OFFCURVE",
"783 -3 OFFCURVE",
"843 -3 CURVE SMOOTH"
);
}
);
width = 1216;
},
{
layerId = "5CBF0BAD-1756-4F16-9711-93DC239D102B";
paths = (
{
closed = 1;
nodes = (
"1095.231 -12 OFFCURVE",
"1210 -3.315 OFFCURVE",
"1210 64 CURVE SMOOTH",
"1210 89 OFFCURVE",
"1152 126 OFFCURVE",
"1128 164 CURVE SMOOTH",
"1104 201 OFFCURVE",
"1093 239 OFFCURVE",
"1093 569 CURVE SMOOTH",
"1093 824 OFFCURVE",
"994 972 OFFCURVE",
"782 972 CURVE SMOOTH",
"643 972 OFFCURVE",
"532 896 OFFCURVE",
"495 896 CURVE SMOOTH",
"464 896 OFFCURVE",
"458 919 OFFCURVE",
"458 1168.5 CURVE SMOOTH",
"458 1430 OFFCURVE",
"445 1478 OFFCURVE",
"351 1478 CURVE SMOOTH",
"231 1478 OFFCURVE",
"64 1461 OFFCURVE",
"64 1380 CURVE SMOOTH",
"64 1364 OFFCURVE",
"115 1324 OFFCURVE",
"157 1280 CURVE SMOOTH",
"181 1255 OFFCURVE",
"192 1164 OFFCURVE",
"192 743 CURVE SMOOTH",
"192 455 OFFCURVE",
"188 295 OFFCURVE",
"185.5 263 CURVE SMOOTH",
"181 201 OFFCURVE",
"86 95 OFFCURVE",
"86 50 CURVE SMOOTH",
"86 20 OFFCURVE",
"139.167 1 OFFCURVE",
"245.5 1 CURVE SMOOTH",
"392 1 OFFCURVE",
"538 -1 OFFCURVE",
"538 75 CURVE SMOOTH",
"538 106 OFFCURVE",
"501 150 OFFCURVE",
"488 221 CURVE SMOOTH",
"471 313 OFFCURVE",
"458 458 OFFCURVE",
"458 500 CURVE SMOOTH",
"458 730.667 OFFCURVE",
"528.5 804 OFFCURVE",
"658.5 804 CURVE SMOOTH",
"814 804 OFFCURVE",
"818 672 OFFCURVE",
"824 468 CURVE SMOOTH",
"827 352 OFFCURVE",
"823 237 OFFCURVE",
"816 205.5 CURVE SMOOTH",
"809 172 OFFCURVE",
"754 96 OFFCURVE",
"754 58 CURVE SMOOTH",
"754 -6 OFFCURVE",
"839 -12 OFFCURVE",
"952 -12 CURVE SMOOTH"
);
}
);
width = 1269;
}
);
note = uni0068;
unicode = 0068;
},
{
glyphname = i;
layers = (
{
layerId = "92A672BF-229C-4BEC-8D25-4DDBB2A38145";
paths = (
{
closed = 1;
nodes = (
"489 -3 OFFCURVE",
"546 -5 OFFCURVE",
"546 39 CURVE SMOOTH",
"546 51.995 OFFCURVE",
"429.9 112.849 OFFCURVE",
"422 140.5 CURVE SMOOTH",
"407 195 OFFCURVE",
"405 300 OFFCURVE",
"407 418 CURVE SMOOTH",
"410 565 OFFCURVE",
"419 732 OFFCURVE",
"415 839 CURVE SMOOTH",
"410 920 OFFCURVE",
"411 961 OFFCURVE",
"338 961 CURVE SMOOTH",
"238 961 OFFCURVE",
"87 943 OFFCURVE",
"87 885 CURVE SMOOTH",
"87 843.049 OFFCURVE",
"174.906 847.912 OFFCURVE",
"206.5 810 CURVE SMOOTH",
"224 788 OFFCURVE",
"224 750 OFFCURVE",
"225 462 CURVE SMOOTH",
"226 284 OFFCURVE",
"219 180 OFFCURVE",
"213 151 CURVE SMOOTH",
"208 127 OFFCURVE",
"96 61 OFFCURVE",
"96 33 CURVE SMOOTH",
"96 -19 OFFCURVE",
"146 -7 OFFCURVE",
"415 -3 CURVE SMOOTH"
);
},
{
closed = 1;
nodes = (
"375 1171 OFFCURVE",
"437 1194 OFFCURVE",
"437 1293 CURVE SMOOTH",
"437 1365 OFFCURVE",
"385 1412 OFFCURVE",
"322 1412 CURVE SMOOTH",
"229 1409 OFFCURVE",
"181 1395 OFFCURVE",
"184 1304 CURVE SMOOTH",
"187 1228 OFFCURVE",
"225 1171 OFFCURVE",
"278 1171 CURVE SMOOTH"
);
}
);
width = 628;
},
{
layerId = "5CBF0BAD-1756-4F16-9711-93DC239D102B";
paths = (
{
closed = 1;
nodes = (
"545 -4 OFFCURVE",
"629 8 OFFCURVE",
"629 32 CURVE SMOOTH",
"629 84 OFFCURVE",
"522 155 OFFCURVE",
"503.5 229.5 CURVE SMOOTH",
"490 283 OFFCURVE",
"488 398 OFFCURVE",
"489 521 CURVE SMOOTH",
"490 686 OFFCURVE",
"490 830 OFFCURVE",
"490 882 CURVE SMOOTH",
"490 954 OFFCURVE",
"464 974 OFFCURVE",
"418 974 CURVE SMOOTH",
"303 974 OFFCURVE",
"85 955 OFFCURVE",
"85 882 CURVE SMOOTH",
"85 826 OFFCURVE",
"196 798 OFFCURVE",
"211 746 CURVE SMOOTH",
"218 721 OFFCURVE",
"222 637.167 OFFCURVE",
"222 495.5 CURVE SMOOTH",
"222 353.833 OFFCURVE",
"217.667 266.167 OFFCURVE",
"209 232.5 CURVE SMOOTH",
"192 167 OFFCURVE",
"96 102 OFFCURVE",
"96 39 CURVE SMOOTH",
"96 4 OFFCURVE",
"126 -4 OFFCURVE",
"377 -4 CURVE SMOOTH"
);
},
{
closed = 1;
nodes = (
"445 1144 OFFCURVE",
"510 1203 OFFCURVE",
"510 1307 CURVE SMOOTH",
"510 1376 OFFCURVE",
"471 1435 OFFCURVE",
"331 1435 CURVE SMOOTH",
"261 1435 OFFCURVE",
"187 1374 OFFCURVE",
"187 1297 CURVE SMOOTH",
"187 1184 OFFCURVE",
"239 1144 OFFCURVE",
"357 1144 CURVE SMOOTH"
);
}
);
width = 691;
}
);
note = uni0069;
unicode = 0069;
},
{
glyphname = idotless;
layers = (
{
anchors = (
{
name = top;
position = "{278, 1059}";
}
);
layerId = "92A672BF-229C-4BEC-8D25-4DDBB2A38145";
paths = (
{
closed = 1;
nodes = (
"500 -3 OFFCURVE",
"556 5 OFFCURVE",
"556 39 CURVE SMOOTH",
"556 52 OFFCURVE",
"440 113 OFFCURVE",
"432 141 CURVE SMOOTH",
"417 195 OFFCURVE",
"415 300 OFFCURVE",
"417 418 CURVE SMOOTH",
"420 565 OFFCURVE",
"429 732 OFFCURVE",
"425 839 CURVE SMOOTH",
"420 920 OFFCURVE",
"411 970 OFFCURVE",
"338 970 CURVE SMOOTH",
"238 970 OFFCURVE",
"87 943 OFFCURVE",
"87 885 CURVE SMOOTH",
"87 843.049 OFFCURVE",
"174.906 847.912 OFFCURVE",
"206.5 810 CURVE SMOOTH",
"224 788 OFFCURVE",
"224 750 OFFCURVE",
"225 462 CURVE SMOOTH",
"226 284 OFFCURVE",
"223 179 OFFCURVE",
"213 151 CURVE SMOOTH",
"199 111 OFFCURVE",
"96 75 OFFCURVE",
"96 39 CURVE SMOOTH",
"96 6 OFFCURVE",
"134 -3 OFFCURVE",
"415 -3 CURVE SMOOTH"
);
}
);
width = 628;
},
{
anchors = (
{
name = top;
position = "{312, 1032}";
}
);
layerId = "5CBF0BAD-1756-4F16-9711-93DC239D102B";
paths = (
{
closed = 1;
nodes = (
"545 -4 OFFCURVE",
"629 8 OFFCURVE",
"629 32 CURVE SMOOTH",
"629 84 OFFCURVE",
"522 155 OFFCURVE",
"503.5 229.5 CURVE SMOOTH",
"490 283 OFFCURVE",
"488 398 OFFCURVE",
"489 521 CURVE SMOOTH",
"490 686 OFFCURVE",
"490 830 OFFCURVE",
"490 882 CURVE SMOOTH",
"490 954 OFFCURVE",
"464 974 OFFCURVE",
"418 974 CURVE SMOOTH",
"303 974 OFFCURVE",
"85 955 OFFCURVE",
"85 882 CURVE SMOOTH",
"85 826 OFFCURVE",
"196 798 OFFCURVE",
"211 746 CURVE SMOOTH",
"218 721 OFFCURVE",
"222 637.167 OFFCURVE",
"222 495.5 CURVE SMOOTH",
"222 353.833 OFFCURVE",
"217.667 266.167 OFFCURVE",
"209 232.5 CURVE SMOOTH",
"192 167 OFFCURVE",
"96 102 OFFCURVE",
"96 39 CURVE SMOOTH",
"96 4 OFFCURVE",
"126 -4 OFFCURVE",
"377 -4 CURVE SMOOTH"
);
}
);
width = 691;
}
);
note = uni0069;
unicode = 0131;
},
{
glyphname = j;
layers = (
{
layerId = "92A672BF-229C-4BEC-8D25-4DDBB2A38145";
paths = (
{
closed = 1;
nodes = (
"359 -426 OFFCURVE",
"421 -141 OFFCURVE",
"421 430 CURVE SMOOTH",
"421 955 OFFCURVE",
"410 964 OFFCURVE",
"349 964 CURVE SMOOTH",
"238 964 OFFCURVE",
"97 954 OFFCURVE",
"97 892 CURVE SMOOTH",
"97 850 OFFCURVE",
"212 821 OFFCURVE",
"223 763.5 CURVE SMOOTH",
"230 729 OFFCURVE",
"234 587 OFFCURVE",
"234 338 CURVE SMOOTH",
"234 -227 OFFCURVE",
"172 -276 OFFCURVE",
"82 -276 CURVE SMOOTH",
"11 -276 OFFCURVE",
"-50 -293 OFFCURVE",
"-50 -360 CURVE SMOOTH",
"-50 -409 OFFCURVE",
"-20 -424 OFFCURVE",
"50 -424 CURVE SMOOTH"
);
},
{
closed = 1;
nodes = (
"389.333 1175 OFFCURVE",
"443 1231.333 OFFCURVE",
"443 1294 CURVE SMOOTH",
"440 1388 OFFCURVE",
"416 1417 OFFCURVE",
"316 1417 CURVE SMOOTH",
"261 1417 OFFCURVE",
"190 1374 OFFCURVE",
"190 1306 CURVE SMOOTH",
"190 1219 OFFCURVE",
"236 1175 OFFCURVE",
"316 1175 CURVE SMOOTH"
);
}
);
width = 585;
},
{
layerId = "5CBF0BAD-1756-4F16-9711-93DC239D102B";
paths = (
{
closed = 1;
nodes = (
"458 -387 OFFCURVE",
"528 -134 OFFCURVE",
"528 376 CURVE SMOOTH",
"528 940 OFFCURVE",
"518 988 OFFCURVE",
"428 988 CURVE SMOOTH",
"331 988 OFFCURVE",
"132 963 OFFCURVE",
"132 903 CURVE SMOOTH",
"132 857 OFFCURVE",
"228 795 OFFCURVE",
"240 704 CURVE SMOOTH",
"247 651 OFFCURVE",
"256 469 OFFCURVE",
"259 291 CURVE SMOOTH",
"262 117 OFFCURVE",
"248 -136 OFFCURVE",
"200 -159 CURVE SMOOTH",
"115 -200 OFFCURVE",
"18 -229 OFFCURVE",
"18 -307 CURVE SMOOTH",
"18 -360.333 OFFCURVE",
"51.333 -387 OFFCURVE",
"118 -387 CURVE SMOOTH"
);
},
{
closed = 1;
nodes = (
"462 1109 OFFCURVE",
"531 1159 OFFCURVE",
"531 1271 CURVE SMOOTH",
"528 1371 OFFCURVE",
"466 1427 OFFCURVE",
"369 1427 CURVE SMOOTH",
"287 1427 OFFCURVE",
"237 1330 OFFCURVE",
"237 1240 CURVE SMOOTH",
"237 1157.333 OFFCURVE",
"283.667 1107 OFFCURVE",
"333 1107 CURVE SMOOTH"
);
}
);
width = 664;
}
);
note = uni006A;
unicode = 006A;
},
{
glyphname = k;
layers = (
{
layerId = "92A672BF-229C-4BEC-8D25-4DDBB2A38145";
paths = (
{
closed = 1;
nodes = (
"1037.333 6 OFFCURVE",
"1079 18.667 OFFCURVE",
"1079 44 CURVE SMOOTH",
"1079 54.667 OFFCURVE",
"1046.667 82.667 OFFCURVE",
"982 128 CURVE SMOOTH",
"937 160 OFFCURVE",
"655 507 OFFCURVE",
"655 541 CURVE SMOOTH",
"655 612 OFFCURVE",
"796 758 OFFCURVE",
"920 835 CURVE SMOOTH",
"981 874 OFFCURVE",
"1012 900 OFFCURVE",
"1012 914 CURVE SMOOTH",
"1012 936.667 OFFCURVE",
"946.667 948 OFFCURVE",
"816 948 CURVE SMOOTH",
"744 948 OFFCURVE",
"708 936 OFFCURVE",
"708 912 CURVE SMOOTH",
"708 897 OFFCURVE",
"719 887 OFFCURVE",
"715 862 CURVE SMOOTH",
"705 800 OFFCURVE",
"509 587 OFFCURVE",
"446.5 587 CURVE SMOOTH",
"410 587 OFFCURVE",
"402 615 OFFCURVE",
"410 1181 CURVE SMOOTH",
"413 1394 OFFCURVE",
"400 1472 OFFCURVE",
"325 1472 CURVE SMOOTH",
"245 1472 OFFCURVE",
"84 1450 OFFCURVE",
"84 1408 CURVE SMOOTH",
"84 1394 OFFCURVE",
"97 1380 OFFCURVE",
"127 1364 CURVE SMOOTH",
"198 1326 OFFCURVE",
"215 1287 OFFCURVE",
"204 694 CURVE SMOOTH",
"197 290 OFFCURVE",
"188 157 OFFCURVE",
"136 86 CURVE SMOOTH",
"119 62 OFFCURVE",
"110 50 OFFCURVE",
"110 40 CURVE SMOOTH",
"110 20 OFFCURVE",
"143.333 10 OFFCURVE",
"210 10 CURVE SMOOTH",
"390 10 OFFCURVE",
"480 22 OFFCURVE",
"480 46 CURVE SMOOTH",
"480 93 OFFCURVE",
"409 122 OFFCURVE",
"409 259 CURVE SMOOTH",
"409 369 OFFCURVE",
"430 428 OFFCURVE",
"471 428 CURVE SMOOTH",
"502.333 428 OFFCURVE",
"539.667 401 OFFCURVE",
"583 347 CURVE SMOOTH",
"649.667 264.333 OFFCURVE",
"700.667 178.667 OFFCURVE",
"736 90 CURVE SMOOTH",
"768 14 OFFCURVE",
"799 6 OFFCURVE",
"954 6 CURVE SMOOTH"
);
}
);
width = 1139;
},
{
layerId = "5CBF0BAD-1756-4F16-9711-93DC239D102B";
paths = (
{
closed = 1;
nodes = (
"1111 -1 OFFCURVE",
"1202 -7 OFFCURVE",
"1202 50 CURVE SMOOTH",
"1202 68 OFFCURVE",
"1149 112 OFFCURVE",
"1090 164 CURVE SMOOTH",
"1007 237 OFFCURVE",
"758 495 OFFCURVE",
"758 551 CURVE SMOOTH",
"758 613.667 OFFCURVE",
"841.333 695.333 OFFCURVE",
"1008 796 CURVE SMOOTH",
"1091.333 846 OFFCURVE",
"1133 882 OFFCURVE",
"1133 904 CURVE SMOOTH",
"1132.333 942 OFFCURVE",
"1066.667 961 OFFCURVE",
"936 961 CURVE SMOOTH",
"823 961 OFFCURVE",
"721 962 OFFCURVE",
"721 902 CURVE SMOOTH",
"721 882 OFFCURVE",
"735 862 OFFCURVE",
"735 842 CURVE SMOOTH",
"735 772 OFFCURVE",
"576 592 OFFCURVE",
"512 592 CURVE SMOOTH",
"474 592 OFFCURVE",
"467 615 OFFCURVE",
"467 1116 CURVE SMOOTH",
"467 1424 OFFCURVE",
"458 1492 OFFCURVE",
"373 1492 CURVE SMOOTH",
"248 1492 OFFCURVE",
"58 1473 OFFCURVE",
"58 1398.5 CURVE SMOOTH",
"58 1341 OFFCURVE",
"168 1317 OFFCURVE",
"187 1267.5 CURVE SMOOTH",
"192 1253 OFFCURVE",
"198 1068 OFFCURVE",
"198 746 CURVE SMOOTH",
"198 326 OFFCURVE",
"187 276 OFFCURVE",
"170 208 CURVE SMOOTH",
"160 166 OFFCURVE",
"101 95 OFFCURVE",
"101 62 CURVE SMOOTH",
"101 1 OFFCURVE",
"212 0 OFFCURVE",
"324.5 0 CURVE SMOOTH",
"440 0 OFFCURVE",
"551 -2 OFFCURVE",
"551 68 CURVE SMOOTH",
"551 100 OFFCURVE",
"492 152 OFFCURVE",
"492 288 CURVE SMOOTH",
"492 352.667 OFFCURVE",
"505.667 385 OFFCURVE",
"533 385 CURVE SMOOTH",
"577 385 OFFCURVE",
"623.333 346.667 OFFCURVE",
"672 270 CURVE SMOOTH",
"712 208 OFFCURVE",
"717 91 OFFCURVE",
"760 48 CURVE SMOOTH",
"798 10 OFFCURVE",
"864 -1 OFFCURVE",
"998 -1 CURVE SMOOTH"
);
}
);
width = 1251;
}
);
note = uni006B;
unicode = 006B;
},
{
glyphname = l;
layers = (
{
layerId = "92A672BF-229C-4BEC-8D25-4DDBB2A38145";
paths = (
{
closed = 1;
nodes = (
"189 111 OFFCURVE",
"86 57 OFFCURVE",
"86 27 CURVE SMOOTH",
"86 7.667 OFFCURVE",
"136 0 OFFCURVE",
"276 0 CURVE SMOOTH",
"492 0 OFFCURVE",
"544 3 OFFCURVE",
"544 40 CURVE SMOOTH",
"544 65 OFFCURVE",
"419 116 OFFCURVE",
"415 152 CURVE SMOOTH",
"410 189 OFFCURVE",
"407 433 OFFCURVE",
"407 829 CURVE SMOOTH",
"410 1264 OFFCURVE",
"415 1390 OFFCURVE",
"415 1415 CURVE SMOOTH",
"415 1456 OFFCURVE",
"380.333 1476 OFFCURVE",
"341 1476 CURVE SMOOTH",
"242 1476 OFFCURVE",
"79 1459 OFFCURVE",
"79 1404.5 CURVE SMOOTH",
"79 1363 OFFCURVE",
"195 1326 OFFCURVE",
"200 1304 CURVE SMOOTH",
"207 1269 OFFCURVE",
"216 1071 OFFCURVE",
"210 747.5 CURVE SMOOTH",
"207 597 OFFCURVE",
"220 346 OFFCURVE",
"193 141 CURVE SMOOTH"
);
}
);
width = 612;
},
{
layerId = "5CBF0BAD-1756-4F16-9711-93DC239D102B";
paths = (
{
closed = 1;
nodes = (
"67 1363 OFFCURVE",
"183 1267 OFFCURVE",
"190 1243 CURVE SMOOTH",
"210 1173 OFFCURVE",
"212 953 OFFCURVE",
"212 736 CURVE SMOOTH",
"212 535 OFFCURVE",
"202 337 OFFCURVE",
"192 264 CURVE SMOOTH",
"179 169 OFFCURVE",
"84 100 OFFCURVE",
"84 45.5 CURVE SMOOTH",
"84 7 OFFCURVE",
"103 0 OFFCURVE",
"348 -1 CURVE SMOOTH",
"526.667 -1 OFFCURVE",
"616 6 OFFCURVE",
"616 47 CURVE SMOOTH",
"616 95 OFFCURVE",
"511 131 OFFCURVE",
"492.5 265.5 CURVE SMOOTH",
"484 329 OFFCURVE",
"475 535 OFFCURVE",
"475 880 CURVE SMOOTH",
"475 1050 OFFCURVE",
"479 1223 OFFCURVE",
"479 1410 CURVE SMOOTH",
"479 1454 OFFCURVE",
"439.667 1482 OFFCURVE",
"389 1482 CURVE SMOOTH",
"282 1482 OFFCURVE",
"67 1457 OFFCURVE",
"67 1387 CURVE SMOOTH"
);
}
);
width = 685;
}
);
note = uni006C;
unicode = 006C;
},
{
glyphname = lslash;
layers = (
{
layerId = "92A672BF-229C-4BEC-8D25-4DDBB2A38145";
paths = (
{
closed = 1;
nodes = (
"509 5 OFFCURVE",
"575 13 OFFCURVE",
"575 35 CURVE SMOOTH",
"575 68 OFFCURVE",
"482 88 OFFCURVE",
"465 131 CURVE SMOOTH",
"450.333 167.667 OFFCURVE",
"443 257.5 OFFCURVE",
"443 400.5 CURVE SMOOTH",
"443 543.5 OFFCURVE",
"449.333 635.667 OFFCURVE",
"462 677 CURVE SMOOTH",
"486 756 OFFCURVE",
"615 815 OFFCURVE",
"616 870 CURVE SMOOTH",
"616 885 OFFCURVE",
"604 908 OFFCURVE",
"584 908 CURVE SMOOTH",
"552 908 OFFCURVE",
"515 885 OFFCURVE",
"496 885 CURVE SMOOTH",
"466 885 OFFCURVE",
"451 953 OFFCURVE",
"451 1089 CURVE SMOOTH",
"450 1322 OFFCURVE",
"453 1379 OFFCURVE",
"434 1420 CURVE SMOOTH",
"423.333 1442 OFFCURVE",
"403.333 1453 OFFCURVE",
"374 1453 CURVE SMOOTH",
"281 1453 OFFCURVE",
"117 1434 OFFCURVE",
"117 1371 CURVE SMOOTH",
"117 1344 OFFCURVE",
"207 1331 OFFCURVE",
"228 1299 CURVE SMOOTH",
"240 1280.333 OFFCURVE",
"246 1197.833 OFFCURVE",
"246 1051.5 CURVE SMOOTH",
"246 905.167 OFFCURVE",
"240.667 817.167 OFFCURVE",
"230 787.5 CURVE SMOOTH",
"219.333 757.833 OFFCURVE",
"201 745 OFFCURVE",
"157 710 CURVE SMOOTH",
"136 694 OFFCURVE",
"81 651 OFFCURVE",
"81 612 CURVE SMOOTH",
"81 574 OFFCURVE",
"128 567 OFFCURVE",
"172 567 CURVE SMOOTH",
"219 567 OFFCURVE",
"238 539 OFFCURVE",
"238 346 CURVE SMOOTH",
"238 265 OFFCURVE",
"237 184 OFFCURVE",
"220.5 152.5 CURVE SMOOTH",
"186 88 OFFCURVE",
"123 75 OFFCURVE",
"123 44 CURVE SMOOTH",
"123 -9 OFFCURVE",
"236 -1 OFFCURVE",
"373 4 CURVE SMOOTH"
);
}
);
width = 684;
},
{
layerId = "5CBF0BAD-1756-4F16-9711-93DC239D102B";
paths = (
{
closed = 1;
nodes = (
"658 2 OFFCURVE",
"678 4 OFFCURVE",
"678 26 CURVE SMOOTH",
"678 88 OFFCURVE",
"586 128 OFFCURVE",
"561 195 CURVE SMOOTH",
"542 246 OFFCURVE",
"532 354 OFFCURVE",
"530 458 CURVE SMOOTH",
"527 561 OFFCURVE",
"534 660 OFFCURVE",
"544 691 CURVE SMOOTH",
"562 746 OFFCURVE",
"710 821 OFFCURVE",
"710 921.5 CURVE SMOOTH",
"710 951.167 OFFCURVE",
"699 965 OFFCURVE",
"677 966 CURVE SMOOTH",
"638 968 OFFCURVE",
"617 948 OFFCURVE",
"585 948 CURVE SMOOTH",
"542 948 OFFCURVE",
"530 975 OFFCURVE",
"530 1205.5 CURVE SMOOTH",
"530 1316 OFFCURVE",
"528 1377 OFFCURVE",
"524 1388 CURVE SMOOTH",
"511 1426 OFFCURVE",
"488 1445 OFFCURVE",
"456 1445 CURVE SMOOTH",
"317 1445 OFFCURVE",
"150 1401 OFFCURVE",
"150 1350 CURVE SMOOTH",
"150 1317 OFFCURVE",
"254 1286 OFFCURVE",
"279 1232 CURVE SMOOTH",
"289 1210 OFFCURVE",
"294 1124 OFFCURVE",
"294 1033 CURVE SMOOTH",
"293 933 OFFCURVE",
"286 826 OFFCURVE",
"274 789 CURVE SMOOTH",
"261.333 751 OFFCURVE",
"228 707 OFFCURVE",
"174 656 CURVE SMOOTH",
"146 630 OFFCURVE",
"132 595 OFFCURVE",
"132 551 CURVE SMOOTH",
"132 507 OFFCURVE",
"180 500 OFFCURVE",
"228 500 CURVE SMOOTH",
"264 500 OFFCURVE",
"287 436 OFFCURVE",
"287 341.5 CURVE SMOOTH",
"287 232.833 OFFCURVE",
"263.667 192.833 OFFCURVE",
"201 121.5 CURVE SMOOTH",
"184 102 OFFCURVE",
"154 63 OFFCURVE",
"154 35 CURVE SMOOTH",
"154 4 OFFCURVE",
"176 0 OFFCURVE",
"387 1 CURVE SMOOTH"
);
}
);
width = 828;
}
);
note = uni0142;
unicode = 0142;
},
{
glyphname = m;
layers = (
{
layerId = "92A672BF-229C-4BEC-8D25-4DDBB2A38145";
paths = (
{
closed = 1;
nodes = (
"425.833 7 OFFCURVE",
"471 17 OFFCURVE",
"471 36 CURVE SMOOTH",
"471 75 OFFCURVE",
"403 114 OFFCURVE",
"403 208 CURVE SMOOTH",
"403 324 OFFCURVE",
"404 418 OFFCURVE",
"407 492 CURVE SMOOTH",
"416 695 OFFCURVE",
"469 835 OFFCURVE",
"657 835 CURVE SMOOTH",
"816 838 OFFCURVE",
"815 682 OFFCURVE",
"820 481 CURVE SMOOTH",
"823 366 OFFCURVE",
"820 208 OFFCURVE",
"814 173.5 CURVE SMOOTH",
"804 114 OFFCURVE",
"715 83 OFFCURVE",
"715 28 CURVE SMOOTH",
"715 8.667 OFFCURVE",
"752 -1 OFFCURVE",
"826 -1 CURVE SMOOTH",
"1022.667 -1 OFFCURVE",
"1121 11.667 OFFCURVE",
"1121 37 CURVE SMOOTH",
"1121 83 OFFCURVE",
"1047 101 OFFCURVE",
"1030 132 CURVE SMOOTH",
"1019.333 150.667 OFFCURVE",
"1014 240.167 OFFCURVE",
"1014 400.5 CURVE SMOOTH",
"1014 740 OFFCURVE",
"1070 836 OFFCURVE",
"1227 835 CURVE SMOOTH",
"1391 834 OFFCURVE",
"1410 662 OFFCURVE",
"1415 516 CURVE SMOOTH",
"1419 436 OFFCURVE",
"1421 334 OFFCURVE",
"1421 210 CURVE SMOOTH",
"1421 157 OFFCURVE",
"1369 40 OFFCURVE",
"1369 30 CURVE SMOOTH",
"1369 13.333 OFFCURVE",
"1399 5 OFFCURVE",
"1459 5 CURVE SMOOTH",
"1633 5 OFFCURVE",
"1720 18.333 OFFCURVE",
"1720 45 CURVE SMOOTH",
"1720 67 OFFCURVE",
"1633 131 OFFCURVE",
"1620.5 170 CURVE SMOOTH",
"1614 191 OFFCURVE",
"1611 256 OFFCURVE",
"1611 362 CURVE SMOOTH",
"1611 710 OFFCURVE",
"1604 965 OFFCURVE",
"1340.5 965 CURVE SMOOTH",
"1135 965 OFFCURVE",
"1050 842 OFFCURVE",
"995 842 CURVE SMOOTH",
"957 842 OFFCURVE",
"898 971 OFFCURVE",
"737 971 CURVE SMOOTH",
"523 971 OFFCURVE",
"455 856 OFFCURVE",
"433 857 CURVE SMOOTH",
"411 858 OFFCURVE",
"347 946 OFFCURVE",
"279 946 CURVE SMOOTH",
"188 946 OFFCURVE",
"123 931 OFFCURVE",
"123 891 CURVE SMOOTH",
"123 866 OFFCURVE",
"181.92 819.716 OFFCURVE",
"197 787.5 CURVE SMOOTH",
"213.087 753.133 OFFCURVE",
"207.706 560.961 OFFCURVE",
"210 491 CURVE SMOOTH",
"214 284 OFFCURVE",
"213 224 OFFCURVE",
"201 180.5 CURVE SMOOTH",
"193 152 OFFCURVE",
"115 100 OFFCURVE",
"117 67 CURVE SMOOTH",
"120 11 OFFCURVE",
"231 7 OFFCURVE",
"335.5 7 CURVE SMOOTH"
);
}
);
width = 1799;
},
{
layerId = "5CBF0BAD-1756-4F16-9711-93DC239D102B";
paths = (
{
closed = 1;
nodes = (
"416 0 OFFCURVE",
"509 9 OFFCURVE",
"509 75 CURVE SMOOTH",
"509 96 OFFCURVE",
"503 143 OFFCURVE",
"493 187 CURVE SMOOTH",
"477 256 OFFCURVE",
"468 439 OFFCURVE",
"468 567 CURVE SMOOTH",
"468 691 OFFCURVE",
"537 793 OFFCURVE",
"650 795 CURVE SMOOTH",
"789 798 OFFCURVE",
"802 643 OFFCURVE",
"802 448 CURVE SMOOTH",
"802 318 OFFCURVE",
"799 240 OFFCURVE",
"792.5 217 CURVE SMOOTH",
"777 161 OFFCURVE",
"716 111 OFFCURVE",
"716 79 CURVE SMOOTH",
"716 -8 OFFCURVE",
"793 0 OFFCURVE",
"931 0 CURVE SMOOTH",
"1088 0 OFFCURVE",
"1173 5 OFFCURVE",
"1173 55 CURVE SMOOTH",
"1173 72 OFFCURVE",
"1153 113 OFFCURVE",
"1132 137.5 CURVE SMOOTH",
"1081 196 OFFCURVE",
"1070 229 OFFCURVE",
"1069 423 CURVE SMOOTH",
"1068 692 OFFCURVE",
"1096 804 OFFCURVE",
"1227 804 CURVE SMOOTH",
"1390 804 OFFCURVE",
"1396 677 OFFCURVE",
"1400 462.5 CURVE SMOOTH",
"1402 367 OFFCURVE",
"1397 245 OFFCURVE",
"1381 155 CURVE SMOOTH",
"1377 134 OFFCURVE",
"1368 112 OFFCURVE",
"1368 91 CURVE SMOOTH",
"1368 23 OFFCURVE",
"1405 -1 OFFCURVE",
"1521 -1 CURVE SMOOTH",
"1697.667 -1 OFFCURVE",
"1786 30 OFFCURVE",
"1786 92 CURVE SMOOTH",
"1786 111.35 OFFCURVE",
"1695.19 167.525 OFFCURVE",
"1681.5 195.5 CURVE SMOOTH",
"1673.833 211.167 OFFCURVE",
"1670 253.667 OFFCURVE",
"1670 323 CURVE SMOOTH",
"1670 704 OFFCURVE",
"1654 977 OFFCURVE",
"1374 977 CURVE SMOOTH",
"1232 977 OFFCURVE",
"1087 879 OFFCURVE",
"1046.5 879 CURVE SMOOTH",
"1000 879 OFFCURVE",
"948 983 OFFCURVE",
"767 983 CURVE SMOOTH",
"619 983 OFFCURVE",
"500 880 OFFCURVE",
"485 881 CURVE SMOOTH",
"459 882 OFFCURVE",
"412 966 OFFCURVE",
"363 966 CURVE SMOOTH",
"275 966 OFFCURVE",
"96 938 OFFCURVE",
"96 875 CURVE SMOOTH",
"96 832 OFFCURVE",
"154 764 OFFCURVE",
"168 726 CURVE SMOOTH",
"183 682 OFFCURVE",
"191 574 OFFCURVE",
"194 470 CURVE SMOOTH",
"197 362 OFFCURVE",
"194 259 OFFCURVE",
"188 234.5 CURVE SMOOTH",
"175.294 186.854 OFFCURVE",
"92 133.98 OFFCURVE",
"92 84 CURVE SMOOTH",
"92 28 OFFCURVE",
"169.333 0 OFFCURVE",
"324 0 CURVE SMOOTH"
);
}
);
width = 1842;
}
);
note = uni006D;
unicode = 006D;
},
{
glyphname = n;
layers = (
{
anchors = (
{
name = top;
position = "{648, 983}";
}
);
layerId = "92A672BF-229C-4BEC-8D25-4DDBB2A38145";
paths = (
{
closed = 1;
nodes = (
"497 69 OFFCURVE",
"425.513 133.521 OFFCURVE",
"419 150.5 CURVE SMOOTH",
"400 200 OFFCURVE",
"406 242 OFFCURVE",
"411 471 CURVE SMOOTH",
"411 699 OFFCURVE",
"453 850 OFFCURVE",
"659 850 CURVE SMOOTH",
"803 850 OFFCURVE",
"850 777.667 OFFCURVE",
"850 503 CURVE SMOOTH",
"853 286 OFFCURVE",
"856 160 OFFCURVE",
"846.5 134 CURVE SMOOTH",
"842.167 122.667 OFFCURVE",
"776 67 OFFCURVE",
"776 47 CURVE SMOOTH",
"776 7 OFFCURVE",
"830 3 OFFCURVE",
"896 5 CURVE SMOOTH",
"1078.667 5 OFFCURVE",
"1170 19 OFFCURVE",
"1170 47 CURVE SMOOTH",
"1170 72 OFFCURVE",
"1068 112 OFFCURVE",
"1053.5 139 CURVE SMOOTH",
"1044.5 156.333 OFFCURVE",
"1040 227 OFFCURVE",
"1040 351 CURVE SMOOTH",
"1040 727 OFFCURVE",
"1041 963 OFFCURVE",
"754 965 CURVE SMOOTH",
"584 964 OFFCURVE",
"452 836 OFFCURVE",
"429 836 CURVE SMOOTH",
"417 836 OFFCURVE",
"373 949 OFFCURVE",
"313 949 CURVE SMOOTH",
"226 949 OFFCURVE",
"106 936 OFFCURVE",
"106 875 CURVE SMOOTH",
"106 864.425 OFFCURVE",
"195.758 812.42 OFFCURVE",
"205.5 781.5 CURVE SMOOTH",
"215 750 OFFCURVE",
"217 735 OFFCURVE",
"219 488 CURVE SMOOTH",
"219 253 OFFCURVE",
"223 183 OFFCURVE",
"206.5 152.5 CURVE SMOOTH",
"193 128 OFFCURVE",
"93 79 OFFCURVE",
"93 59 CURVE SMOOTH",
"93 2 OFFCURVE",
"176 13 OFFCURVE",
"276 10 CURVE SMOOTH",
"437 7 OFFCURVE",
"497 8 OFFCURVE",
"497 44 CURVE SMOOTH"
);
}
);
width = 1232;
},
{
anchors = (
{
name = top;
position = "{626, 981}";
}
);
layerId = "5CBF0BAD-1756-4F16-9711-93DC239D102B";
paths = (
{
closed = 1;
nodes = (
"1143 -2 OFFCURVE",
"1233 14 OFFCURVE",
"1233 70 CURVE SMOOTH",
"1233 112 OFFCURVE",
"1131 158 OFFCURVE",
"1114 194 CURVE SMOOTH",
"1106 211 OFFCURVE",
"1102 352 OFFCURVE",
"1102 475 CURVE SMOOTH",
"1102 876 OFFCURVE",
"1018 982 OFFCURVE",
"772 982 CURVE SMOOTH",
"618 982 OFFCURVE",
"542 878 OFFCURVE",
"492 878 CURVE SMOOTH",
"458 878 OFFCURVE",
"438 973 OFFCURVE",
"364 973 CURVE SMOOTH",
"262 973 OFFCURVE",
"80 945 OFFCURVE",
"80 891 CURVE SMOOTH",
"80 845 OFFCURVE",
"158 794 OFFCURVE",
"185 728.5 CURVE SMOOTH",
"195 703 OFFCURVE",
"200 614.833 OFFCURVE",
"200 464.5 CURVE SMOOTH",
"200 314.167 OFFCURVE",
"196 230 OFFCURVE",
"193 210.5 CURVE SMOOTH",
"185 160 OFFCURVE",
"80 137 OFFCURVE",
"80 75 CURVE SMOOTH",
"80 9 OFFCURVE",
"140 1 OFFCURVE",
"297.5 1 CURVE SMOOTH",
"517 1 OFFCURVE",
"543 9 OFFCURVE",
"543 58 CURVE SMOOTH",
"543 81 OFFCURVE",
"533.667 100.667 OFFCURVE",
"515 146 CURVE SMOOTH",
"484.333 224 OFFCURVE",
"469 346.667 OFFCURVE",
"469 514 CURVE SMOOTH",
"469 681 OFFCURVE",
"515 808 OFFCURVE",
"675 808 CURVE SMOOTH",
"813 808 OFFCURVE",
"834 687 OFFCURVE",
"834 469 CURVE SMOOTH",
"834 338.333 OFFCURVE",
"830 261 OFFCURVE",
"828 239 CURVE SMOOTH",
"823 186 OFFCURVE",
"770 108 OFFCURVE",
"770 70 CURVE SMOOTH",
"770 8 OFFCURVE",
"824 -2 OFFCURVE",
"969.5 -2 CURVE SMOOTH"
);
}
);
width = 1282;
}
);
note = uni006E;
unicode = 006E;
},
{
glyphname = o;
layers = (
{
anchors = (
{
name = top;
position = "{536, 973}";
}
);
layerId = "92A672BF-229C-4BEC-8D25-4DDBB2A38145";
paths = (
{
closed = 1;
nodes = (
"815 -21 OFFCURVE",
"1014 200 OFFCURVE",
"1014 458 CURVE SMOOTH",
"1014 782 OFFCURVE",
"860 973 OFFCURVE",
"536 973 CURVE SMOOTH",
"276 973 OFFCURVE",
"83 753 OFFCURVE",
"83 493 CURVE SMOOTH",
"83 163 OFFCURVE",
"242 -20 OFFCURVE",
"556 -21 CURVE SMOOTH"
);
},
{
closed = 1;
nodes = (
"360 66 OFFCURVE",
"286 261 OFFCURVE",
"285 498 CURVE SMOOTH",
"285 717 OFFCURVE",
"358 887 OFFCURVE",
"548 887 CURVE SMOOTH",
"708 887 OFFCURVE",
"801 723 OFFCURVE",
"801 430 CURVE SMOOTH",
"801 213 OFFCURVE",
"710 67 OFFCURVE",
"553 66 CURVE"
);
}
);
width = 1112;
},
{
anchors = (
{
name = top;
position = "{581, 990}";
}
);
layerId = "5CBF0BAD-1756-4F16-9711-93DC239D102B";
paths = (
{
closed = 1;
nodes = (
"862 -24 OFFCURVE",
"1076 201 OFFCURVE",
"1076 480 CURVE SMOOTH",
"1076 793 OFFCURVE",
"885 990 OFFCURVE",
"563 990 CURVE SMOOTH",
"288 990 OFFCURVE",
"88 781 OFFCURVE",
"84 469 CURVE SMOOTH",
"84 172 OFFCURVE",
"275 -24 OFFCURVE",
"581 -24 CURVE SMOOTH"
);
},
{
closed = 1;
nodes = (
"440 110 OFFCURVE",
"348 261 OFFCURVE",
"348 472 CURVE SMOOTH",
"348 726 OFFCURVE",
"418 857 OFFCURVE",
"562 857 CURVE SMOOTH",
"675.333 857 OFFCURVE",
"773 713.333 OFFCURVE",
"773 536 CURVE SMOOTH",
"773 356 OFFCURVE",
"768 110 OFFCURVE",
"581 110 CURVE SMOOTH"
);
}
);
width = 1153;
}
);
note = uni006F;
unicode = 006F;
},
{
glyphname = oslash;
layers = (
{
layerId = "92A672BF-229C-4BEC-8D25-4DDBB2A38145";
paths = (
{
closed = 1;
nodes = (
"333 -85 OFFCURVE",
"273 -11 OFFCURVE",
"483 -16 CURVE SMOOTH",
"809 -16 OFFCURVE",
"1014 168 OFFCURVE",
"1014 485 CURVE SMOOTH",
"1014 646 OFFCURVE",
"932 773 OFFCURVE",
"932 862 CURVE SMOOTH",
"932 910 OFFCURVE",
"941 952 OFFCURVE",
"941 995 CURVE SMOOTH",
"941 1024 OFFCURVE",
"928 1039 OFFCURVE",
"902 1039 CURVE SMOOTH",
"847 1039 OFFCURVE",
"804 974 OFFCURVE",
"613 974 CURVE SMOOTH",
"319 974 OFFCURVE",
"101 776 OFFCURVE",
"100 492 CURVE SMOOTH",
"99 233 OFFCURVE",
"201 159 OFFCURVE",
"201 69.5 CURVE SMOOTH",
"201 30.08 OFFCURVE",
"179 -16.692 OFFCURVE",
"179 -49 CURVE SMOOTH",
"179 -73 OFFCURVE",
"190.333 -85 OFFCURVE",
"213 -85 CURVE SMOOTH"
);
},
{
closed = 1;
nodes = (
"462 62 OFFCURVE",
"431 75 OFFCURVE",
"431 113 CURVE SMOOTH",
"431 131 OFFCURVE",
"775 741 OFFCURVE",
"781 741 CURVE SMOOTH",
"795.667 741 OFFCURVE",
"803 706.667 OFFCURVE",
"803 638 CURVE SMOOTH",
"802 466 OFFCURVE",
"779 328 OFFCURVE",
"737 230 CURVE SMOOTH",
"690 121 OFFCURVE",
"620 62 OFFCURVE",
"531 62 CURVE SMOOTH"
);
},
{
closed = 1;
nodes = (
"319 221 OFFCURVE",
"288 382 OFFCURVE",
"288 452 CURVE SMOOTH",
"291 740 OFFCURVE",
"377 892 OFFCURVE",
"546 892 CURVE SMOOTH",
"636 892 OFFCURVE",
"702 861 OFFCURVE",
"702 818 CURVE SMOOTH",
"702 725 OFFCURVE",
"403 221 OFFCURVE",
"349 221 CURVE SMOOTH"
);
}
);
width = 1141;
},
{
layerId = "5CBF0BAD-1756-4F16-9711-93DC239D102B";
paths = (
{
closed = 1;
nodes = (
"308 -98 OFFCURVE",
"343 -23 OFFCURVE",
"517 -23 CURVE SMOOTH",
"835 -23 OFFCURVE",
"1060 209 OFFCURVE",
"1060 524 CURVE SMOOTH",
"1060 658 OFFCURVE",
"980 822 OFFCURVE",
"980 857 CURVE SMOOTH",
"980 906 OFFCURVE",
"1024 929 OFFCURVE",
"1027 994 CURVE SMOOTH",
"1028 1023 OFFCURVE",
"1007.667 1039 OFFCURVE",
"969 1039 CURVE SMOOTH",
"890 1039 OFFCURVE",
"885 968 OFFCURVE",
"729 968 CURVE SMOOTH",
"372 968 OFFCURVE",
"155 736 OFFCURVE",
"155 437 CURVE SMOOTH",
"155 212 OFFCURVE",
"237 143 OFFCURVE",
"237 94 CURVE SMOOTH",
"237 59 OFFCURVE",
"192 -27 OFFCURVE",
"192 -49 CURVE SMOOTH",
"192 -81.667 OFFCURVE",
"210 -98 OFFCURVE",
"246 -98 CURVE SMOOTH"
);
},
{
closed = 1;
nodes = (
"506 93 OFFCURVE",
"496 99 OFFCURVE",
"496 122 CURVE SMOOTH",
"496 151 OFFCURVE",
"601 205 OFFCURVE",
"713 393 CURVE SMOOTH",
"777 500 OFFCURVE",
"818 672 OFFCURVE",
"827 672 CURVE SMOOTH",
"847 672 OFFCURVE",
"782 439 OFFCURVE",
"667 226 CURVE SMOOTH",
"620 140 OFFCURVE",
"578.667 94 OFFCURVE",
"534 94 CURVE SMOOTH"
);
},
{
closed = 1;
nodes = (
"405 280 OFFCURVE",
"381 421 OFFCURVE",
"383 536 CURVE SMOOTH",
"387 739 OFFCURVE",
"464 845 OFFCURVE",
"604 845 CURVE SMOOTH",
"665 845 OFFCURVE",
"728 804 OFFCURVE",
"728 752 CURVE SMOOTH",
"728 700 OFFCURVE",
"494 280 OFFCURVE",
"427 280 CURVE SMOOTH"
);
}
);
width = 1218;
}
);
note = uni00F8;
unicode = 00F8;
},
{
glyphname = oe;
layers = (
{
layerId = "92A672BF-229C-4BEC-8D25-4DDBB2A38145";
paths = (
{
closed = 1;
nodes = (
"737 -12 OFFCURVE",
"873 127 OFFCURVE",
"896 127 CURVE SMOOTH",
"931 127 OFFCURVE",
"1048 -7 OFFCURVE",
"1251.5 -7 CURVE SMOOTH",
"1429 -7 OFFCURVE",
"1614 103 OFFCURVE",
"1614 177 CURVE SMOOTH",
"1614 199 OFFCURVE",
"1602 210 OFFCURVE",
"1578 210 CURVE SMOOTH",
"1558 210 OFFCURVE",
"1397 117 OFFCURVE",
"1299 114 CURVE SMOOTH",
"1133 112 OFFCURVE",
"1009 239 OFFCURVE",
"1009 402 CURVE SMOOTH",
"1009 504 OFFCURVE",
"1051 493 OFFCURVE",
"1163 490 CURVE SMOOTH",
"1304 486 OFFCURVE",
"1547 517 OFFCURVE",
"1570 524 CURVE SMOOTH",
"1615 539 OFFCURVE",
"1635 575 OFFCURVE",
"1638 622 CURVE SMOOTH",
"1653 824 OFFCURVE",
"1486 973 OFFCURVE",
"1271.5 981 CURVE SMOOTH",
"1059 989 OFFCURVE",
"945 842 OFFCURVE",
"900 842 CURVE SMOOTH",
"830 839 OFFCURVE",
"829 983 OFFCURVE",
"541 983 CURVE SMOOTH",
"264 983 OFFCURVE",
"73 773 OFFCURVE",
"73 484 CURVE SMOOTH",
"73 183 OFFCURVE",
"240 -12 OFFCURVE",
"535 -12 CURVE SMOOTH"
);
},
{
closed = 1;
nodes = (
"387 72 OFFCURVE",
"291 234 OFFCURVE",
"289 497 CURVE SMOOTH",
"288 754 OFFCURVE",
"361 896 OFFCURVE",
"499 896 CURVE SMOOTH",
"715 896 OFFCURVE",
"795 690 OFFCURVE",
"795 446 CURVE SMOOTH",
"792 174 OFFCURVE",
"731 72 OFFCURVE",
"531 72 CURVE SMOOTH"
);
},
{
closed = 1;
nodes = (
"1101 578 OFFCURVE",
"1000 550 OFFCURVE",
"998 625 CURVE SMOOTH",
"998 759.667 OFFCURVE",
"1099.333 895 OFFCURVE",
"1218 895 CURVE SMOOTH",
"1363 895 OFFCURVE",
"1431 811 OFFCURVE",
"1432 646 CURVE SMOOTH",
"1432 587 OFFCURVE",
"1387 592 OFFCURVE",
"1253 584 CURVE SMOOTH"
);
}
);
width = 1748;
},
{
layerId = "5CBF0BAD-1756-4F16-9711-93DC239D102B";
paths = (
{
closed = 1;
nodes = (
"731 -23 OFFCURVE",
"817 99 OFFCURVE",
"866 99 CURVE SMOOTH",
"911 99 OFFCURVE",
"981 -22 OFFCURVE",
"1235.5 -22 CURVE SMOOTH",
"1392.167 -22 OFFCURVE",
"1589 66.667 OFFCURVE",
"1589 156 CURVE SMOOTH",
"1589 187.333 OFFCURVE",
"1577.333 203 OFFCURVE",
"1554 203 CURVE SMOOTH",
"1511 203 OFFCURVE",
"1396 145 OFFCURVE",
"1309 145 CURVE SMOOTH",
"1141 145 OFFCURVE",
"1023 265 OFFCURVE",
"1023 400 CURVE SMOOTH",
"1023 431 OFFCURVE",
"1037 461 OFFCURVE",
"1094 461 CURVE SMOOTH",
"1264 461 OFFCURVE",
"1496 476 OFFCURVE",
"1542 491 CURVE SMOOTH",
"1596 508.333 OFFCURVE",
"1623 546.667 OFFCURVE",
"1623 606 CURVE SMOOTH",
"1623 842 OFFCURVE",
"1458 999 OFFCURVE",
"1209 999 CURVE SMOOTH",
"1018 999 OFFCURVE",
"906 871 OFFCURVE",
"882 871 CURVE SMOOTH",
"840 871 OFFCURVE",
"770 998 OFFCURVE",
"506 998 CURVE SMOOTH",
"223 998 OFFCURVE",
"33 806 OFFCURVE",
"33 452 CURVE SMOOTH",
"33 186 OFFCURVE",
"205 -23 OFFCURVE",
"510 -23 CURVE SMOOTH"
);
},
{
closed = 1;
nodes = (
"403 107 OFFCURVE",
"316 253.333 OFFCURVE",
"316 476 CURVE SMOOTH",
"316 759 OFFCURVE",
"378 866 OFFCURVE",
"499 866 CURVE SMOOTH",
"663 866 OFFCURVE",
"734 737 OFFCURVE",
"734 432 CURVE SMOOTH",
"734 229 OFFCURVE",
"665 107 OFFCURVE",
"531 107 CURVE SMOOTH"
);
},
{
closed = 1;
nodes = (
"1027 577 OFFCURVE",
"1018 587 OFFCURVE",
"1018 618 CURVE SMOOTH",
"1018 748.667 OFFCURVE",
"1098.333 865 OFFCURVE",
"1173 865 CURVE SMOOTH",
"1309 865 OFFCURVE",
"1367 801 OFFCURVE",
"1368 666 CURVE SMOOTH",
"1366 587 OFFCURVE",
"1343 579 OFFCURVE",
"1190 579 CURVE SMOOTH"
);
}
);
width = 1754;
}
);
note = uni0153;
unicode = 0153;
},
{
glyphname = p;
layers = (
{
layerId = "92A672BF-229C-4BEC-8D25-4DDBB2A38145";
paths = (
{
closed = 1;
nodes = (
"462.667 -456 OFFCURVE",
"515 -442.667 OFFCURVE",
"515 -416 CURVE SMOOTH",
"515 -388 OFFCURVE",
"425 -342 OFFCURVE",
"401.5 -303.5 CURVE SMOOTH",
"389.167 -283.167 OFFCURVE",
"383 -237 OFFCURVE",
"383 -165 CURVE SMOOTH",
"383 -93 OFFCURVE",
"396 14 OFFCURVE",
"450 14 CURVE SMOOTH",
"479 14 OFFCURVE",
"548 0 OFFCURVE",
"611 2 CURVE SMOOTH",
"887 11 OFFCURVE",
"1073 216 OFFCURVE",
"1073 492 CURVE SMOOTH",
"1073 787 OFFCURVE",
"935 973 OFFCURVE",
"715 977 CURVE SMOOTH",
"534 977 OFFCURVE",
"422 879 OFFCURVE",
"398 879 CURVE SMOOTH",
"365 879 OFFCURVE",
"341.933 962 OFFCURVE",
"281 962 CURVE SMOOTH",
"208 962 OFFCURVE",
"84 941 OFFCURVE",
"84 901 CURVE SMOOTH",
"84 892.371 OFFCURVE",
"185.941 799.198 OFFCURVE",
"193.5 774 CURVE SMOOTH",
"213 709 OFFCURVE",
"215 504 OFFCURVE",
"213 289 CURVE SMOOTH",
"211 63 OFFCURVE",
"204 -176 OFFCURVE",
"184 -273 CURVE SMOOTH",
"171 -336 OFFCURVE",
"81 -373 OFFCURVE",
"81 -409 CURVE SMOOTH",
"81 -444 OFFCURVE",
"165 -456 OFFCURVE",
"358 -456 CURVE SMOOTH"
);
},
{
closed = 1;
nodes = (
"389 80 OFFCURVE",
"387 198 OFFCURVE",
"388 449 CURVE SMOOTH",
"388 709 OFFCURVE",
"415 866 OFFCURVE",
"619 868 CURVE SMOOTH",
"780 870 OFFCURVE",
"873 733 OFFCURVE",
"874 481 CURVE SMOOTH",
"874 242 OFFCURVE",
"803 83 OFFCURVE",
"595 80 CURVE SMOOTH"
);
}
);
width = 1186;
},
{
layerId = "5CBF0BAD-1756-4F16-9711-93DC239D102B";
paths = (
{
closed = 1;
nodes = (
"543 -440 OFFCURVE",
"592 -433 OFFCURVE",
"592 -384 CURVE SMOOTH",
"592 -359 OFFCURVE",
"575 -343 OFFCURVE",
"512 -280 CURVE SMOOTH",
"482.667 -241.333 OFFCURVE",
"468 -194.667 OFFCURVE",
"468 -140 CURVE SMOOTH",
"468 -34 OFFCURVE",
"483 19 OFFCURVE",
"513 19 CURVE SMOOTH",
"560 16 OFFCURVE",
"595 3 OFFCURVE",
"652 3 CURVE SMOOTH",
"952 3 OFFCURVE",
"1136 224 OFFCURVE",
"1136 530 CURVE SMOOTH",
"1136 769 OFFCURVE",
"985 991 OFFCURVE",
"763 991 CURVE SMOOTH",
"563 991 OFFCURVE",
"516 906 OFFCURVE",
"465 906 CURVE SMOOTH",
"428.416 906 OFFCURVE",
"421 979 OFFCURVE",
"363 979 CURVE SMOOTH",
"266 979 OFFCURVE",
"68 951 OFFCURVE",
"68 885 CURVE SMOOTH",
"68 826 OFFCURVE",
"172 802 OFFCURVE",
"187 733.5 CURVE SMOOTH",
"193 706 OFFCURVE",
"197 482 OFFCURVE",
"198 266 CURVE SMOOTH",
"199 82 OFFCURVE",
"198 -95 OFFCURVE",
"192 -140 CURVE SMOOTH",
"175 -267 OFFCURVE",
"82 -347 OFFCURVE",
"82 -387 CURVE SMOOTH",
"82 -433 OFFCURVE",
"138 -441 OFFCURVE",
"356 -440 CURVE"
);
},
{
closed = 1;
nodes = (
"486 117 OFFCURVE",
"448 179 OFFCURVE",
"448 516 CURVE SMOOTH",
"448 763 OFFCURVE",
"483 837 OFFCURVE",
"628 838 CURVE SMOOTH",
"767 838 OFFCURVE",
"844 710 OFFCURVE",
"847 461 CURVE SMOOTH",
"847 245 OFFCURVE",
"772 117 OFFCURVE",
"619 117 CURVE SMOOTH"
);
}
);
width = 1220;
}
);
note = uni0070;
unicode = 0070;
},
{
glyphname = thorn;
layers = (
{
layerId = "92A672BF-229C-4BEC-8D25-4DDBB2A38145";
paths = (
{
closed = 1;
nodes = (
"435 -447 OFFCURVE",
"510 -442 OFFCURVE",
"510 -397 CURVE SMOOTH",
"510 -373 OFFCURVE",
"425 -322 OFFCURVE",
"408.5 -284 CURVE SMOOTH",
"399.5 -264 OFFCURVE",
"395 -224.833 OFFCURVE",
"395 -166.5 CURVE SMOOTH",
"395 -108.167 OFFCURVE",
"408 -2 OFFCURVE",
"467 0 CURVE SMOOTH",
"489 1 OFFCURVE",
"573 1 OFFCURVE",
"611 -1 CURVE SMOOTH",
"895 -1 OFFCURVE",
"1081 207 OFFCURVE",
"1081 491 CURVE SMOOTH",
"1081 770 OFFCURVE",
"953 968 OFFCURVE",
"694 968 CURVE SMOOTH",
"554 968 OFFCURVE",
"447 900 OFFCURVE",
"426 900 CURVE SMOOTH",
"394 900 OFFCURVE",
"388 965 OFFCURVE",
"388 1166 CURVE SMOOTH",
"388 1381 OFFCURVE",
"371 1442 OFFCURVE",
"297 1442 CURVE SMOOTH",
"171 1442 OFFCURVE",
"69 1430 OFFCURVE",
"69 1385 CURVE SMOOTH",
"69 1348 OFFCURVE",
"179 1299 OFFCURVE",
"184.5 1225.5 CURVE SMOOTH",
"188 1181 OFFCURVE",
"195 984 OFFCURVE",
"196 463 CURVE SMOOTH",
"196 82 OFFCURVE",
"186 -244 OFFCURVE",
"174 -288.5 CURVE SMOOTH",
"166.217 -317.862 OFFCURVE",
"89 -397.181 OFFCURVE",
"89 -411 CURVE SMOOTH",
"89 -435 OFFCURVE",
"134 -447 OFFCURVE",
"224 -447 CURVE SMOOTH"
);
},
{
closed = 1;
nodes = (
"403 66 OFFCURVE",
"390 122 OFFCURVE",
"392 436 CURVE SMOOTH",
"392 824 OFFCURVE",
"454 884 OFFCURVE",
"634 884 CURVE SMOOTH",
"780 884 OFFCURVE",
"861 761 OFFCURVE",
"861 455 CURVE SMOOTH",
"861 231 OFFCURVE",
"762 66 OFFCURVE",
"614 66 CURVE SMOOTH"
);
}
);
width = 1194;
},
{
layerId = "5CBF0BAD-1756-4F16-9711-93DC239D102B";
paths = (
{
closed = 1;
nodes = (
"525 -424 OFFCURVE",
"588 -398.333 OFFCURVE",
"588 -347 CURVE SMOOTH",
"588 -322 OFFCURVE",
"534 -275 OFFCURVE",
"524 -259 CURVE SMOOTH",
"504 -226 OFFCURVE",
"494 -170 OFFCURVE",
"494 -120 CURVE SMOOTH",
"493 -77 OFFCURVE",
"500 -38 OFFCURVE",
"516 -24.5 CURVE SMOOTH",
"530.667 -11.5 OFFCURVE",
"572.5 -5 OFFCURVE",
"641.5 -5 CURVE SMOOTH",
"953 -5 OFFCURVE",
"1153 193 OFFCURVE",
"1153 498 CURVE SMOOTH",
"1153 766 OFFCURVE",
"1023 966 OFFCURVE",
"776 969 CURVE SMOOTH",
"682 969 OFFCURVE",
"576 924 OFFCURVE",
"541 924 CURVE SMOOTH",
"497.667 924 OFFCURVE",
"476 1014 OFFCURVE",
"476 1194 CURVE SMOOTH",
"476 1337 OFFCURVE",
"475 1408 OFFCURVE",
"366 1408 CURVE SMOOTH",
"245 1408 OFFCURVE",
"73 1392 OFFCURVE",
"73 1311 CURVE SMOOTH",
"73 1273 OFFCURVE",
"167 1255 OFFCURVE",
"199 1151.5 CURVE SMOOTH",
"211 1111 OFFCURVE",
"210 903.333 OFFCURVE",
"210 530 CURVE SMOOTH",
"210 156.667 OFFCURVE",
"208 -48 OFFCURVE",
"203 -85 CURVE SMOOTH",
"183 -245 OFFCURVE",
"111 -306 OFFCURVE",
"111 -351 CURVE SMOOTH",
"111 -417 OFFCURVE",
"163 -424 OFFCURVE",
"398 -424 CURVE SMOOTH"
);
},
{
closed = 1;
nodes = (
"456 104 OFFCURVE",
"468 210 OFFCURVE",
"465 516 CURVE SMOOTH",
"465 732 OFFCURVE",
"483 845 OFFCURVE",
"663 847 CURVE SMOOTH",
"778 847 OFFCURVE",
"846 710 OFFCURVE",
"846 462 CURVE SMOOTH",
"846 236 OFFCURVE",
"772 104 OFFCURVE",
"625 104 CURVE SMOOTH"
);
}
);
width = 1249;
}
);
note = uni00FE;
unicode = 00FE;
},
{
glyphname = q;
layers = (
{
layerId = "92A672BF-229C-4BEC-8D25-4DDBB2A38145";
paths = (
{
closed = 1;
nodes = (
"1016 -459 OFFCURVE",
"1079 -452 OFFCURVE",
"1079 -407 CURVE SMOOTH",
"1079 -386.793 OFFCURVE",
"1003.362 -341.191 OFFCURVE",
"985.5 -309.5 CURVE SMOOTH",
"965 -272 OFFCURVE",
"970 -216 OFFCURVE",
"969 561 CURVE SMOOTH",
"969 643 OFFCURVE",
"998 807 OFFCURVE",
"998 839 CURVE SMOOTH",
"998 908.333 OFFCURVE",
"973 943 OFFCURVE",
"923 943 CURVE SMOOTH",
"887 943 OFFCURVE",
"858 917 OFFCURVE",
"816 917 CURVE SMOOTH",
"776 917 OFFCURVE",
"630.186 968 OFFCURVE",
"528 968 CURVE SMOOTH",
"277 968 OFFCURVE",
"87 763 OFFCURVE",
"87 502 CURVE SMOOTH",
"87 216 OFFCURVE",
"212 2 OFFCURVE",
"472 2 CURVE SMOOTH",
"569.833 2 OFFCURVE",
"700.249 66 OFFCURVE",
"735 66 CURVE SMOOTH",
"762 66 OFFCURVE",
"773 -18 OFFCURVE",
"774 -106 CURVE SMOOTH",
"774 -181 OFFCURVE",
"766 -258 OFFCURVE",
"755 -290.5 CURVE SMOOTH",
"746.766 -313.601 OFFCURVE",
"644 -407 OFFCURVE",
"644 -427 CURVE SMOOTH",
"644 -453 OFFCURVE",
"695 -459 OFFCURVE",
"825 -459 CURVE SMOOTH"
);
},
{
closed = 1;
nodes = (
"380 90 OFFCURVE",
"284 242 OFFCURVE",
"284 507 CURVE SMOOTH",
"284 701 OFFCURVE",
"372 891 OFFCURVE",
"542 891 CURVE SMOOTH",
"755 891 OFFCURVE",
"764 778 OFFCURVE",
"764 488 CURVE SMOOTH",
"764 162 OFFCURVE",
"733 90 OFFCURVE",
"535 90 CURVE SMOOTH"
);
}
);
width = 1161;
},
{
layerId = "5CBF0BAD-1756-4F16-9711-93DC239D102B";
paths = (
{
closed = 1;
nodes = (
"1075 -450 OFFCURVE",
"1148 -447 OFFCURVE",
"1148 -404 CURVE SMOOTH",
"1148 -356 OFFCURVE",
"1058 -321 OFFCURVE",
"1044 -220 CURVE SMOOTH",
"1038 -177 OFFCURVE",
"1030 71 OFFCURVE",
"1031 321 CURVE SMOOTH",
"1032 700 OFFCURVE",
"1069 747 OFFCURVE",
"1070 830 CURVE SMOOTH",
"1071 923 OFFCURVE",
"1043.667 966 OFFCURVE",
"991 966 CURVE SMOOTH",
"963 966 OFFCURVE",
"910 952 OFFCURVE",
"878 953 CURVE SMOOTH",
"743 957 OFFCURVE",
"716 984 OFFCURVE",
"595 984 CURVE SMOOTH",
"272 984 OFFCURVE",
"87 799 OFFCURVE",
"87 455 CURVE SMOOTH",
"87 209 OFFCURVE",
"250 -9 OFFCURVE",
"483 -9 CURVE SMOOTH",
"606 -9 OFFCURVE",
"686.598 41 OFFCURVE",
"710 41 CURVE SMOOTH",
"741.333 41 OFFCURVE",
"757 13 OFFCURVE",
"757 -43 CURVE SMOOTH",
"757 -153.667 OFFCURVE",
"747.333 -228.333 OFFCURVE",
"728 -267 CURVE SMOOTH",
"706.222 -310.556 OFFCURVE",
"631 -349.63 OFFCURVE",
"631 -401 CURVE SMOOTH",
"631 -455 OFFCURVE",
"731 -454 OFFCURVE",
"846 -454 CURVE SMOOTH"
);
},
{
closed = 1;
nodes = (
"433 140 OFFCURVE",
"345 276 OFFCURVE",
"345 483 CURVE SMOOTH",
"345 716 OFFCURVE",
"429 861 OFFCURVE",
"558 861 CURVE SMOOTH",
"728 861 OFFCURVE",
"746 823 OFFCURVE",
"746 448 CURVE SMOOTH",
"746 257 OFFCURVE",
"738 141 OFFCURVE",
"576 141 CURVE SMOOTH"
);
}
);
width = 1197;
}
);
note = uni0071;
unicode = 0071;
},
{
glyphname = r;
layers = (
{
layerId = "92A672BF-229C-4BEC-8D25-4DDBB2A38145";
paths = (
{
closed = 1;
nodes = (
"505 -1 OFFCURVE",
"573 2 OFFCURVE",
"573 35 CURVE SMOOTH",
"573 91 OFFCURVE",
"475 108 OFFCURVE",
"443 169.5 CURVE SMOOTH",
"432 190 OFFCURVE",
"419 278 OFFCURVE",
"420 459 CURVE SMOOTH",
"421 615 OFFCURVE",
"453 799 OFFCURVE",
"596 799 CURVE SMOOTH",
"648 799 OFFCURVE",
"702 742 OFFCURVE",
"773 742 CURVE SMOOTH",
"808 742 OFFCURVE",
"836 782 OFFCURVE",
"836 818 CURVE SMOOTH",
"835 906 OFFCURVE",
"778 950 OFFCURVE",
"725 950 CURVE SMOOTH",
"571 950 OFFCURVE",
"488 837 OFFCURVE",
"447 837 CURVE SMOOTH",
"419 837 OFFCURVE",
"400 954 OFFCURVE",
"323 954 CURVE SMOOTH",
"243 954 OFFCURVE",
"102 932 OFFCURVE",
"102 891 CURVE SMOOTH",
"102 867 OFFCURVE",
"198 799 OFFCURVE",
"208 763.5 CURVE SMOOTH",
"217 730 OFFCURVE",
"223 627.833 OFFCURVE",
"223 459.5 CURVE SMOOTH",
"223 291.167 OFFCURVE",
"215 193 OFFCURVE",
"207.5 163 CURVE SMOOTH",
"199 130 OFFCURVE",
"96 78 OFFCURVE",
"96 43 CURVE SMOOTH",
"96 9 OFFCURVE",
"136 2 OFFCURVE",
"319 -1 CURVE SMOOTH"
);
}
);
width = 878;
},
{
layerId = "5CBF0BAD-1756-4F16-9711-93DC239D102B";
paths = (
{
closed = 1;
nodes = (
"578 1 OFFCURVE",
"635 17 OFFCURVE",
"635 49 CURVE SMOOTH",
"635 115 OFFCURVE",
"527.064 197.076 OFFCURVE",
"498 257.5 CURVE SMOOTH",
"483 289 OFFCURVE",
"479 375 OFFCURVE",
"479 459 CURVE SMOOTH",
"479 630 OFFCURVE",
"503 760 OFFCURVE",
"622 760 CURVE SMOOTH",
"683 760 OFFCURVE",
"722 708 OFFCURVE",
"812 708 CURVE SMOOTH",
"858 708 OFFCURVE",
"892 754 OFFCURVE",
"892 834 CURVE SMOOTH",
"892 902 OFFCURVE",
"856 953 OFFCURVE",
"755 953 CURVE SMOOTH",
"616 953 OFFCURVE",
"554 855 OFFCURVE",
"505 855 CURVE SMOOTH",
"481 855 OFFCURVE",
"479 968 OFFCURVE",
"388 968 CURVE SMOOTH",
"253 968 OFFCURVE",
"81 946 OFFCURVE",
"81 875 CURVE SMOOTH",
"81 823 OFFCURVE",
"181 805 OFFCURVE",
"197.5 738 CURVE SMOOTH",
"205 709 OFFCURVE",
"211 622.667 OFFCURVE",
"211 478 CURVE SMOOTH",
"211 333.333 OFFCURVE",
"207.167 248.667 OFFCURVE",
"199.5 224 CURVE SMOOTH",
"181 166 OFFCURVE",
"81 115 OFFCURVE",
"81 60 CURVE SMOOTH",
"81 10 OFFCURVE",
"107 1 OFFCURVE",
"343 1 CURVE SMOOTH"
);
}
);
width = 941;
}
);
note = uni0072;
unicode = 0072;
},
{
glyphname = s;
layers = (
{
anchors = (
{
name = top;
position = "{464, 971}";
}
);
layerId = "92A672BF-229C-4BEC-8D25-4DDBB2A38145";
paths = (
{
closed = 1;
nodes = (
"806 414 OFFCURVE",
"714 481 OFFCURVE",
"525.5 558.5 CURVE SMOOTH",
"393 612 OFFCURVE",
"278 656 OFFCURVE",
"281 759 CURVE SMOOTH",
"282 825 OFFCURVE",
"343 884 OFFCURVE",
"447.5 884 CURVE SMOOTH",
"619 884 OFFCURVE",
"639 704 OFFCURVE",
"707 704 CURVE SMOOTH",
"746.333 704 OFFCURVE",
"766 743.333 OFFCURVE",
"766 822 CURVE SMOOTH",
"766 967 OFFCURVE",
"652 971 OFFCURVE",
"447 971 CURVE SMOOTH",
"256.333 971 OFFCURVE",
"118 859 OFFCURVE",
"118 715 CURVE SMOOTH",
"118 549 OFFCURVE",
"236 483 OFFCURVE",
"445 386 CURVE SMOOTH",
"552 335 OFFCURVE",
"641 313 OFFCURVE",
"636 205 CURVE SMOOTH",
"631 114 OFFCURVE",
"551 67 OFFCURVE",
"445 69 CURVE SMOOTH",
"243 72 OFFCURVE",
"203 282 OFFCURVE",
"151 282 CURVE SMOOTH",
"109 282 OFFCURVE",
"96 245 OFFCURVE",
"96 155 CURVE SMOOTH",
"96 19 OFFCURVE",
"180 -17 OFFCURVE",
"457 -17 CURVE SMOOTH",
"638 -17 OFFCURVE",
"806 80 OFFCURVE",
"806 246 CURVE SMOOTH"
);
}
);
width = 894;
},
{
anchors = (
{
name = top;
position = "{464, 991}";
}
);
layerId = "5CBF0BAD-1756-4F16-9711-93DC239D102B";
paths = (
{
closed = 1;
nodes = (
"706.667 -22 OFFCURVE",
"853 111.333 OFFCURVE",
"853 266 CURVE SMOOTH",
"853 417 OFFCURVE",
"766 484 OFFCURVE",
"572 580 CURVE SMOOTH",
"436 646 OFFCURVE",
"333 663 OFFCURVE",
"333 763 CURVE SMOOTH",
"333 809.667 OFFCURVE",
"380.333 856 OFFCURVE",
"455 856 CURVE SMOOTH",
"612 856 OFFCURVE",
"645 694 OFFCURVE",
"738 694 CURVE SMOOTH",
"790 694 OFFCURVE",
"801 723 OFFCURVE",
"801 814 CURVE SMOOTH",
"801 957 OFFCURVE",
"727 986 OFFCURVE",
"461 986 CURVE SMOOTH",
"244 986 OFFCURVE",
"94 870 OFFCURVE",
"94 709.5 CURVE SMOOTH",
"94 548 OFFCURVE",
"204 468 OFFCURVE",
"375.5 394.5 CURVE SMOOTH",
"504 340 OFFCURVE",
"601 288 OFFCURVE",
"601 213 CURVE SMOOTH",
"601 143 OFFCURVE",
"534 110 OFFCURVE",
"458 110 CURVE SMOOTH",
"307 110 OFFCURVE",
"241 296 OFFCURVE",
"133 296 CURVE SMOOTH",
"103 296 OFFCURVE",
"88 256 OFFCURVE",
"88 176 CURVE SMOOTH",
"88 14 OFFCURVE",
"173 -22 OFFCURVE",
"500 -22 CURVE SMOOTH"
);
}
);
width = 924;
}
);
note = uni0073;
unicode = 0073;
},
{
glyphname = germandbls;
layers = (
{
layerId = "92A672BF-229C-4BEC-8D25-4DDBB2A38145";
paths = (
{
closed = 1;
nodes = (
"1022.333 -5 OFFCURVE",
"1177 118.5 OFFCURVE",
"1177 284.5 CURVE SMOOTH",
"1177 580 OFFCURVE",
"825 671 OFFCURVE",
"825 806.5 CURVE SMOOTH",
"825 930 OFFCURVE",
"1010 1035 OFFCURVE",
"1010 1180 CURVE SMOOTH",
"1010 1346 OFFCURVE",
"843 1466 OFFCURVE",
"660 1466 CURVE SMOOTH",
"434.667 1466 OFFCURVE",
"273 1358 OFFCURVE",
"225 1131 CURVE SMOOTH",
"190 967 OFFCURVE",
"158 935 OFFCURVE",
"158 872 CURVE SMOOTH",
"158 809 OFFCURVE",
"205 715 OFFCURVE",
"204.5 660 CURVE SMOOTH",
"204 572 OFFCURVE",
"200 256 OFFCURVE",
"200 184 CURVE SMOOTH",
"200 131 OFFCURVE",
"101 75 OFFCURVE",
"101 28 CURVE SMOOTH",
"101 3 OFFCURVE",
"141.333 -12 OFFCURVE",
"222 -12 CURVE SMOOTH",
"337 -12 OFFCURVE",
"423 -14 OFFCURVE",
"423 70 CURVE SMOOTH",
"423 126 OFFCURVE",
"415 366 OFFCURVE",
"415 695 CURVE SMOOTH",
"415 1065 OFFCURVE",
"409 1348 OFFCURVE",
"656 1348 CURVE SMOOTH",
"753.333 1348 OFFCURVE",
"826 1273.333 OFFCURVE",
"826 1168 CURVE SMOOTH",
"826 1055.801 OFFCURVE",
"643 879.098 OFFCURVE",
"643 755 CURVE SMOOTH",
"644 537 OFFCURVE",
"972 504 OFFCURVE",
"976 286 CURVE SMOOTH",
"976 197 OFFCURVE",
"910 126 OFFCURVE",
"812 126 CURVE SMOOTH",
"763 126 OFFCURVE",
"702 212 OFFCURVE",
"669 212 CURVE SMOOTH",
"623.667 212 OFFCURVE",
"601 186 OFFCURVE",
"601 134 CURVE SMOOTH",
"601 41.333 OFFCURVE",
"677 -5 OFFCURVE",
"829 -5 CURVE SMOOTH"
);
}
);
width = 1255;
},
{
layerId = "5CBF0BAD-1756-4F16-9711-93DC239D102B";
paths = (
{
closed = 1;
nodes = (
"655.333 204 OFFCURVE",
"631 162.667 OFFCURVE",
"631 128 CURVE SMOOTH",
"631 41.333 OFFCURVE",
"706.667 -2 OFFCURVE",
"858 -2 CURVE SMOOTH",
"1077 -2 OFFCURVE",
"1231 111 OFFCURVE",
"1231 327 CURVE SMOOTH",
"1231 601 OFFCURVE",
"901 661 OFFCURVE",
"901 788 CURVE SMOOTH",
"901 920 OFFCURVE",
"1079 976 OFFCURVE",
"1079 1115 CURVE SMOOTH",
"1079 1312.333 OFFCURVE",
"903.333 1436 OFFCURVE",
"674 1436 CURVE SMOOTH",
"513 1436 OFFCURVE",
"390 1383 OFFCURVE",
"305 1276 CURVE SMOOTH",
"250 1207 OFFCURVE",
"144 920 OFFCURVE",
"144 835 CURVE SMOOTH",
"144 805 OFFCURVE",
"194 726 OFFCURVE",
"194 425 CURVE SMOOTH",
"194 286.333 OFFCURVE",
"177.333 189.333 OFFCURVE",
"144 134 CURVE SMOOTH",
"122 110 OFFCURVE",
"77 87 OFFCURVE",
"77 63 CURVE SMOOTH",
"77 10 OFFCURVE",
"103 -20 OFFCURVE",
"190 -20 CURVE SMOOTH",
"440 -20 OFFCURVE",
"487 -7 OFFCURVE",
"487 143 CURVE SMOOTH",
"487 159 OFFCURVE",
"470 542 OFFCURVE",
"470 642 CURVE SMOOTH",
"470 988 OFFCURVE",
"465 1276 OFFCURVE",
"675.5 1276 CURVE SMOOTH",
"722 1276 OFFCURVE",
"808 1231 OFFCURVE",
"808 1142 CURVE SMOOTH",
"808 995 OFFCURVE",
"635 908 OFFCURVE",
"635 758 CURVE SMOOTH",
"635 523 OFFCURVE",
"964 515 OFFCURVE",
"964 307 CURVE SMOOTH",
"964 233.667 OFFCURVE",
"903.333 171 OFFCURVE",
"814 171 CURVE SMOOTH",
"782 171 OFFCURVE",
"750 204 OFFCURVE",
"718 204 CURVE SMOOTH"
);
}
);
width = 1308;
}
);
note = uni00DF;
unicode = 00DF;
},
{
glyphname = t;
layers = (
{
layerId = "92A672BF-229C-4BEC-8D25-4DDBB2A38145";
paths = (
{
closed = 1;
nodes = (
"538 -13 OFFCURVE",
"686 44 OFFCURVE",
"686 109 CURVE SMOOTH",
"686 135 OFFCURVE",
"675 148 OFFCURVE",
"653 148 CURVE SMOOTH",
"636 148 OFFCURVE",
"536 113 OFFCURVE",
"499 113 CURVE SMOOTH",
"386 113 OFFCURVE",
"388 290 OFFCURVE",
"387 488 CURVE SMOOTH",
"386 629 OFFCURVE",
"375.243 730.792 OFFCURVE",
"419 806 CURVE SMOOTH",
"457.222 873.45 OFFCURVE",
"634 830 OFFCURVE",
"634 903.5 CURVE SMOOTH",
"634 928 OFFCURVE",
"604 947 OFFCURVE",
"543 961 CURVE SMOOTH",
"422 989 OFFCURVE",
"407 1015 OFFCURVE",
"395 1103.5 CURVE SMOOTH",
"385 1174 OFFCURVE",
"384 1217 OFFCURVE",
"325.5 1217 CURVE SMOOTH",
"298.5 1217 OFFCURVE",
"273 1183 OFFCURVE",
"248.5 1115 CURVE SMOOTH",
"200 979 OFFCURVE",
"106 936 OFFCURVE",
"82 893 CURVE SMOOTH",
"68 868 OFFCURVE",
"166 816 OFFCURVE",
"179.5 784 CURVE SMOOTH",
"198 739 OFFCURVE",
"199 678 OFFCURVE",
"201 447 CURVE SMOOTH",
"201 177 OFFCURVE",
"224 -13 OFFCURVE",
"451.5 -13 CURVE SMOOTH"
);
}
);
width = 743;
},
{
layerId = "5CBF0BAD-1756-4F16-9711-93DC239D102B";
paths = (
{
closed = 1;
nodes = (
"560 -12 OFFCURVE",
"739 34 OFFCURVE",
"739 132 CURVE SMOOTH",
"739 162.667 OFFCURVE",
"718.667 178 OFFCURVE",
"678 178 CURVE SMOOTH",
"657 178 OFFCURVE",
"628 174 OFFCURVE",
"582 174 CURVE SMOOTH",
"470 174 OFFCURVE",
"455 270 OFFCURVE",
"455 499 CURVE SMOOTH",
"455 598 OFFCURVE",
"462 727 OFFCURVE",
"488 766 CURVE SMOOTH",
"524 821 OFFCURVE",
"694 835 OFFCURVE",
"694 896 CURVE SMOOTH",
"694 942 OFFCURVE",
"651 962 OFFCURVE",
"593 978 CURVE SMOOTH",
"565 986 OFFCURVE",
"520 1012 OFFCURVE",
"496 1038 CURVE SMOOTH",
"473 1063 OFFCURVE",
"468 1244 OFFCURVE",
"364 1244 CURVE SMOOTH",
"253 1244 OFFCURVE",
"240 1112 OFFCURVE",
"181 990 CURVE SMOOTH",
"168 963 OFFCURVE",
"62 927 OFFCURVE",
"62 888.5 CURVE SMOOTH",
"62 866.562 OFFCURVE",
"151.889 791.499 OFFCURVE",
"160 755 CURVE SMOOTH",
"178.667 673.667 OFFCURVE",
"188 575.333 OFFCURVE",
"188 460 CURVE SMOOTH",
"188 183 OFFCURVE",
"216 -12 OFFCURVE",
"441 -12 CURVE SMOOTH"
);
}
);
width = 804;
}
);
note = uni0074;
unicode = 0074;
},
{
glyphname = u;
layers = (
{
anchors = (
{
name = top;
position = "{547, 952}";
}
);
layerId = "92A672BF-229C-4BEC-8D25-4DDBB2A38145";
paths = (
{
closed = 1;
nodes = (
"643 -16 OFFCURVE",
"717 88 OFFCURVE",
"775 91 CURVE SMOOTH",
"805 93 OFFCURVE",
"825 39 OFFCURVE",
"867 10 CURVE SMOOTH",
"892 -7 OFFCURVE",
"943 -16 OFFCURVE",
"993 -14 CURVE SMOOTH",
"1060 -12 OFFCURVE",
"1124 9 OFFCURVE",
"1124 51 CURVE SMOOTH",
"1124 78 OFFCURVE",
"1023 158 OFFCURVE",
"1017 180.5 CURVE SMOOTH",
"1007.667 217.5 OFFCURVE",
"998 327 OFFCURVE",
"1003 510 CURVE SMOOTH",
"1010 748 OFFCURVE",
"1002 860 OFFCURVE",
"984 911 CURVE SMOOTH",
"970 950 OFFCURVE",
"951 955 OFFCURVE",
"927 955 CURVE SMOOTH",
"786 955 OFFCURVE",
"717 942 OFFCURVE",
"717 916 CURVE SMOOTH",
"717 877 OFFCURVE",
"788 854 OFFCURVE",
"801 803 CURVE SMOOTH",
"807 779.667 OFFCURVE",
"810 686.167 OFFCURVE",
"810 522.5 CURVE SMOOTH",
"810 195.167 OFFCURVE",
"725 108 OFFCURVE",
"563 106 CURVE SMOOTH",
"385 103 OFFCURVE",
"385 277 OFFCURVE",
"385 526 CURVE SMOOTH",
"385 688 OFFCURVE",
"393 826 OFFCURVE",
"364 900 CURVE SMOOTH",
"349 937 OFFCURVE",
"325 958 OFFCURVE",
"285 958 CURVE SMOOTH",
"142 958 OFFCURVE",
"56 952 OFFCURVE",
"56 905 CURVE SMOOTH",
"56 860 OFFCURVE",
"151.669 859.034 OFFCURVE",
"173.5 814.5 CURVE SMOOTH",
"224 712 OFFCURVE",
"182 541 OFFCURVE",
"182 378 CURVE SMOOTH",
"182 146 OFFCURVE",
"242 -18 OFFCURVE",
"463 -17 CURVE SMOOTH"
);
}
);
width = 1203;
},
{
anchors = (
{
name = top;
position = "{582, 952}";
}
);
layerId = "5CBF0BAD-1756-4F16-9711-93DC239D102B";
paths = (
{
closed = 1;
nodes = (
"672 -19 OFFCURVE",
"736 96 OFFCURVE",
"786 96 CURVE SMOOTH",
"795 96 OFFCURVE",
"806 88 OFFCURVE",
"815 64.5 CURVE SMOOTH",
"834 15 OFFCURVE",
"875 -5 OFFCURVE",
"949 -5 CURVE SMOOTH",
"1102 -5 OFFCURVE",
"1178 22 OFFCURVE",
"1178 76 CURVE SMOOTH",
"1178 105 OFFCURVE",
"1102 159 OFFCURVE",
"1079 250 CURVE SMOOTH",
"1070 284 OFFCURVE",
"1067 375.333 OFFCURVE",
"1067 522 CURVE SMOOTH",
"1070 749 OFFCURVE",
"1075 801 OFFCURVE",
"1075 861 CURVE SMOOTH",
"1075 903 OFFCURVE",
"1034 970 OFFCURVE",
"983 970 CURVE SMOOTH",
"791 970 OFFCURVE",
"697 956 OFFCURVE",
"697 906 CURVE SMOOTH",
"697 867 OFFCURVE",
"758 798 OFFCURVE",
"781 705 CURVE SMOOTH",
"794 654 OFFCURVE",
"799 597 OFFCURVE",
"799 451 CURVE SMOOTH",
"799 214 OFFCURVE",
"750 148 OFFCURVE",
"600 148 CURVE SMOOTH",
"481 148 OFFCURVE",
"441 190 OFFCURVE",
"441 603 CURVE SMOOTH",
"441 787 OFFCURVE",
"434 875 OFFCURVE",
"421 912 CURVE SMOOTH",
"407.667 950 OFFCURVE",
"379 969 OFFCURVE",
"335 969 CURVE SMOOTH",
"186 969 OFFCURVE",
"44 949 OFFCURVE",
"44 880 CURVE SMOOTH",
"44 822 OFFCURVE",
"154 805 OFFCURVE",
"161.5 772 CURVE SMOOTH",
"175 711 OFFCURVE",
"170 502 OFFCURVE",
"172 340 CURVE SMOOTH",
"175 121 OFFCURVE",
"265 -19 OFFCURVE",
"468 -19 CURVE SMOOTH"
);
}
);
width = 1249;
}
);
note = uni0075;
unicode = 0075;
},
{
glyphname = v;
layers = (
{
layerId = "92A672BF-229C-4BEC-8D25-4DDBB2A38145";
paths = (
{
closed = 1;
nodes = (
"581.5 -12 OFFCURVE",
"617.167 21.667 OFFCURVE",
"651.5 89 CURVE SMOOTH",
"664 113 OFFCURVE",
"937 768 OFFCURVE",
"944 780 CURVE SMOOTH",
"970 828 OFFCURVE",
"1071 872 OFFCURVE",
"1071 915 CURVE SMOOTH",
"1071 944 OFFCURVE",
"1026 954 OFFCURVE",
"925 954 CURVE SMOOTH",
"805.667 954 OFFCURVE",
"746 942 OFFCURVE",
"746 918 CURVE SMOOTH",
"746 901 OFFCURVE",
"816 832 OFFCURVE",
"816 795 CURVE SMOOTH",
"816 708.333 OFFCURVE",
"760.333 548 OFFCURVE",
"649 314 CURVE SMOOTH",
"620.333 253.333 OFFCURVE",
"603.333 223 OFFCURVE",
"598 223 CURVE SMOOTH",
"586.667 223 OFFCURVE",
"573.5 239.5 OFFCURVE",
"558.5 272.5 CURVE SMOOTH",
"534 327 OFFCURVE",
"373 786 OFFCURVE",
"373 827.5 CURVE SMOOTH",
"373 845.833 OFFCURVE",
"388.333 873.667 OFFCURVE",
"419 911 CURVE",
"419 950 OFFCURVE",
"385 950 OFFCURVE",
"252 952 CURVE SMOOTH",
"104 952 OFFCURVE",
"30 940 OFFCURVE",
"30 916 CURVE SMOOTH",
"30 877 OFFCURVE",
"135 833 OFFCURVE",
"166 776 CURVE SMOOTH",
"262 596 OFFCURVE",
"369 233 OFFCURVE",
"436 96 CURVE SMOOTH",
"471.333 24 OFFCURVE",
"507.5 -12 OFFCURVE",
"544.5 -12 CURVE SMOOTH"
);
}
);
width = 1096;
},
{
layerId = "5CBF0BAD-1756-4F16-9711-93DC239D102B";
paths = (
{
closed = 1;
nodes = (
"639 -18 OFFCURVE",
"681 4 OFFCURVE",
"712 73 CURVE SMOOTH",
"825 324 OFFCURVE",
"879 486 OFFCURVE",
"973 702 CURVE SMOOTH",
"1013 794 OFFCURVE",
"1121 840 OFFCURVE",
"1121 907 CURVE SMOOTH",
"1121 945 OFFCURVE",
"1074.667 964 OFFCURVE",
"982 964 CURVE SMOOTH",
"831.333 964 OFFCURVE",
"756 948.333 OFFCURVE",
"756 917 CURVE SMOOTH",
"756 872 OFFCURVE",
"798 827 OFFCURVE",
"798 775 CURVE SMOOTH",
"798 700.333 OFFCURVE",
"756.667 565 OFFCURVE",
"674 369 CURVE SMOOTH",
"656 326.333 OFFCURVE",
"643.333 305 OFFCURVE",
"636 305 CURVE SMOOTH",
"628.667 305 OFFCURVE",
"615.667 325.667 OFFCURVE",
"597 367 CURVE SMOOTH",
"508.333 566.333 OFFCURVE",
"464 708.667 OFFCURVE",
"464 794 CURVE SMOOTH",
"464 831.939 OFFCURVE",
"494 879.2 OFFCURVE",
"494 910.5 CURVE SMOOTH",
"494 959 OFFCURVE",
"460 965 OFFCURVE",
"289 964 CURVE SMOOTH",
"84 964 OFFCURVE",
"23 958 OFFCURVE",
"23 907 CURVE SMOOTH",
"23 881 OFFCURVE",
"154 764 OFFCURVE",
"175 725 CURVE SMOOTH",
"222 636 OFFCURVE",
"418 119 OFFCURVE",
"475 36 CURVE SMOOTH",
"499 1 OFFCURVE",
"534 -18 OFFCURVE",
"580 -18 CURVE SMOOTH"
);
}
);
width = 1151;
}
);
note = uni0076;
unicode = 0076;
},
{
glyphname = w;
layers = (
{
layerId = "92A672BF-229C-4BEC-8D25-4DDBB2A38145";
paths = (
{
closed = 1;
nodes = (
"1152 19 OFFCURVE",
"1184.167 40.333 OFFCURVE",
"1208.5 83 CURVE SMOOTH",
"1267 185 OFFCURVE",
"1394 622 OFFCURVE",
"1458 763 CURVE SMOOTH",
"1479 810 OFFCURVE",
"1535 883 OFFCURVE",
"1535 915 CURVE SMOOTH",
"1535 935 OFFCURVE",
"1504 948 OFFCURVE",
"1442 948 CURVE SMOOTH",
"1342 948 OFFCURVE",
"1292 925 OFFCURVE",
"1292 879 CURVE SMOOTH",
"1292 844 OFFCURVE",
"1316 817 OFFCURVE",
"1316 774 CURVE SMOOTH",
"1316 670 OFFCURVE",
"1212 304 OFFCURVE",
"1146 304 CURVE SMOOTH",
"1096 304 OFFCURVE",
"969 638 OFFCURVE",
"973 704 CURVE SMOOTH",
"975 740 OFFCURVE",
"981 790 OFFCURVE",
"983 826 CURVE SMOOTH",
"988 912 OFFCURVE",
"918 932 OFFCURVE",
"834.5 932 CURVE SMOOTH",
"769 932 OFFCURVE",
"675 891 OFFCURVE",
"675 840 CURVE SMOOTH",
"675 824.667 OFFCURVE",
"698 776 OFFCURVE",
"698 678 CURVE SMOOTH",
"698 549 OFFCURVE",
"609 292 OFFCURVE",
"565 292 CURVE SMOOTH",
"510.333 292 OFFCURVE",
"386 637 OFFCURVE",
"386 793 CURVE SMOOTH",
"387 811 OFFCURVE",
"389 830 OFFCURVE",
"390 848 CURVE SMOOTH",
"390 938 OFFCURVE",
"323 961 OFFCURVE",
"203 961 CURVE SMOOTH",
"137 961 OFFCURVE",
"81 960.961 OFFCURVE",
"81 894 CURVE SMOOTH",
"81 883.333 OFFCURVE",
"92 860.667 OFFCURVE",
"114 826 CURVE SMOOTH",
"267 582 OFFCURVE",
"294 346 OFFCURVE",
"393 134 CURVE SMOOTH",
"425.667 63.333 OFFCURVE",
"461 28 OFFCURVE",
"499 28 CURVE SMOOTH",
"527 28 OFFCURVE",
"555.333 54 OFFCURVE",
"584 106 CURVE SMOOTH",
"599 133 OFFCURVE",
"789 592 OFFCURVE",
"806 592 CURVE SMOOTH",
"833 592 OFFCURVE",
"997 155 OFFCURVE",
"1028 98 CURVE SMOOTH",
"1056.667 45.333 OFFCURVE",
"1084.667 19 OFFCURVE",
"1112 19 CURVE SMOOTH"
);
}
);
width = 1611;
},
{
layerId = "5CBF0BAD-1756-4F16-9711-93DC239D102B";
paths = (
{
closed = 1;
nodes = (
"1182.667 -4 OFFCURVE",
"1227.667 26.667 OFFCURVE",
"1259 88 CURVE SMOOTH",
"1299 164 OFFCURVE",
"1451 660 OFFCURVE",
"1500 749 CURVE SMOOTH",
"1519 785 OFFCURVE",
"1592 843 OFFCURVE",
"1592 894 CURVE SMOOTH",
"1592 946 OFFCURVE",
"1530 959 OFFCURVE",
"1461 959 CURVE SMOOTH",
"1378 958 OFFCURVE",
"1285 932 OFFCURVE",
"1285 859 CURVE SMOOTH",
"1287 823 OFFCURVE",
"1290 786 OFFCURVE",
"1292 750 CURVE SMOOTH",
"1292 594 OFFCURVE",
"1212 392 OFFCURVE",
"1168 392 CURVE SMOOTH",
"1129 392 OFFCURVE",
"1074 570 OFFCURVE",
"1055 684 CURVE SMOOTH",
"1050 710 OFFCURVE",
"1048 732 OFFCURVE",
"1048 749 CURVE SMOOTH",
"1048 881.667 OFFCURVE",
"992 948 OFFCURVE",
"880 948 CURVE SMOOTH",
"764 948 OFFCURVE",
"692 909 OFFCURVE",
"692 777 CURVE SMOOTH",
"693 709 OFFCURVE",
"694 664 OFFCURVE",
"690 626 CURVE SMOOTH",
"683 553 OFFCURVE",
"638 406 OFFCURVE",
"594 406 CURVE SMOOTH",
"534 406 OFFCURVE",
"495 594 OFFCURVE",
"474.5 724.5 CURVE SMOOTH",
"460.167 814.833 OFFCURVE",
"448.667 867.333 OFFCURVE",
"440 882 CURVE SMOOTH",
"410.667 932.667 OFFCURVE",
"346 958 OFFCURVE",
"246 958 CURVE SMOOTH",
"107 958 OFFCURVE",
"52 948 OFFCURVE",
"52 877 CURVE SMOOTH",
"52 849 OFFCURVE",
"128 786 OFFCURVE",
"183 662 CURVE SMOOTH",
"221 577 OFFCURVE",
"373.881 146.559 OFFCURVE",
"398 101 CURVE SMOOTH",
"434 33.667 OFFCURVE",
"475 0 OFFCURVE",
"521 0 CURVE SMOOTH",
"567 0 OFFCURVE",
"602 21 OFFCURVE",
"626 63 CURVE SMOOTH",
"644 95 OFFCURVE",
"818 531 OFFCURVE",
"835 531 CURVE SMOOTH",
"855 531 OFFCURVE",
"1013 105 OFFCURVE",
"1029 74 CURVE SMOOTH",
"1056.333 22 OFFCURVE",
"1088 -4 OFFCURVE",
"1124 -4 CURVE SMOOTH"
);
}
);
width = 1651;
}
);
note = uni0077;
unicode = 0077;
},
{
glyphname = x;
layers = (
{
layerId = "92A672BF-229C-4BEC-8D25-4DDBB2A38145";
paths = (
{
closed = 1;
nodes = (
"314 -5 OFFCURVE",
"378 0 OFFCURVE",
"378 28 CURVE SMOOTH",
"378 51 OFFCURVE",
"339 65 OFFCURVE",
"339 97 CURVE SMOOTH",
"339 167 OFFCURVE",
"484.333 344 OFFCURVE",
"519 344 CURVE SMOOTH",
"544 344 OFFCURVE",
"690 132.333 OFFCURVE",
"690 91 CURVE SMOOTH",
"690 70 OFFCURVE",
"656 56 OFFCURVE",
"656 36 CURVE SMOOTH",
"656 13.333 OFFCURVE",
"700.333 2 OFFCURVE",
"789 2 CURVE SMOOTH",
"964.333 2 OFFCURVE",
"1052 14.667 OFFCURVE",
"1052 40 CURVE SMOOTH",
"1052 56 OFFCURVE",
"932 131 OFFCURVE",
"896 174 CURVE SMOOTH",
"746.667 349.333 OFFCURVE",
"672 457.5 OFFCURVE",
"672 498.5 CURVE SMOOTH",
"672 539.5 OFFCURVE",
"735.667 633 OFFCURVE",
"863 779 CURVE SMOOTH",
"899 821 OFFCURVE",
"1030 874 OFFCURVE",
"1030 907 CURVE SMOOTH",
"1030 935.667 OFFCURVE",
"978.833 950 OFFCURVE",
"876.5 950 CURVE SMOOTH",
"774.167 950 OFFCURVE",
"723 937.333 OFFCURVE",
"723 912 CURVE SMOOTH",
"723 893 OFFCURVE",
"754 864 OFFCURVE",
"754 848 CURVE SMOOTH",
"754 796 OFFCURVE",
"631 627 OFFCURVE",
"585 627 CURVE SMOOTH",
"561 627 OFFCURVE",
"429 814 OFFCURVE",
"429 858 CURVE SMOOTH",
"429 879 OFFCURVE",
"457 899 OFFCURVE",
"457 918 CURVE SMOOTH",
"457 950 OFFCURVE",
"427 952 OFFCURVE",
"326 952 CURVE SMOOTH",
"156.667 952 OFFCURVE",
"72 936.333 OFFCURVE",
"72 905 CURVE SMOOTH",
"72 879 OFFCURVE",
"189 818 OFFCURVE",
"227 774 CURVE SMOOTH",
"362.333 614.667 OFFCURVE",
"430 513.5 OFFCURVE",
"430 470.5 CURVE SMOOTH",
"430 427.5 OFFCURVE",
"358.667 326 OFFCURVE",
"216 166 CURVE SMOOTH",
"179 124 OFFCURVE",
"55 69 OFFCURVE",
"55 36 CURVE SMOOTH",
"55 8.667 OFFCURVE",
"111.667 -5 OFFCURVE",
"225 -5 CURVE SMOOTH"
);
}
);
width = 1105;
},
{
layerId = "5CBF0BAD-1756-4F16-9711-93DC239D102B";
paths = (
{
closed = 1;
nodes = (
"430 88 OFFCURVE",
"408 124 OFFCURVE",
"408 160 CURVE SMOOTH",
"408 219 OFFCURVE",
"486 336 OFFCURVE",
"536 336 CURVE SMOOTH",
"557.333 336 OFFCURVE",
"655 202 OFFCURVE",
"655 132 CURVE SMOOTH",
"655 114 OFFCURVE",
"648 95 OFFCURVE",
"648 69 CURVE SMOOTH",
"648 2 OFFCURVE",
"667 1 OFFCURVE",
"834 1 CURVE SMOOTH",
"1056 1 OFFCURVE",
"1114 4 OFFCURVE",
"1114 67 CURVE SMOOTH",
"1114 99 OFFCURVE",
"989 165 OFFCURVE",
"918 256 CURVE SMOOTH",
"798 410 OFFCURVE",
"739 492.333 OFFCURVE",
"739 507 CURVE SMOOTH",
"739 542.333 OFFCURVE",
"783 606 OFFCURVE",
"860 702 CURVE SMOOTH",
"947 811 OFFCURVE",
"1077 842 OFFCURVE",
"1077 909 CURVE SMOOTH",
"1077 947 OFFCURVE",
"995.667 966 OFFCURVE",
"833 966 CURVE SMOOTH",
"753.667 966 OFFCURVE",
"714 947.667 OFFCURVE",
"714 911 CURVE SMOOTH",
"714 889 OFFCURVE",
"738 852 OFFCURVE",
"738 831 CURVE SMOOTH",
"738 768 OFFCURVE",
"663 658 OFFCURVE",
"620 658 CURVE SMOOTH",
"586 658 OFFCURVE",
"506 788 OFFCURVE",
"506 834 CURVE SMOOTH",
"506 864 OFFCURVE",
"517 875 OFFCURVE",
"517 895 CURVE SMOOTH",
"517 948 OFFCURVE",
"501.333 969 OFFCURVE",
"424 969 CURVE SMOOTH",
"174.667 969 OFFCURVE",
"50 954 OFFCURVE",
"50 924 CURVE SMOOTH",
"50 888.667 OFFCURVE",
"80.667 851.333 OFFCURVE",
"142 812 CURVE SMOOTH",
"219 763 OFFCURVE",
"412 531 OFFCURVE",
"412 459 CURVE SMOOTH",
"412 427 OFFCURVE",
"347.667 354.667 OFFCURVE",
"219 214 CURVE SMOOTH",
"167 157 OFFCURVE",
"46 118 OFFCURVE",
"46 46 CURVE SMOOTH",
"46 16.667 OFFCURVE",
"99.833 2 OFFCURVE",
"207.5 2 CURVE SMOOTH",
"336 2 OFFCURVE",
"430 -8 OFFCURVE",
"430 52 CURVE"
);
}
);
width = 1155;
}
);
note = uni0078;
unicode = 0078;
},
{
glyphname = y;
layers = (
{
anchors = (
{
name = top;
position = "{581, 932}";
}
);
layerId = "92A672BF-229C-4BEC-8D25-4DDBB2A38145";
paths = (
{
closed = 1;
nodes = (
"347 -438 OFFCURVE",
"426 -395 OFFCURVE",
"490 -297 CURVE SMOOTH",
"591 -143 OFFCURVE",
"702 161 OFFCURVE",
"933.5 759 CURVE SMOOTH",
"949 800 OFFCURVE",
"1042 888.84 OFFCURVE",
"1042 915 CURVE SMOOTH",
"1042 942.333 OFFCURVE",
"1001.667 956 OFFCURVE",
"921 956 CURVE SMOOTH",
"792 956 OFFCURVE",
"739 953 OFFCURVE",
"739 928 CURVE SMOOTH",
"739 905 OFFCURVE",
"806 843 OFFCURVE",
"806 794.5 CURVE SMOOTH",
"806 742 OFFCURVE",
"644 243 OFFCURVE",
"602 243 CURVE SMOOTH",
"555 243 OFFCURVE",
"374 774 OFFCURVE",
"374 831 CURVE SMOOTH",
"374 852 OFFCURVE",
"402 889 OFFCURVE",
"402 906 CURVE SMOOTH",
"402 929.333 OFFCURVE",
"372.667 941 OFFCURVE",
"314 941 CURVE SMOOTH",
"164 941 OFFCURVE",
"89 920 OFFCURVE",
"89 878 CURVE SMOOTH",
"89 850.332 OFFCURVE",
"182.615 738.088 OFFCURVE",
"202 697.5 CURVE SMOOTH",
"276 542 OFFCURVE",
"499 40 OFFCURVE",
"499 0 CURVE SMOOTH",
"499 -128 OFFCURVE",
"405.667 -302 OFFCURVE",
"323 -302 CURVE SMOOTH",
"284 -302 OFFCURVE",
"253 -287 OFFCURVE",
"206 -287 CURVE SMOOTH",
"162 -287 OFFCURVE",
"140 -312 OFFCURVE",
"140 -362 CURVE SMOOTH",
"140 -395.333 OFFCURVE",
"192.667 -438 OFFCURVE",
"266 -438 CURVE SMOOTH"
);
}
);
width = 1104;
},
{
anchors = (
{
name = top;
position = "{619, 950}";
}
);
layerId = "5CBF0BAD-1756-4F16-9711-93DC239D102B";
paths = (
{
closed = 1;
nodes = (
"410 -452 OFFCURVE",
"493 -403 OFFCURVE",
"554 -304 CURVE SMOOTH",
"654 -140 OFFCURVE",
"915 557 OFFCURVE",
"988.5 710.5 CURVE SMOOTH",
"1017.146 770.306 OFFCURVE",
"1108 865.188 OFFCURVE",
"1108 895 CURVE SMOOTH",
"1108 949 OFFCURVE",
"1059 966 OFFCURVE",
"941 966 CURVE SMOOTH",
"853 966 OFFCURVE",
"763 965 OFFCURVE",
"763 900.5 CURVE SMOOTH",
"763 869.452 OFFCURVE",
"796 829 OFFCURVE",
"796 794 CURVE SMOOTH",
"796 614 OFFCURVE",
"677 311 OFFCURVE",
"635 311 CURVE SMOOTH",
"599 311 OFFCURVE",
"456 733 OFFCURVE",
"456 792.5 CURVE SMOOTH",
"456 837 OFFCURVE",
"480 845 OFFCURVE",
"483 895 CURVE SMOOTH",
"487 965 OFFCURVE",
"430 965 OFFCURVE",
"324 965 CURVE SMOOTH",
"138 965 OFFCURVE",
"45 948.333 OFFCURVE",
"45 915 CURVE SMOOTH",
"45 837 OFFCURVE",
"151 770 OFFCURVE",
"180 701 CURVE SMOOTH",
"241 553 OFFCURVE",
"475 105 OFFCURVE",
"475 -45 CURVE SMOOTH",
"475 -91 OFFCURVE",
"454 -134 OFFCURVE",
"417 -175 CURVE SMOOTH",
"378 -217 OFFCURVE",
"327 -238 OFFCURVE",
"265 -238 CURVE SMOOTH",
"189 -238 OFFCURVE",
"139 -283.667 OFFCURVE",
"139 -345 CURVE SMOOTH",
"139 -406.333 OFFCURVE",
"227.333 -452 OFFCURVE",
"306 -452 CURVE SMOOTH"
);
}
);
width = 1152;
}
);
note = uni0079;
unicode = 0079;
},
{
glyphname = z;
layers = (
{
anchors = (
{
name = top;
position = "{521, 949}";
}
);
layerId = "92A672BF-229C-4BEC-8D25-4DDBB2A38145";
paths = (
{
closed = 1;
nodes = (
"605 6 OFFCURVE",
"344 4 OFFCURVE",
"499 4 CURVE SMOOTH",
"654 0 OFFCURVE",
"800 -3 OFFCURVE",
"802 -3 CURVE SMOOTH",
"888 -3 OFFCURVE",
"900 72 OFFCURVE",
"900 189 CURVE SMOOTH",
"900 244 OFFCURVE",
"896 268 OFFCURVE",
"862 268 CURVE SMOOTH",
"840.165 268 OFFCURVE",
"756.59 139.633 OFFCURVE",
"713.5 117 CURVE SMOOTH",
"684 101 OFFCURVE",
"564 91 OFFCURVE",
"468 90 CURVE SMOOTH",
"399 89 OFFCURVE",
"343 93 OFFCURVE",
"343 104 CURVE SMOOTH",
"343 162 OFFCURVE",
"869 841 OFFCURVE",
"869 912 CURVE SMOOTH",
"869 938 OFFCURVE",
"848 951 OFFCURVE",
"806 951 CURVE SMOOTH",
"673 951 OFFCURVE",
"795 950 OFFCURVE",
"434 950 CURVE SMOOTH",
"412 950 OFFCURVE",
"368 951 OFFCURVE",
"186 957 CURVE SMOOTH",
"119 957 OFFCURVE",
"107 890 OFFCURVE",
"107 794 CURVE SMOOTH",
"107 730 OFFCURVE",
"119.333 698 OFFCURVE",
"144 698 CURVE SMOOTH",
"169.727 698 OFFCURVE",
"248.082 820.552 OFFCURVE",
"291 841.5 CURVE SMOOTH",
"319 855 OFFCURVE",
"411 863 OFFCURVE",
"491 862 CURVE SMOOTH",
"562 862 OFFCURVE",
"623 854 OFFCURVE",
"623 838 CURVE SMOOTH",
"623 764 OFFCURVE",
"97 162 OFFCURVE",
"97 43 CURVE SMOOTH",
"97 15.667 OFFCURVE",
"128.333 2 OFFCURVE",
"191 2 CURVE SMOOTH"
);
}
);
width = 983;
},
{
anchors = (
{
name = top;
position = "{498, 963}";
}
);
layerId = "5CBF0BAD-1756-4F16-9711-93DC239D102B";
paths = (
{
closed = 1;
nodes = (
"262 -1 OFFCURVE",
"362 -1 OFFCURVE",
"462 -1 CURVE SMOOTH",
"574 -1 OFFCURVE",
"685 -1 OFFCURVE",
"797 -1 CURVE SMOOTH",
"922 -1 OFFCURVE",
"922 62 OFFCURVE",
"922 227 CURVE SMOOTH",
"922 281 OFFCURVE",
"917 304 OFFCURVE",
"879 304 CURVE SMOOTH",
"835.991 304 OFFCURVE",
"730.737 182.831 OFFCURVE",
"666.5 158 CURVE SMOOTH",
"626.833 142.667 OFFCURVE",
"574.333 135 OFFCURVE",
"509 135 CURVE SMOOTH",
"443.667 135 OFFCURVE",
"411 141.333 OFFCURVE",
"411 154 CURVE SMOOTH",
"411 191 OFFCURVE",
"895 793 OFFCURVE",
"895 896 CURVE SMOOTH",
"895 942 OFFCURVE",
"876 962 OFFCURVE",
"839 962 CURVE SMOOTH",
"809 962 OFFCURVE",
"740.333 963 OFFCURVE",
"563 963 CURVE SMOOTH",
"436 964 OFFCURVE",
"309 966 OFFCURVE",
"182 967 CURVE SMOOTH",
"116 967 OFFCURVE",
"94 893 OFFCURVE",
"94 799 CURVE SMOOTH",
"94 734 OFFCURVE",
"102 682 OFFCURVE",
"139 682 CURVE SMOOTH",
"207 682 OFFCURVE",
"252 777 OFFCURVE",
"332 807 CURVE SMOOTH",
"356 816 OFFCURVE",
"390 826 OFFCURVE",
"440 826 CURVE SMOOTH",
"524 826 OFFCURVE",
"562 823 OFFCURVE",
"562 805 CURVE SMOOTH",
"562 747 OFFCURVE",
"72 209 OFFCURVE",
"72 50 CURVE SMOOTH",
"72 16 OFFCURVE",
"102 -1 OFFCURVE",
"162 -1 CURVE SMOOTH"
);
}
);
width = 996;
}
);
note = uni007A;
unicode = 007A;
},
{
glyphname = ordfeminine;
layers = (
{
layerId = "92A672BF-229C-4BEC-8D25-4DDBB2A38145";
paths = (
{
closed = 1;
nodes = (
"239 979 OFFCURVE",
"316 1044 OFFCURVE",
"459 1044 CURVE SMOOTH",
"469 1044 OFFCURVE",
"482 1026 OFFCURVE",
"482 1005 CURVE SMOOTH",
"482 847 OFFCURVE",
"444 805 OFFCURVE",
"332 805 CURVE SMOOTH",
"261 807 OFFCURVE",
"235 818 OFFCURVE",
"237 866 CURVE SMOOTH"
);
},
{
closed = 1;
nodes = (
"179 1378 OFFCURVE",
"130 1280 OFFCURVE",
"127 1250 CURVE SMOOTH",
"123 1215 OFFCURVE",
"139 1183 OFFCURVE",
"173.5 1183 CURVE SMOOTH",
"259 1183 OFFCURVE",
"265 1299 OFFCURVE",
"360 1299 CURVE SMOOTH",
"416 1299 OFFCURVE",
"475 1249 OFFCURVE",
"473 1185 CURVE SMOOTH",
"471 1131 OFFCURVE",
"421 1106 OFFCURVE",
"366 1093 CURVE SMOOTH",
"244 1065 OFFCURVE",
"93 1014 OFFCURVE",
"93 880 CURVE SMOOTH",
"93 777 OFFCURVE",
"154 714 OFFCURVE",
"278 714 CURVE SMOOTH",
"359.015 714 OFFCURVE",
"458.926 782 OFFCURVE",
"491 782 CURVE SMOOTH",
"508.393 782 OFFCURVE",
"546.416 716 OFFCURVE",
"594 716 CURVE SMOOTH",
"681.333 716 OFFCURVE",
"725 736.333 OFFCURVE",
"725 777 CURVE SMOOTH",
"725 810 OFFCURVE",
"652 800 OFFCURVE",
"637.5 842.5 CURVE SMOOTH",
"631.167 860.833 OFFCURVE",
"628 931.333 OFFCURVE",
"628 1054 CURVE SMOOTH",
"628 1200 OFFCURVE",
"616 1378 OFFCURVE",
"370 1378 CURVE SMOOTH"
);
}
);
width = 827;
},
{
layerId = "5CBF0BAD-1756-4F16-9711-93DC239D102B";
paths = (
{
closed = 1;
nodes = (
"302 810 OFFCURVE",
"280 821 OFFCURVE",
"280 892 CURVE SMOOTH",
"280 971 OFFCURVE",
"323 1016 OFFCURVE",
"443 1016 CURVE SMOOTH",
"460 1016 OFFCURVE",
"467 1005 OFFCURVE",
"467 958 CURVE SMOOTH",
"467 859 OFFCURVE",
"452 810 OFFCURVE",
"364 810 CURVE SMOOTH"
);
},
{
closed = 1;
nodes = (
"465 1107 OFFCURVE",
"423 1102 OFFCURVE",
"320 1092 CURVE SMOOTH",
"204 1081 OFFCURVE",
"70 1010 OFFCURVE",
"64 865 CURVE SMOOTH",
"59 753 OFFCURVE",
"135 688 OFFCURVE",
"281 688 CURVE SMOOTH",
"385 688 OFFCURVE",
"450 758 OFFCURVE",
"469 758 CURVE SMOOTH",
"491 758 OFFCURVE",
"515 700 OFFCURVE",
"596 695 CURVE SMOOTH",
"676 690 OFFCURVE",
"779 706 OFFCURVE",
"779 767.5 CURVE SMOOTH",
"779 815 OFFCURVE",
"715 819 OFFCURVE",
"698.5 864 CURVE SMOOTH",
"692.167 881.333 OFFCURVE",
"682 925 OFFCURVE",
"682 1199 CURVE SMOOTH",
"682 1320 OFFCURVE",
"596 1392 OFFCURVE",
"392 1392 CURVE SMOOTH",
"256 1392 OFFCURVE",
"102 1330.333 OFFCURVE",
"102 1249 CURVE SMOOTH",
"102 1196.333 OFFCURVE",
"131 1170 OFFCURVE",
"189 1170 CURVE SMOOTH",
"266 1170 OFFCURVE",
"306 1280 OFFCURVE",
"378 1280 CURVE SMOOTH",
"435.333 1280 OFFCURVE",
"465 1245 OFFCURVE",
"465 1174 CURVE SMOOTH"
);
}
);
width = 861;
}
);
note = uni00AA;
unicode = 00AA;
},
